<svg width="550" height="520" viewBox="0 0 550 520" fill="none" xmlns="http://www.w3.org/2000/svg">
<g clip-path="url(#clip0_1401_19963)">
<circle cx="303.617" cy="260.459" r="237.459" fill="#EFF6FF"/>
<circle cx="303.617" cy="261.487" r="182.977" fill="#D8E9FF"/>
<circle cx="303.102" cy="260.973" r="99.1981" fill="#2A446D"/>
<circle cx="303.102" cy="260.973" r="99.1981" fill="black" fill-opacity="0.2"/>
<circle cx="303.102" cy="260.973" r="99.1981" fill="url(#paint0_linear_1401_19963)" fill-opacity="0.4"/>
<circle cx="303.102" cy="260.973" r="99.1981" fill="url(#paint1_linear_1401_19963)" fill-opacity="0.6" style="mix-blend-mode:overlay"/>
<circle cx="303.102" cy="260.973" r="101.254" stroke="#2B73FF" stroke-opacity="0.6" stroke-width="4.11184"/>
<path d="M340.951 279.385C338.052 279.401 335.23 280.325 332.872 282.032L321.43 275.179C321.973 273.483 322.256 271.714 322.271 269.932C322.257 265.751 320.875 261.693 318.34 258.391C315.805 255.09 312.26 252.733 308.26 251.687V240.722C311.376 239.607 314.002 237.413 315.675 234.527C317.347 231.642 317.958 228.252 317.399 224.955C316.84 221.658 315.147 218.667 312.621 216.511C310.094 214.355 306.895 213.173 303.59 213.173C300.285 213.173 297.087 214.355 294.56 216.511C292.033 218.667 290.34 221.658 289.782 224.955C289.223 228.252 289.833 231.642 291.506 234.527C293.178 237.413 295.804 239.607 298.92 240.722V251.687C294.92 252.733 291.375 255.09 288.84 258.391C286.305 261.693 284.923 265.751 284.91 269.932C284.924 271.714 285.208 273.483 285.75 275.179L274.308 282.032C271.951 280.325 269.128 279.401 266.229 279.385C263.458 279.385 260.749 280.217 258.445 281.775C256.141 283.333 254.346 285.548 253.285 288.139C252.225 290.73 251.947 293.581 252.488 296.332C253.029 299.082 254.363 301.609 256.322 303.592C258.282 305.575 260.778 306.926 263.496 307.473C266.214 308.02 269.031 307.739 271.591 306.666C274.151 305.593 276.339 303.775 277.878 301.443C279.418 299.111 280.24 296.37 280.24 293.565C280.222 292.285 280.034 291.013 279.679 289.784L290.42 283.308C293.92 286.83 298.655 288.806 303.59 288.806C308.525 288.806 313.26 286.83 316.76 283.308L327.501 289.784C326.719 292.646 326.844 295.685 327.859 298.472C328.875 301.258 330.729 303.652 333.161 305.315C335.592 306.977 338.478 307.825 341.412 307.739C344.345 307.653 347.177 306.636 349.509 304.833C351.841 303.031 353.555 300.532 354.409 297.691C355.262 294.849 355.213 291.808 354.268 288.996C353.322 286.185 351.528 283.745 349.139 282.02C346.75 280.296 343.886 279.374 340.951 279.385ZM266.229 298.292C265.305 298.292 264.403 298.015 263.635 297.495C262.867 296.976 262.268 296.238 261.915 295.374C261.561 294.51 261.469 293.56 261.649 292.643C261.829 291.726 262.274 290.884 262.927 290.223C263.58 289.562 264.412 289.112 265.318 288.929C266.224 288.747 267.163 288.841 268.016 289.198C268.87 289.556 269.599 290.162 270.112 290.939C270.625 291.717 270.899 292.63 270.899 293.565C270.899 294.819 270.407 296.021 269.531 296.907C268.656 297.794 267.468 298.292 266.229 298.292ZM303.59 222.666C304.514 222.666 305.417 222.943 306.185 223.463C306.953 223.982 307.551 224.72 307.905 225.584C308.258 226.447 308.351 227.398 308.171 228.315C307.99 229.232 307.546 230.074 306.892 230.735C306.239 231.396 305.407 231.846 304.501 232.028C303.595 232.211 302.656 232.117 301.803 231.759C300.95 231.402 300.22 230.796 299.707 230.019C299.194 229.241 298.92 228.327 298.92 227.393C298.92 226.139 299.412 224.937 300.288 224.05C301.164 223.164 302.352 222.666 303.59 222.666ZM303.59 279.385C301.743 279.385 299.937 278.831 298.401 277.792C296.865 276.754 295.668 275.277 294.961 273.55C294.254 271.822 294.069 269.922 294.429 268.088C294.79 266.254 295.679 264.57 296.986 263.248C298.292 261.926 299.956 261.025 301.768 260.661C303.58 260.296 305.458 260.483 307.165 261.198C308.871 261.914 310.33 263.126 311.356 264.68C312.383 266.235 312.93 268.062 312.93 269.932C312.93 272.439 311.946 274.844 310.195 276.617C308.443 278.389 306.067 279.385 303.59 279.385ZM340.951 298.292C340.028 298.292 339.125 298.015 338.357 297.495C337.589 296.976 336.99 296.238 336.637 295.374C336.283 294.51 336.191 293.56 336.371 292.643C336.551 291.726 336.996 290.884 337.649 290.223C338.302 289.562 339.134 289.112 340.04 288.929C340.946 288.747 341.885 288.841 342.738 289.198C343.592 289.556 344.321 290.162 344.834 290.939C345.347 291.717 345.621 292.63 345.621 293.565C345.621 294.819 345.129 296.021 344.253 296.907C343.378 297.794 342.19 298.292 340.951 298.292Z" fill="white"/>
<path d="M1 249.295C1 238.896 9.43054 230.465 19.8301 230.465H164.874V268.126H19.8301C9.43052 268.126 1 259.695 1 249.295V249.295Z" fill="#FF821C"/>
<g filter="url(#filter0_d_1401_19963)">
<path d="M148.973 233.474L160.878 226.75C163.337 225.361 166.336 225.333 168.82 226.675L181.459 233.503C184.113 234.937 185.768 237.711 185.768 240.728V254.815C185.768 257.643 184.313 260.272 181.917 261.773L169.287 269.688C166.57 271.391 163.109 271.356 160.427 269.598L148.511 261.792C146.195 260.274 144.799 257.692 144.799 254.923V240.624C144.799 237.662 146.394 234.93 148.973 233.474Z" fill="#FF821C"/>
<path d="M156.44 247.911C156.44 249.661 156.921 251.279 157.758 252.636L160.225 247.823L157.779 243.143C156.942 244.521 156.44 246.161 156.44 247.911Z" fill="white"/>
<path d="M164.868 239.096C163.153 239.096 161.564 239.621 160.247 240.539L164.073 247.802L160.247 255.261C161.564 256.18 163.153 256.705 164.868 256.705C169.509 256.705 173.294 252.767 173.294 247.889C173.294 243.011 169.509 239.096 164.868 239.096ZM165.976 255.261H162.15L165.976 247.824L162.15 240.539H165.976L169.802 247.802L165.976 255.261Z" fill="white"/>
<path d="M165.954 235.421V236.843C171.307 237.411 175.488 242.158 175.488 247.889C175.488 253.62 171.307 258.367 165.954 258.936V260.358C172.059 259.767 176.847 254.408 176.847 247.867C176.847 241.327 172.059 235.989 165.954 235.421Z" fill="white"/>
<path d="M163.759 258.958C158.406 258.389 154.225 253.664 154.225 247.911C154.225 242.158 158.406 237.411 163.759 236.843V235.421C157.654 235.989 152.866 241.371 152.866 247.911C152.866 254.452 157.654 259.811 163.759 260.401V258.958Z" fill="white"/>
</g>
<path d="M25.6507 246.566H23.8793C23.8112 246.187 23.6844 245.854 23.4989 245.566C23.3135 245.279 23.0864 245.035 22.8176 244.834C22.5489 244.633 22.248 244.482 21.9149 244.38C21.5856 244.278 21.2355 244.227 20.8646 244.227C20.1947 244.227 19.5947 244.395 19.0648 244.732C18.5387 245.069 18.1224 245.563 17.8158 246.214C17.513 246.865 17.3616 247.659 17.3616 248.598C17.3616 249.544 17.513 250.343 17.8158 250.994C18.1224 251.645 18.5406 252.137 19.0705 252.47C19.6004 252.803 20.1966 252.97 20.8589 252.97C21.2261 252.97 21.5743 252.921 21.9036 252.822C22.2366 252.72 22.5376 252.57 22.8063 252.374C23.075 252.177 23.3021 251.936 23.4876 251.653C23.6768 251.365 23.8074 251.036 23.8793 250.665L25.6507 250.67C25.5561 251.242 25.3725 251.768 25.1 252.249C24.8312 252.726 24.4849 253.138 24.061 253.486C23.6409 253.831 23.1602 254.098 22.6189 254.287C22.0777 254.476 21.4872 254.571 20.8476 254.571C19.8408 254.571 18.9437 254.332 18.1565 253.855C17.3692 253.375 16.7484 252.688 16.2942 251.795C15.8438 250.901 15.6186 249.836 15.6186 248.598C15.6186 247.357 15.8457 246.291 16.2999 245.402C16.7541 244.508 17.3749 243.823 18.1621 243.347C18.9494 242.866 19.8445 242.625 20.8476 242.625C21.4645 242.625 22.0398 242.714 22.5735 242.892C23.111 243.066 23.5936 243.324 24.0213 243.664C24.449 244.001 24.8029 244.414 25.0829 244.902C25.363 245.387 25.5523 245.941 25.6507 246.566ZM31.1963 254.588C30.3371 254.588 29.5971 254.404 28.9764 254.037C28.3594 253.666 27.8825 253.146 27.5457 252.476C27.2126 251.802 27.0461 251.013 27.0461 250.108C27.0461 249.215 27.2126 248.428 27.5457 247.747C27.8825 247.065 28.3519 246.533 28.9537 246.151C29.5593 245.769 30.2671 245.578 31.0771 245.578C31.5691 245.578 32.046 245.659 32.5078 245.822C32.9695 245.985 33.384 246.24 33.7511 246.588C34.1183 246.937 34.4078 247.389 34.6198 247.945C34.8317 248.498 34.9377 249.17 34.9377 249.961V250.563H28.0056V249.291H33.2742C33.2742 248.844 33.1834 248.449 33.0017 248.104C32.82 247.756 32.5645 247.482 32.2353 247.281C31.9097 247.08 31.5275 246.98 31.0884 246.98C30.6115 246.98 30.1952 247.097 29.8394 247.332C29.4874 247.563 29.2148 247.866 29.0218 248.24C28.8326 248.611 28.7379 249.014 28.7379 249.45V250.443C28.7379 251.026 28.8401 251.522 29.0445 251.931C29.2527 252.34 29.5422 252.652 29.9132 252.868C30.2841 253.08 30.7175 253.186 31.2133 253.186C31.535 253.186 31.8284 253.14 32.0933 253.049C32.3583 252.955 32.5873 252.815 32.7803 252.629C32.9733 252.444 33.1209 252.215 33.2231 251.942L34.8299 252.232C34.7012 252.705 34.4703 253.119 34.1372 253.475C33.8079 253.827 33.3935 254.101 32.8938 254.298C32.398 254.491 31.8322 254.588 31.1963 254.588ZM38.3429 249.234V254.412H36.6454V245.691H38.2748V247.111H38.3827C38.5833 246.649 38.8974 246.278 39.3251 245.998C39.7566 245.718 40.2997 245.578 40.9545 245.578C41.5488 245.578 42.0692 245.703 42.5158 245.952C42.9625 246.198 43.3088 246.566 43.5548 247.054C43.8008 247.542 43.9238 248.146 43.9238 248.865V254.412H42.2263V249.069C42.2263 248.437 42.0616 247.943 41.7324 247.588C41.4031 247.228 40.9508 247.048 40.3754 247.048C39.9818 247.048 39.6317 247.133 39.3251 247.304C39.0223 247.474 38.782 247.724 38.6041 248.053C38.43 248.379 38.3429 248.772 38.3429 249.234ZM50.0954 245.691V247.054H45.332V245.691H50.0954ZM46.6094 243.602H48.307V251.851C48.307 252.181 48.3562 252.429 48.4546 252.595C48.553 252.758 48.6798 252.869 48.835 252.93C48.994 252.987 49.1662 253.015 49.3516 253.015C49.4879 253.015 49.6071 253.006 49.7093 252.987C49.8115 252.968 49.891 252.953 49.9478 252.941L50.2543 254.344C50.1559 254.382 50.0159 254.419 49.8342 254.457C49.6525 254.499 49.4254 254.522 49.1529 254.525C48.7063 254.533 48.2899 254.453 47.9039 254.287C47.5178 254.12 47.2056 253.863 46.9671 253.515C46.7286 253.167 46.6094 252.729 46.6094 252.203V243.602ZM51.7973 254.412V245.691H53.4381V247.077H53.529C53.6879 246.607 53.968 246.238 54.3692 245.969C54.7742 245.697 55.2322 245.561 55.7432 245.561C55.8491 245.561 55.974 245.564 56.1179 245.572C56.2655 245.58 56.3809 245.589 56.4642 245.6V247.224C56.3961 247.205 56.2749 247.184 56.1008 247.162C55.9267 247.135 55.7526 247.122 55.5785 247.122C55.1773 247.122 54.8196 247.207 54.5055 247.377C54.1951 247.544 53.9491 247.777 53.7674 248.076C53.5857 248.371 53.4949 248.708 53.4949 249.086V254.412H51.7973ZM60.2171 254.605C59.6645 254.605 59.1649 254.503 58.7183 254.298C58.2717 254.09 57.9178 253.789 57.6566 253.396C57.3992 253.002 57.2705 252.519 57.2705 251.948C57.2705 251.456 57.3652 251.051 57.5544 250.733C57.7437 250.415 57.9991 250.163 58.3209 249.978C58.6426 249.792 59.0022 249.652 59.3996 249.558C59.797 249.463 60.202 249.391 60.6146 249.342C61.1369 249.281 61.5608 249.232 61.8863 249.194C62.2118 249.153 62.4484 249.086 62.596 248.996C62.7436 248.905 62.8174 248.757 62.8174 248.553V248.513C62.8174 248.017 62.6774 247.633 62.3973 247.36C62.121 247.088 61.7084 246.952 61.1596 246.952C60.5881 246.952 60.1376 247.078 59.8084 247.332C59.4828 247.582 59.2576 247.86 59.1327 248.167L57.5374 247.803C57.7266 247.273 58.0029 246.846 58.3663 246.52C58.7334 246.191 59.1554 245.952 59.6324 245.805C60.1093 245.653 60.6108 245.578 61.1369 245.578C61.4851 245.578 61.8541 245.619 62.244 245.703C62.6376 245.782 63.0048 245.93 63.3454 246.145C63.6898 246.361 63.9718 246.67 64.1913 247.071C64.4109 247.468 64.5206 247.985 64.5206 248.621V254.412H62.8628V253.22H62.7947C62.6849 253.439 62.5203 253.655 62.3008 253.867C62.0812 254.079 61.7992 254.255 61.4548 254.395C61.1104 254.535 60.6978 254.605 60.2171 254.605ZM60.5862 253.242C61.0555 253.242 61.4567 253.15 61.7898 252.964C62.1266 252.779 62.3821 252.536 62.5562 252.237C62.7341 251.935 62.8231 251.611 62.8231 251.267V250.142C62.7625 250.203 62.6452 250.26 62.4711 250.313C62.3008 250.362 62.1058 250.405 61.8863 250.443C61.6668 250.477 61.4529 250.51 61.2447 250.54C61.0366 250.566 60.8625 250.589 60.7224 250.608C60.3931 250.65 60.0922 250.72 59.8197 250.818C59.551 250.916 59.3352 251.058 59.1725 251.244C59.0135 251.426 58.934 251.668 58.934 251.971C58.934 252.391 59.0892 252.709 59.3996 252.924C59.7099 253.136 60.1055 253.242 60.5862 253.242ZM68.3034 242.784V254.412H66.6058V242.784H68.3034ZM77.7311 254.582C77.0271 254.582 76.3988 254.402 75.8462 254.043C75.2973 253.679 74.8658 253.163 74.5517 252.493C74.2413 251.819 74.0861 251.011 74.0861 250.069C74.0861 249.126 74.2432 248.32 74.5574 247.65C74.8753 246.98 75.3106 246.467 75.8632 246.111C76.4158 245.756 77.0422 245.578 77.7424 245.578C78.2837 245.578 78.7189 245.669 79.0482 245.85C79.3813 246.028 79.6387 246.236 79.8204 246.475C80.0058 246.713 80.1497 246.923 80.2519 247.105H80.3541V242.784H82.0516V254.412H80.3938V253.055H80.2519C80.1497 253.24 80.002 253.452 79.809 253.691C79.6198 253.929 79.3586 254.137 79.0255 254.315C78.6924 254.493 78.261 254.582 77.7311 254.582ZM78.1058 253.134C78.594 253.134 79.0066 253.006 79.3435 252.748C79.6841 252.487 79.9415 252.126 80.1156 251.664C80.2935 251.202 80.3824 250.665 80.3824 250.052C80.3824 249.446 80.2954 248.916 80.1213 248.462C79.9472 248.008 79.6917 247.654 79.3548 247.4C79.018 247.147 78.6016 247.02 78.1058 247.02C77.5948 247.02 77.169 247.152 76.8284 247.417C76.4877 247.682 76.2303 248.044 76.0562 248.502C75.8859 248.96 75.8007 249.476 75.8007 250.052C75.8007 250.634 75.8878 251.159 76.0619 251.624C76.236 252.09 76.4934 252.459 76.834 252.731C77.1785 253 77.6024 253.134 78.1058 253.134ZM84.2986 254.412V245.691H85.9962V254.412H84.2986ZM85.1559 244.346C84.8607 244.346 84.6071 244.247 84.3951 244.051C84.1869 243.85 84.0828 243.611 84.0828 243.335C84.0828 243.055 84.1869 242.817 84.3951 242.62C84.6071 242.419 84.8607 242.319 85.1559 242.319C85.4511 242.319 85.7028 242.419 85.911 242.62C86.1229 242.817 86.2289 243.055 86.2289 243.335C86.2289 243.611 86.1229 243.85 85.911 244.051C85.7028 244.247 85.4511 244.346 85.1559 244.346ZM94.6388 247.82L93.1002 248.093C93.0359 247.896 92.9337 247.709 92.7936 247.531C92.6574 247.353 92.4719 247.207 92.2372 247.094C92.0026 246.98 91.7092 246.923 91.3572 246.923C90.8765 246.923 90.4753 247.031 90.1536 247.247C89.8319 247.459 89.671 247.733 89.671 248.07C89.671 248.362 89.7789 248.596 89.9946 248.774C90.2104 248.952 90.5586 249.098 91.0393 249.211L92.4246 249.529C93.227 249.715 93.825 250 94.2187 250.387C94.6123 250.773 94.8091 251.274 94.8091 251.891C94.8091 252.413 94.6577 252.879 94.3549 253.288C94.0559 253.693 93.6377 254.011 93.1002 254.242C92.5665 254.472 91.9477 254.588 91.2437 254.588C90.2672 254.588 89.4704 254.38 88.8535 253.963C88.2365 253.543 87.858 252.947 87.718 252.175L89.3588 251.925C89.461 252.353 89.671 252.676 89.989 252.896C90.3069 253.112 90.7213 253.22 91.2323 253.22C91.7887 253.22 92.2334 253.104 92.5665 252.873C92.8996 252.639 93.0661 252.353 93.0661 252.016C93.0661 251.743 92.9639 251.514 92.7596 251.329C92.559 251.144 92.2505 251.004 91.8341 250.909L90.358 250.585C89.5442 250.4 88.9424 250.105 88.5526 249.7C88.1665 249.295 87.9735 248.782 87.9735 248.161C87.9735 247.646 88.1173 247.196 88.4049 246.81C88.6926 246.424 89.09 246.123 89.5972 245.907C90.1044 245.688 90.6854 245.578 91.3402 245.578C92.2826 245.578 93.0245 245.782 93.5658 246.191C94.107 246.596 94.4647 247.139 94.6388 247.82ZM96.4997 257.682V245.691H98.1575V247.105H98.2995C98.3979 246.923 98.5398 246.713 98.7253 246.475C98.9107 246.236 99.1681 246.028 99.4974 245.85C99.8267 245.669 100.262 245.578 100.803 245.578C101.507 245.578 102.136 245.756 102.688 246.111C103.241 246.467 103.674 246.98 103.988 247.65C104.306 248.32 104.465 249.126 104.465 250.069C104.465 251.011 104.308 251.819 103.994 252.493C103.68 253.163 103.248 253.679 102.699 254.043C102.151 254.402 101.524 254.582 100.82 254.582C100.29 254.582 99.857 254.493 99.5201 254.315C99.187 254.137 98.9259 253.929 98.7366 253.691C98.5474 253.452 98.4017 253.24 98.2995 253.055H98.1973V257.682H96.4997ZM98.1632 250.052C98.1632 250.665 98.2522 251.202 98.4301 251.664C98.6079 252.126 98.8653 252.487 99.2022 252.748C99.539 253.006 99.9516 253.134 100.44 253.134C100.947 253.134 101.371 253 101.712 252.731C102.052 252.459 102.31 252.09 102.484 251.624C102.662 251.159 102.751 250.634 102.751 250.052C102.751 249.476 102.664 248.96 102.489 248.502C102.319 248.044 102.062 247.682 101.717 247.417C101.377 247.152 100.951 247.02 100.44 247.02C99.9478 247.02 99.5315 247.147 99.1908 247.4C98.854 247.654 98.5985 248.008 98.4244 248.462C98.2503 248.916 98.1632 249.446 98.1632 250.052ZM108.729 254.605C108.176 254.605 107.677 254.503 107.23 254.298C106.784 254.09 106.43 253.789 106.169 253.396C105.911 253.002 105.782 252.519 105.782 251.948C105.782 251.456 105.877 251.051 106.066 250.733C106.256 250.415 106.511 250.163 106.833 249.978C107.155 249.792 107.514 249.652 107.912 249.558C108.309 249.463 108.714 249.391 109.127 249.342C109.649 249.281 110.073 249.232 110.398 249.194C110.724 249.153 110.96 249.086 111.108 248.996C111.256 248.905 111.329 248.757 111.329 248.553V248.513C111.329 248.017 111.189 247.633 110.909 247.36C110.633 247.088 110.22 246.952 109.672 246.952C109.1 246.952 108.65 247.078 108.32 247.332C107.995 247.582 107.77 247.86 107.645 248.167L106.049 247.803C106.239 247.273 106.515 246.846 106.878 246.52C107.245 246.191 107.667 245.952 108.144 245.805C108.621 245.653 109.123 245.578 109.649 245.578C109.997 245.578 110.366 245.619 110.756 245.703C111.15 245.782 111.517 245.93 111.857 246.145C112.202 246.361 112.484 246.67 112.703 247.071C112.923 247.468 113.033 247.985 113.033 248.621V254.412H111.375V253.22H111.307C111.197 253.439 111.032 253.655 110.813 253.867C110.593 254.079 110.311 254.255 109.967 254.395C109.622 254.535 109.21 254.605 108.729 254.605ZM109.098 253.242C109.567 253.242 109.969 253.15 110.302 252.964C110.639 252.779 110.894 252.536 111.068 252.237C111.246 251.935 111.335 251.611 111.335 251.267V250.142C111.274 250.203 111.157 250.26 110.983 250.313C110.813 250.362 110.618 250.405 110.398 250.443C110.179 250.477 109.965 250.51 109.757 250.54C109.549 250.566 109.374 250.589 109.234 250.608C108.905 250.65 108.604 250.72 108.332 250.818C108.063 250.916 107.847 251.058 107.684 251.244C107.525 251.426 107.446 251.668 107.446 251.971C107.446 252.391 107.601 252.709 107.912 252.924C108.222 253.136 108.617 253.242 109.098 253.242ZM119.189 245.691V247.054H114.425V245.691H119.189ZM115.703 243.602H117.4V251.851C117.4 252.181 117.449 252.429 117.548 252.595C117.646 252.758 117.773 252.869 117.928 252.93C118.087 252.987 118.259 253.015 118.445 253.015C118.581 253.015 118.7 253.006 118.802 252.987C118.905 252.968 118.984 252.953 119.041 252.941L119.347 254.344C119.249 254.382 119.109 254.419 118.927 254.457C118.746 254.499 118.519 254.522 118.246 254.525C117.799 254.533 117.383 254.453 116.997 254.287C116.611 254.12 116.299 253.863 116.06 253.515C115.822 253.167 115.703 252.729 115.703 252.203V243.602ZM124.47 254.588C123.626 254.588 122.899 254.397 122.29 254.014C121.684 253.628 121.219 253.097 120.893 252.419C120.568 251.742 120.405 250.966 120.405 250.091C120.405 249.206 120.572 248.424 120.905 247.747C121.238 247.065 121.707 246.533 122.313 246.151C122.918 245.769 123.632 245.578 124.453 245.578C125.115 245.578 125.706 245.701 126.224 245.947C126.743 246.189 127.161 246.53 127.479 246.969C127.801 247.408 127.992 247.921 128.053 248.507H126.4C126.31 248.099 126.101 247.747 125.776 247.451C125.454 247.156 125.023 247.008 124.481 247.008C124.008 247.008 123.594 247.133 123.238 247.383C122.886 247.629 122.612 247.981 122.415 248.439C122.218 248.893 122.12 249.431 122.12 250.052C122.12 250.687 122.216 251.236 122.409 251.698C122.602 252.16 122.875 252.517 123.227 252.771C123.583 253.025 124.001 253.151 124.481 253.151C124.803 253.151 125.095 253.093 125.356 252.975C125.621 252.854 125.842 252.682 126.02 252.459C126.202 252.236 126.329 251.967 126.4 251.653H128.053C127.992 252.217 127.808 252.72 127.502 253.163C127.195 253.606 126.785 253.954 126.27 254.207C125.759 254.461 125.159 254.588 124.47 254.588ZM131.39 249.234V254.412H129.692V242.784H131.367V247.111H131.475C131.679 246.641 131.991 246.269 132.412 245.992C132.832 245.716 133.381 245.578 134.058 245.578C134.656 245.578 135.178 245.701 135.625 245.947C136.075 246.193 136.424 246.56 136.67 247.048C136.919 247.533 137.044 248.138 137.044 248.865V254.412H135.347V249.069C135.347 248.43 135.182 247.934 134.853 247.582C134.524 247.226 134.066 247.048 133.479 247.048C133.078 247.048 132.718 247.133 132.4 247.304C132.086 247.474 131.838 247.724 131.656 248.053C131.479 248.379 131.39 248.772 131.39 249.234Z" fill="white"/>
<path d="M413 244.776C413 234.377 421.431 225.946 431.83 225.946H528.911V263.607H431.83C421.431 263.607 413 255.176 413 244.776V244.776Z" fill="#243746"/>
<g filter="url(#filter1_d_1401_19963)">
<path d="M513.008 228.955L524.914 222.231C527.372 220.843 530.371 220.814 532.855 222.156L545.495 228.984C548.149 230.418 549.803 233.192 549.803 236.209V250.296C549.803 253.124 548.348 255.753 545.952 257.255L533.323 265.169C530.605 266.872 527.145 266.837 524.462 265.079L512.547 257.273C510.23 255.755 508.835 253.173 508.835 250.404V236.105C508.835 233.144 510.43 230.411 513.008 228.955Z" fill="#243746"/>
<path opacity="0.4" d="M519.893 241.19V247.528H526.217V253.851H532.555V241.19H519.893Z" fill="white"/>
<path d="M519.893 247.528H526.217V253.851H519.893V247.528Z" fill="white"/>
<path d="M532.555 241.189V234.866H526.216V247.527H538.878V241.189H532.555Z" fill="white"/>
<path opacity="0.5" d="M532.556 234.866H538.88V241.189H532.556V234.866Z" fill="white"/>
</g>
<path d="M438.081 241.32C438.02 240.782 437.771 240.366 437.332 240.071C436.892 239.772 436.34 239.622 435.674 239.622C435.197 239.622 434.784 239.698 434.436 239.849C434.088 239.997 433.817 240.201 433.624 240.463C433.435 240.72 433.34 241.013 433.34 241.343C433.34 241.619 433.405 241.857 433.533 242.058C433.666 242.259 433.838 242.427 434.05 242.563C434.266 242.696 434.497 242.807 434.743 242.898C434.989 242.985 435.225 243.057 435.452 243.114L436.588 243.409C436.959 243.5 437.339 243.623 437.729 243.778C438.119 243.933 438.48 244.138 438.813 244.391C439.146 244.645 439.415 244.959 439.62 245.334C439.828 245.709 439.932 246.157 439.932 246.679C439.932 247.338 439.761 247.923 439.421 248.434C439.084 248.945 438.594 249.348 437.95 249.643C437.311 249.938 436.537 250.086 435.628 250.086C434.758 250.086 434.005 249.948 433.369 249.671C432.733 249.395 432.235 249.003 431.876 248.496C431.516 247.985 431.317 247.38 431.279 246.679H433.039C433.073 247.1 433.21 247.45 433.448 247.73C433.69 248.006 433.999 248.212 434.374 248.349C434.752 248.481 435.167 248.547 435.617 248.547C436.113 248.547 436.554 248.47 436.94 248.314C437.33 248.156 437.636 247.936 437.86 247.656C438.083 247.372 438.195 247.041 438.195 246.662C438.195 246.318 438.096 246.036 437.899 245.816C437.706 245.597 437.443 245.415 437.11 245.271C436.781 245.128 436.408 245.001 435.992 244.891L434.618 244.516C433.687 244.263 432.949 243.89 432.404 243.398C431.862 242.906 431.592 242.255 431.592 241.445C431.592 240.775 431.773 240.19 432.137 239.69C432.5 239.191 432.992 238.803 433.613 238.527C434.234 238.246 434.934 238.106 435.713 238.106C436.501 238.106 437.195 238.245 437.797 238.521C438.403 238.797 438.88 239.178 439.228 239.662C439.576 240.143 439.758 240.695 439.773 241.32H438.081ZM445.475 250.069C444.615 250.069 443.875 249.885 443.255 249.518C442.638 249.147 442.161 248.627 441.824 247.957C441.491 247.283 441.324 246.494 441.324 245.589C441.324 244.696 441.491 243.909 441.824 243.227C442.161 242.546 442.63 242.014 443.232 241.632C443.838 241.25 444.545 241.059 445.355 241.059C445.847 241.059 446.324 241.14 446.786 241.303C447.248 241.466 447.662 241.721 448.029 242.069C448.397 242.418 448.686 242.87 448.898 243.426C449.11 243.979 449.216 244.651 449.216 245.442V246.044H442.284V244.772H447.553C447.553 244.325 447.462 243.93 447.28 243.585C447.098 243.237 446.843 242.963 446.514 242.762C446.188 242.561 445.806 242.461 445.367 242.461C444.89 242.461 444.473 242.578 444.118 242.813C443.766 243.044 443.493 243.347 443.3 243.721C443.111 244.092 443.016 244.495 443.016 244.931V245.924C443.016 246.507 443.118 247.003 443.323 247.412C443.531 247.821 443.821 248.133 444.191 248.349C444.562 248.561 444.996 248.666 445.492 248.666C445.813 248.666 446.107 248.621 446.372 248.53C446.637 248.436 446.866 248.296 447.059 248.11C447.252 247.925 447.399 247.696 447.501 247.423L449.108 247.713C448.979 248.186 448.749 248.6 448.415 248.956C448.086 249.308 447.672 249.582 447.172 249.779C446.676 249.972 446.11 250.069 445.475 250.069ZM452.621 244.715V249.893H450.924V241.172H452.553V242.592H452.661C452.862 242.13 453.176 241.759 453.603 241.479C454.035 241.199 454.578 241.059 455.233 241.059C455.827 241.059 456.348 241.184 456.794 241.433C457.241 241.679 457.587 242.047 457.833 242.535C458.079 243.023 458.202 243.627 458.202 244.346V249.893H456.505V244.55C456.505 243.918 456.34 243.424 456.011 243.069C455.681 242.709 455.229 242.529 454.654 242.529C454.26 242.529 453.91 242.614 453.603 242.785C453.301 242.955 453.06 243.205 452.882 243.534C452.708 243.86 452.621 244.253 452.621 244.715ZM463.567 250.063C462.863 250.063 462.235 249.883 461.683 249.524C461.134 249.16 460.702 248.644 460.388 247.974C460.078 247.3 459.923 246.492 459.923 245.55C459.923 244.607 460.08 243.801 460.394 243.131C460.712 242.461 461.147 241.948 461.7 241.592C462.252 241.237 462.879 241.059 463.579 241.059C464.12 241.059 464.555 241.15 464.885 241.331C465.218 241.509 465.475 241.717 465.657 241.956C465.842 242.194 465.986 242.404 466.088 242.586H466.19V238.265H467.888V249.893H466.23V248.536H466.088C465.986 248.721 465.838 248.933 465.645 249.172C465.456 249.41 465.195 249.618 464.862 249.796C464.529 249.974 464.097 250.063 463.567 250.063ZM463.942 248.615C464.43 248.615 464.843 248.487 465.18 248.229C465.521 247.968 465.778 247.607 465.952 247.145C466.13 246.683 466.219 246.146 466.219 245.533C466.219 244.927 466.132 244.397 465.958 243.943C465.784 243.489 465.528 243.135 465.191 242.881C464.854 242.628 464.438 242.501 463.942 242.501C463.431 242.501 463.005 242.633 462.665 242.898C462.324 243.163 462.067 243.525 461.893 243.983C461.722 244.441 461.637 244.957 461.637 245.533C461.637 246.115 461.724 246.64 461.898 247.105C462.072 247.571 462.33 247.94 462.67 248.212C463.015 248.481 463.439 248.615 463.942 248.615ZM473.791 253.345C473.099 253.345 472.502 253.254 472.003 253.072C471.507 252.891 471.102 252.65 470.788 252.351C470.474 252.052 470.239 251.725 470.084 251.369L471.543 250.767C471.645 250.934 471.781 251.11 471.952 251.295C472.126 251.484 472.361 251.645 472.656 251.778C472.955 251.91 473.339 251.976 473.808 251.976C474.452 251.976 474.984 251.819 475.404 251.505C475.824 251.195 476.034 250.699 476.034 250.018V248.303H475.926C475.824 248.489 475.676 248.695 475.483 248.922C475.294 249.149 475.033 249.346 474.7 249.512C474.367 249.679 473.933 249.762 473.4 249.762C472.711 249.762 472.09 249.601 471.537 249.28C470.989 248.954 470.553 248.475 470.232 247.843C469.914 247.207 469.755 246.426 469.755 245.498C469.755 244.571 469.912 243.776 470.226 243.114C470.544 242.452 470.979 241.944 471.532 241.592C472.084 241.237 472.711 241.059 473.411 241.059C473.952 241.059 474.389 241.15 474.722 241.331C475.055 241.509 475.315 241.717 475.5 241.956C475.689 242.194 475.835 242.404 475.937 242.586H476.062V241.172H477.726V250.086C477.726 250.835 477.552 251.45 477.203 251.931C476.855 252.412 476.384 252.768 475.79 252.998C475.199 253.229 474.533 253.345 473.791 253.345ZM473.774 248.354C474.263 248.354 474.675 248.241 475.012 248.014C475.353 247.783 475.61 247.453 475.784 247.026C475.962 246.594 476.051 246.078 476.051 245.476C476.051 244.889 475.964 244.372 475.79 243.926C475.616 243.479 475.36 243.131 475.023 242.881C474.686 242.628 474.27 242.501 473.774 242.501C473.263 242.501 472.837 242.633 472.497 242.898C472.156 243.159 471.899 243.515 471.725 243.966C471.554 244.416 471.469 244.919 471.469 245.476C471.469 246.047 471.556 246.549 471.73 246.98C471.904 247.412 472.162 247.749 472.502 247.991C472.847 248.233 473.271 248.354 473.774 248.354ZM479.827 249.893V241.172H481.467V242.558H481.558C481.717 242.088 481.997 241.719 482.398 241.45C482.803 241.178 483.261 241.042 483.772 241.042C483.878 241.042 484.003 241.045 484.147 241.053C484.295 241.061 484.41 241.07 484.493 241.081V242.705C484.425 242.686 484.304 242.665 484.13 242.643C483.956 242.616 483.782 242.603 483.608 242.603C483.207 242.603 482.849 242.688 482.535 242.858C482.224 243.025 481.978 243.258 481.797 243.557C481.615 243.852 481.524 244.189 481.524 244.567V249.893H479.827ZM485.787 249.893V241.172H487.484V249.893H485.787ZM486.644 239.827C486.349 239.827 486.095 239.728 485.883 239.531C485.675 239.331 485.571 239.092 485.571 238.816C485.571 238.536 485.675 238.298 485.883 238.101C486.095 237.9 486.349 237.8 486.644 237.8C486.939 237.8 487.191 237.9 487.399 238.101C487.611 238.298 487.717 238.536 487.717 238.816C487.717 239.092 487.611 239.331 487.399 239.531C487.191 239.728 486.939 239.827 486.644 239.827ZM492.857 250.063C492.153 250.063 491.524 249.883 490.972 249.524C490.423 249.16 489.991 248.644 489.677 247.974C489.367 247.3 489.212 246.492 489.212 245.55C489.212 244.607 489.369 243.801 489.683 243.131C490.001 242.461 490.436 241.948 490.989 241.592C491.541 241.237 492.168 241.059 492.868 241.059C493.409 241.059 493.844 241.15 494.174 241.331C494.507 241.509 494.764 241.717 494.946 241.956C495.131 242.194 495.275 242.404 495.377 242.586H495.48V238.265H497.177V249.893H495.519V248.536H495.377C495.275 248.721 495.128 248.933 494.935 249.172C494.745 249.41 494.484 249.618 494.151 249.796C493.818 249.974 493.386 250.063 492.857 250.063ZM493.231 248.615C493.72 248.615 494.132 248.487 494.469 248.229C494.81 247.968 495.067 247.607 495.241 247.145C495.419 246.683 495.508 246.146 495.508 245.533C495.508 244.927 495.421 244.397 495.247 243.943C495.073 243.489 494.817 243.135 494.48 242.881C494.143 242.628 493.727 242.501 493.231 242.501C492.72 242.501 492.295 242.633 491.954 242.898C491.613 243.163 491.356 243.525 491.182 243.983C491.011 244.441 490.926 244.957 490.926 245.533C490.926 246.115 491.013 246.64 491.187 247.105C491.362 247.571 491.619 247.94 491.96 248.212C492.304 248.481 492.728 248.615 493.231 248.615Z" fill="white"/>
<path d="M61.4678 72.5215C61.4678 62.1219 69.8983 53.6914 80.2979 53.6914H221.345V91.3517H80.2979C69.8983 91.3517 61.4678 82.9211 61.4678 72.5215V72.5215Z" fill="#FE4A49"/>
<g filter="url(#filter2_d_1401_19963)">
<path d="M205.444 56.7001L217.349 49.9761C219.807 48.5877 222.806 48.5594 225.29 49.9014L237.93 56.7295C240.584 58.1635 242.239 60.9375 242.239 63.9545V78.0413C242.239 80.8691 240.784 83.4981 238.387 84.9997L225.758 92.9139C223.04 94.617 219.58 94.582 216.897 92.8245L204.982 85.0179C202.665 83.5005 201.27 80.918 201.27 78.149V63.8503C201.27 60.8887 202.865 58.1565 205.444 56.7001Z" fill="#FE4A49"/>
<path fill-rule="evenodd" clip-rule="evenodd" d="M212.07 65.1309C213.53 61.3111 217.123 58.6814 220.846 58.6814C224.619 58.6814 228.154 61.2794 229.623 65.1309C231.272 69.4457 229.86 73.7605 227.524 77.3667C225.748 80.1146 223.657 82.4673 221.329 84.6383C221.296 84.6746 221.243 84.6655 221.214 84.6292C221.01 84.3749 220.813 84.1114 220.621 83.848C220.498 83.6845 220.38 83.521 220.253 83.3575C220.22 83.3211 220.228 83.2621 220.261 83.2303C222.303 81.3273 224.173 79.2607 225.809 76.9216C227.344 74.7233 228.702 72.1072 228.702 69.2458C228.702 64.545 225.085 60.5299 220.838 60.5299C216.562 60.5299 212.974 64.5086 212.974 69.2458C212.974 70.6901 213.526 73.1201 216.169 76.4856C217.233 77.8482 218.313 78.9246 218.927 79.5105C219.569 78.8655 220.727 77.6529 221.877 76.1949C224.058 73.4198 225.212 71.0172 225.212 69.2458C225.212 66.5661 223.248 64.386 220.83 64.386C218.416 64.386 216.448 66.5661 216.448 69.2458C216.448 71.6439 218.35 73.5515 219.848 75.0549C219.909 75.1185 219.975 75.1821 220.036 75.2411C220.069 75.2729 220.069 75.332 220.04 75.3683C219.704 75.7816 219.369 76.1904 219.033 76.5991C219.005 76.6355 218.952 76.6355 218.919 76.6037C217.008 74.6825 214.786 72.3343 214.786 69.2458C214.786 65.6759 217.626 62.5375 220.838 62.5375C224.107 62.5375 226.889 65.6214 226.889 69.2458C226.889 71.5031 225.625 74.2601 223.133 77.4258C221.869 79.0291 220.486 80.4961 219.013 81.8632C218.984 81.8904 218.939 81.8904 218.911 81.8632C217.491 80.5824 216.128 79.2198 214.925 77.6892C213.898 76.3766 213.072 75.0776 212.479 73.8331C211.169 71.0808 210.961 68.0241 212.07 65.1309ZM220.846 66.3799C222.27 66.3799 223.432 67.6607 223.432 69.2458C223.432 70.8309 222.274 72.1118 220.846 72.1118C219.418 72.1118 218.26 70.8309 218.26 69.2458C218.26 67.6607 219.422 66.3799 220.846 66.3799ZM219.713 69.2458C219.713 69.9362 220.22 70.4994 220.846 70.4994C221.472 70.4994 221.979 69.9362 221.979 69.2458C221.979 68.5555 221.472 67.9923 220.846 67.9923C220.22 67.9923 219.713 68.5555 219.713 69.2458Z" fill="white"/>
</g>
<path d="M85.4294 69.5276C85.3688 68.9902 85.119 68.5738 84.6799 68.2786C84.2409 67.9796 83.6883 67.8301 83.0221 67.8301C82.5452 67.8301 82.1327 67.9058 81.7844 68.0572C81.4362 68.2048 81.1656 68.4092 80.9726 68.6703C80.7833 68.9277 80.6887 69.221 80.6887 69.5503C80.6887 69.8266 80.753 70.0651 80.8817 70.2657C81.0142 70.4663 81.1864 70.6347 81.3984 70.771C81.6141 70.9035 81.845 71.0151 82.091 71.106C82.337 71.193 82.5736 71.2649 82.8007 71.3217L83.9362 71.6169C84.3071 71.7078 84.6875 71.8308 85.0774 71.986C85.4672 72.1412 85.8287 72.3455 86.1618 72.5991C86.4948 72.8527 86.7636 73.1669 86.968 73.5416C87.1761 73.9163 87.2802 74.3648 87.2802 74.8871C87.2802 75.5457 87.1099 76.1305 86.7692 76.6415C86.4324 77.1525 85.9422 77.5556 85.2988 77.8508C84.6591 78.146 83.8851 78.2936 82.9767 78.2936C82.1062 78.2936 81.353 78.1555 80.7171 77.8792C80.0812 77.6029 79.5835 77.2111 79.2239 76.7039C78.8643 76.193 78.6656 75.5874 78.6278 74.8871H80.3878C80.4219 75.3073 80.5581 75.6574 80.7966 75.9375C81.0388 76.2138 81.3473 76.4201 81.722 76.5563C82.1005 76.6888 82.5149 76.755 82.9654 76.755C83.4612 76.755 83.9021 76.6774 84.2882 76.5223C84.6781 76.3633 84.9846 76.1438 85.2079 75.8637C85.4313 75.5798 85.5429 75.2486 85.5429 74.8701C85.5429 74.5257 85.4445 74.2437 85.2477 74.0242C85.0547 73.8046 84.7916 73.623 84.4585 73.4791C84.1292 73.3353 83.7564 73.2085 83.3401 73.0987L81.9661 72.724C81.035 72.4704 80.297 72.0976 79.7519 71.6056C79.2107 71.1135 78.94 70.4625 78.94 69.6525C78.94 68.9826 79.1217 68.3978 79.4851 67.8982C79.8484 67.3986 80.3405 67.0106 80.9612 66.7343C81.5819 66.4542 82.2822 66.3142 83.0619 66.3142C83.8491 66.3142 84.5437 66.4523 85.1455 66.7286C85.7511 67.0049 86.228 67.3853 86.5762 67.8698C86.9244 68.3505 87.1061 68.9031 87.1213 69.5276H85.4294ZM94.5887 74.484V69.38H96.2919V78.1006H94.6227V76.5904H94.5319C94.3313 77.0559 94.0096 77.4439 93.5667 77.7543C93.1277 78.0608 92.5807 78.2141 91.9259 78.2141C91.3658 78.2141 90.8699 78.0911 90.4384 77.8451C90.0107 77.5953 89.6739 77.2263 89.4279 76.738C89.1856 76.2497 89.0645 75.646 89.0645 74.9269V69.38H90.7621V74.7225C90.7621 75.3167 90.9267 75.7899 91.256 76.1419C91.5853 76.4939 92.013 76.6699 92.5391 76.6699C92.857 76.6699 93.1731 76.5904 93.4872 76.4314C93.8052 76.2724 94.0682 76.0321 94.2764 75.7104C94.4884 75.3887 94.5924 74.9799 94.5887 74.484ZM98.3969 81.3708V69.38H100.055V70.7937H100.197C100.295 70.612 100.437 70.402 100.623 70.1635C100.808 69.9251 101.065 69.7169 101.395 69.539C101.724 69.3573 102.159 69.2665 102.7 69.2665C103.404 69.2665 104.033 69.4444 104.585 69.8001C105.138 70.1559 105.571 70.6688 105.886 71.3387C106.203 72.0087 106.362 72.8149 106.362 73.7573C106.362 74.6998 106.205 75.5079 105.891 76.1816C105.577 76.8515 105.146 77.3682 104.597 77.7316C104.048 78.0911 103.421 78.2709 102.717 78.2709C102.188 78.2709 101.754 78.182 101.417 78.0041C101.084 77.8262 100.823 77.618 100.634 77.3795C100.445 77.1411 100.299 76.9291 100.197 76.7437H100.095V81.3708H98.3969ZM100.06 73.7403C100.06 74.3535 100.149 74.8909 100.327 75.3527C100.505 75.8145 100.763 76.1759 101.099 76.4371C101.436 76.6945 101.849 76.8232 102.337 76.8232C102.844 76.8232 103.268 76.6888 103.609 76.4201C103.949 76.1475 104.207 75.7785 104.381 75.313C104.559 74.8474 104.648 74.3232 104.648 73.7403C104.648 73.165 104.561 72.6483 104.387 72.1904C104.216 71.7324 103.959 71.3709 103.615 71.106C103.274 70.841 102.848 70.7085 102.337 70.7085C101.845 70.7085 101.429 70.8353 101.088 71.0889C100.751 71.3425 100.496 71.6964 100.322 72.1506C100.147 72.6048 100.06 73.1347 100.06 73.7403ZM111.847 78.2766C110.988 78.2766 110.248 78.093 109.627 77.7259C109.01 77.3549 108.533 76.8345 108.196 76.1646C107.863 75.4908 107.697 74.7017 107.697 73.7971C107.697 72.9038 107.863 72.1165 108.196 71.4353C108.533 70.754 109.003 70.2222 109.604 69.8399C110.21 69.4576 110.918 69.2665 111.728 69.2665C112.22 69.2665 112.697 69.3478 113.158 69.5106C113.62 69.6734 114.035 69.9288 114.402 70.2771C114.769 70.6253 115.059 71.0776 115.27 71.634C115.482 72.1866 115.588 72.8584 115.588 73.6495V74.2513H108.656V72.9795H113.925C113.925 72.5329 113.834 72.1374 113.652 71.7929C113.471 71.4447 113.215 71.1703 112.886 70.9697C112.56 70.7691 112.178 70.6688 111.739 70.6688C111.262 70.6688 110.846 70.7861 110.49 71.0208C110.138 71.2517 109.866 71.5545 109.673 71.9292C109.483 72.3001 109.389 72.7032 109.389 73.1385V74.132C109.389 74.7149 109.491 75.2108 109.695 75.6195C109.903 76.0283 110.193 76.3406 110.564 76.5563C110.935 76.7683 111.368 76.8743 111.864 76.8743C112.186 76.8743 112.479 76.8288 112.744 76.738C113.009 76.6434 113.238 76.5033 113.431 76.3179C113.624 76.1324 113.772 75.9034 113.874 75.6309L115.481 75.9204C115.352 76.3936 115.121 76.808 114.788 77.1638C114.459 77.5158 114.044 77.7902 113.545 77.987C113.049 78.1801 112.483 78.2766 111.847 78.2766ZM117.296 78.1006V69.38H118.937V70.7653H119.028C119.187 70.296 119.467 69.9269 119.868 69.6582C120.273 69.3857 120.731 69.2494 121.242 69.2494C121.348 69.2494 121.473 69.2532 121.617 69.2608C121.764 69.2684 121.88 69.2778 121.963 69.2892V70.9129C121.895 70.894 121.774 70.8732 121.6 70.8505C121.425 70.824 121.251 70.8107 121.077 70.8107C120.676 70.8107 120.318 70.8959 120.004 71.0662C119.694 71.2328 119.448 71.4655 119.266 71.7645C119.084 72.0598 118.994 72.3966 118.994 72.7751V78.1006H117.296ZM130.576 78.2709C129.872 78.2709 129.244 78.0911 128.691 77.7316C128.142 77.3682 127.711 76.8515 127.397 76.1816C127.086 75.5079 126.931 74.6998 126.931 73.7573C126.931 72.8149 127.088 72.0087 127.402 71.3387C127.72 70.6688 128.155 70.1559 128.708 69.8001C129.261 69.4444 129.887 69.2665 130.587 69.2665C131.128 69.2665 131.564 69.3573 131.893 69.539C132.226 69.7169 132.484 69.9251 132.665 70.1635C132.851 70.402 132.994 70.612 133.097 70.7937H133.199V66.4732H134.896V78.1006H133.239V76.7437H133.097C132.994 76.9291 132.847 77.1411 132.654 77.3795C132.465 77.618 132.203 77.8262 131.87 78.0041C131.537 78.182 131.106 78.2709 130.576 78.2709ZM130.951 76.8232C131.439 76.8232 131.851 76.6945 132.188 76.4371C132.529 76.1759 132.786 75.8145 132.96 75.3527C133.138 74.8909 133.227 74.3535 133.227 73.7403C133.227 73.1347 133.14 72.6048 132.966 72.1506C132.792 71.6964 132.536 71.3425 132.2 71.0889C131.863 70.8353 131.446 70.7085 130.951 70.7085C130.44 70.7085 130.014 70.841 129.673 71.106C129.333 71.3709 129.075 71.7324 128.901 72.1904C128.731 72.6483 128.646 73.165 128.646 73.7403C128.646 74.3232 128.733 74.8474 128.907 75.313C129.081 75.7785 129.338 76.1475 129.679 76.4201C130.023 76.6888 130.447 76.8232 130.951 76.8232ZM137.143 78.1006V69.38H138.841V78.1006H137.143ZM138.001 68.0345C137.705 68.0345 137.452 67.9361 137.24 67.7392C137.032 67.5386 136.928 67.3002 136.928 67.0239C136.928 66.7438 137.032 66.5053 137.24 66.3085C137.452 66.1079 137.705 66.0076 138.001 66.0076C138.296 66.0076 138.548 66.1079 138.756 66.3085C138.968 66.5053 139.074 66.7438 139.074 67.0239C139.074 67.3002 138.968 67.5386 138.756 67.7392C138.548 67.9361 138.296 68.0345 138.001 68.0345ZM147.484 71.5091L145.945 71.7816C145.881 71.5848 145.778 71.3974 145.638 71.2195C145.502 71.0416 145.317 70.8959 145.082 70.7823C144.847 70.6688 144.554 70.612 144.202 70.612C143.721 70.612 143.32 70.7199 142.998 70.9356C142.677 71.1476 142.516 71.422 142.516 71.7589C142.516 72.0503 142.624 72.285 142.839 72.4629C143.055 72.6408 143.403 72.7865 143.884 72.9L145.269 73.218C146.072 73.4034 146.67 73.6892 147.063 74.0753C147.457 74.4613 147.654 74.9628 147.654 75.5798C147.654 76.1021 147.503 76.5677 147.2 76.9765C146.901 77.3814 146.482 77.6994 145.945 77.9303C145.411 78.1611 144.792 78.2766 144.088 78.2766C143.112 78.2766 142.315 78.0684 141.698 77.6521C141.081 77.2319 140.703 76.6358 140.563 75.8637L142.204 75.6139C142.306 76.0416 142.516 76.3652 142.834 76.5847C143.152 76.8004 143.566 76.9083 144.077 76.9083C144.634 76.9083 145.078 76.7929 145.411 76.562C145.744 76.3273 145.911 76.0416 145.911 75.7047C145.911 75.4322 145.809 75.2032 145.604 75.0177C145.404 74.8323 145.095 74.6922 144.679 74.5976L143.203 74.274C142.389 74.0885 141.787 73.7933 141.397 73.3883C141.011 72.9833 140.818 72.4704 140.818 71.8497C140.818 71.335 140.962 70.8845 141.25 70.4985C141.537 70.1124 141.935 69.8115 142.442 69.5958C142.949 69.3762 143.53 69.2665 144.185 69.2665C145.127 69.2665 145.869 69.4709 146.411 69.8796C146.952 70.2846 147.31 70.8278 147.484 71.5091ZM149.345 81.3708V69.38H151.002V70.7937H151.144C151.243 70.612 151.385 70.402 151.57 70.1635C151.756 69.9251 152.013 69.7169 152.342 69.539C152.672 69.3573 153.107 69.2665 153.648 69.2665C154.352 69.2665 154.98 69.4444 155.533 69.8001C156.086 70.1559 156.519 70.6688 156.833 71.3387C157.151 72.0087 157.31 72.8149 157.31 73.7573C157.31 74.6998 157.153 75.5079 156.839 76.1816C156.525 76.8515 156.093 77.3682 155.544 77.7316C154.995 78.0911 154.369 78.2709 153.665 78.2709C153.135 78.2709 152.702 78.182 152.365 78.0041C152.032 77.8262 151.771 77.618 151.581 77.3795C151.392 77.1411 151.246 76.9291 151.144 76.7437H151.042V81.3708H149.345ZM151.008 73.7403C151.008 74.3535 151.097 74.8909 151.275 75.3527C151.453 75.8145 151.71 76.1759 152.047 76.4371C152.384 76.6945 152.796 76.8232 153.285 76.8232C153.792 76.8232 154.216 76.6888 154.556 76.4201C154.897 76.1475 155.154 75.7785 155.329 75.313C155.506 74.8474 155.595 74.3232 155.595 73.7403C155.595 73.165 155.508 72.6483 155.334 72.1904C155.164 71.7324 154.907 71.3709 154.562 71.106C154.221 70.841 153.796 70.7085 153.285 70.7085C152.793 70.7085 152.376 70.8353 152.036 71.0889C151.699 71.3425 151.443 71.6964 151.269 72.1506C151.095 72.6048 151.008 73.1347 151.008 73.7403ZM161.574 78.2936C161.021 78.2936 160.522 78.1914 160.075 77.987C159.628 77.7789 159.275 77.478 159.013 77.0843C158.756 76.6907 158.627 76.2081 158.627 75.6366C158.627 75.1445 158.722 74.7395 158.911 74.4216C159.1 74.1037 159.356 73.852 159.678 73.6665C159.999 73.481 160.359 73.341 160.756 73.2464C161.154 73.1517 161.559 73.0798 161.971 73.0306C162.494 72.9701 162.918 72.9209 163.243 72.883C163.569 72.8414 163.805 72.7751 163.953 72.6843C164.1 72.5935 164.174 72.4458 164.174 72.2415V72.2017C164.174 71.7059 164.034 71.3217 163.754 71.0492C163.478 70.7767 163.065 70.6404 162.516 70.6404C161.945 70.6404 161.494 70.7672 161.165 71.0208C160.84 71.2706 160.614 71.5488 160.49 71.8554L158.894 71.492C159.083 70.9621 159.36 70.5344 159.723 70.2089C160.09 69.8796 160.512 69.6412 160.989 69.4936C161.466 69.3422 161.968 69.2665 162.494 69.2665C162.842 69.2665 163.211 69.3081 163.601 69.3914C163.994 69.4709 164.362 69.6185 164.702 69.8342C165.047 70.05 165.329 70.3584 165.548 70.7596C165.768 71.1571 165.877 71.6737 165.877 72.3096V78.1006H164.22V76.9083H164.151C164.042 77.1278 163.877 77.3436 163.658 77.5556C163.438 77.7675 163.156 77.9435 162.812 78.0836C162.467 78.2236 162.055 78.2936 161.574 78.2936ZM161.943 76.931C162.412 76.931 162.813 76.8383 163.147 76.6528C163.483 76.4674 163.739 76.2251 163.913 75.9261C164.091 75.6233 164.18 75.2997 164.18 74.9553V73.8311C164.119 73.8917 164.002 73.9485 163.828 74.0015C163.658 74.0507 163.463 74.0942 163.243 74.132C163.024 74.1661 162.81 74.1983 162.602 74.2286C162.393 74.2551 162.219 74.2778 162.079 74.2967C161.75 74.3383 161.449 74.4083 161.176 74.5068C160.908 74.6052 160.692 74.7471 160.529 74.9326C160.37 75.1142 160.291 75.3565 160.291 75.6593C160.291 76.0794 160.446 76.3973 160.756 76.6131C161.067 76.8251 161.462 76.931 161.943 76.931ZM172.033 69.38V70.7426H167.27V69.38H172.033ZM168.547 67.2907H170.245V75.5401C170.245 75.8693 170.294 76.1173 170.393 76.2838C170.491 76.4466 170.618 76.5582 170.773 76.6188C170.932 76.6755 171.104 76.7039 171.29 76.7039C171.426 76.7039 171.545 76.6945 171.647 76.6755C171.749 76.6566 171.829 76.6415 171.886 76.6301L172.192 78.0325C172.094 78.0703 171.954 78.1082 171.772 78.146C171.59 78.1876 171.363 78.2104 171.091 78.2141C170.644 78.2217 170.228 78.1422 169.842 77.9757C169.456 77.8091 169.144 77.5518 168.905 77.2035C168.667 76.8553 168.547 76.4182 168.547 75.8921V67.2907ZM177.315 78.2766C176.471 78.2766 175.744 78.0854 175.135 77.7032C174.529 77.3171 174.064 76.7853 173.738 76.1078C173.413 75.4303 173.25 74.6544 173.25 73.78C173.25 72.8944 173.416 72.1128 173.749 71.4353C174.083 70.754 174.552 70.2222 175.157 69.8399C175.763 69.4576 176.477 69.2665 177.298 69.2665C177.96 69.2665 178.551 69.3895 179.069 69.6355C179.588 69.8777 180.006 70.2184 180.324 70.6574C180.646 71.0965 180.837 71.6094 180.897 72.196H179.245C179.154 71.7873 178.946 71.4353 178.621 71.14C178.299 70.8448 177.868 70.6972 177.326 70.6972C176.853 70.6972 176.439 70.8221 176.083 71.0719C175.731 71.3179 175.456 71.6699 175.26 72.1279C175.063 72.5821 174.964 73.1196 174.964 73.7403C174.964 74.3762 175.061 74.925 175.254 75.3868C175.447 75.8485 175.72 76.2062 176.072 76.4598C176.427 76.7134 176.846 76.8402 177.326 76.8402C177.648 76.8402 177.939 76.7815 178.201 76.6642C178.466 76.5431 178.687 76.3709 178.865 76.1475C179.047 75.9242 179.173 75.6555 179.245 75.3413H180.897C180.837 75.9053 180.653 76.4087 180.347 76.8515C180.04 77.2944 179.629 77.6426 179.115 77.8962C178.604 78.1498 178.004 78.2766 177.315 78.2766ZM184.234 72.9227V78.1006H182.537V66.4732H184.212V70.7994H184.32C184.524 70.33 184.836 69.9572 185.256 69.6809C185.677 69.4046 186.225 69.2665 186.903 69.2665C187.501 69.2665 188.023 69.3895 188.47 69.6355C188.92 69.8815 189.268 70.2487 189.514 70.7369C189.764 71.2214 189.889 71.827 189.889 72.5537V78.1006H188.192V72.7581C188.192 72.1184 188.027 71.6226 187.698 71.2706C187.368 70.9148 186.91 70.7369 186.324 70.7369C185.923 70.7369 185.563 70.8221 185.245 70.9924C184.931 71.1627 184.683 71.4125 184.501 71.7418C184.323 72.0673 184.234 72.461 184.234 72.9227Z" fill="white"/>
<path d="M113.428 407.006C113.428 396.607 121.858 388.176 132.258 388.176H206.356V425.836H132.258C121.858 425.836 113.428 417.406 113.428 407.006V407.006Z" fill="#F22F46"/>
<g filter="url(#filter3_d_1401_19963)">
<path d="M190.454 391.185L202.359 384.461C204.818 383.073 207.817 383.044 210.301 384.386L222.94 391.214C225.594 392.648 227.249 395.422 227.249 398.439V412.526C227.249 415.354 225.794 417.983 223.398 419.485L210.768 427.399C208.051 429.102 204.59 429.067 201.908 427.309L189.992 419.503C187.676 417.985 186.28 415.403 186.28 412.634V398.335C186.28 395.374 187.875 392.641 190.454 391.185Z" fill="#F22F46"/>
<path d="M206.955 403.949C206.955 405.082 206.023 406.015 204.89 406.015C203.758 406.015 202.825 405.082 202.825 403.949C202.825 402.817 203.758 401.884 204.89 401.884C206.023 401.884 206.955 402.817 206.955 403.949ZM204.89 406.814C203.758 406.814 202.825 407.747 202.825 408.879C202.825 410.011 203.758 410.944 204.89 410.944C206.023 410.944 206.955 410.011 206.955 408.879C206.955 407.747 206.023 406.814 204.89 406.814ZM217.347 406.414C217.347 411.943 212.884 416.407 207.355 416.407C201.826 416.407 197.363 411.943 197.363 406.414C197.363 400.885 201.826 396.422 207.355 396.422C212.884 396.422 217.347 400.885 217.347 406.414ZM214.683 406.414C214.683 402.351 211.419 399.086 207.355 399.086C203.292 399.086 200.027 402.351 200.027 406.414C200.027 410.478 203.292 413.742 207.355 413.742C211.419 413.742 214.683 410.478 214.683 406.414ZM209.82 406.814C208.687 406.814 207.755 407.747 207.755 408.879C207.755 410.011 208.687 410.944 209.82 410.944C210.952 410.944 211.885 410.011 211.885 408.879C211.885 407.747 210.952 406.814 209.82 406.814ZM209.82 401.884C208.687 401.884 207.755 402.817 207.755 403.949C207.755 405.082 208.687 406.015 209.82 406.015C210.952 406.015 211.885 405.082 211.885 403.949C211.885 402.817 210.952 401.884 209.82 401.884Z" fill="white"/>
</g>
<path d="M131.448 402.468V400.958H140.447V402.468H136.819V412.585H135.071V402.468H131.448ZM143.015 412.585L140.449 403.865H142.203L143.912 410.269H143.997L145.712 403.865H147.466L149.169 410.24H149.254L150.952 403.865H152.706L150.146 412.585H148.414L146.643 406.289H146.512L144.741 412.585H143.015ZM154.141 412.585V403.865H155.839V412.585H154.141ZM154.999 402.519C154.704 402.519 154.45 402.421 154.238 402.224C154.03 402.023 153.926 401.785 153.926 401.508C153.926 401.228 154.03 400.99 154.238 400.793C154.45 400.593 154.704 400.492 154.999 400.492C155.294 400.492 155.546 400.593 155.754 400.793C155.966 400.99 156.072 401.228 156.072 401.508C156.072 401.785 155.966 402.023 155.754 402.224C155.546 402.421 155.294 402.519 154.999 402.519ZM159.644 400.958V412.585H157.947V400.958H159.644ZM161.752 412.585V403.865H163.45V412.585H161.752ZM162.61 402.519C162.314 402.519 162.061 402.421 161.849 402.224C161.641 402.023 161.537 401.785 161.537 401.508C161.537 401.228 161.641 400.99 161.849 400.793C162.061 400.593 162.314 400.492 162.61 400.492C162.905 400.492 163.157 400.593 163.365 400.793C163.577 400.99 163.683 401.228 163.683 401.508C163.683 401.785 163.577 402.023 163.365 402.224C163.157 402.421 162.905 402.519 162.61 402.519ZM169.231 412.761C168.414 412.761 167.7 412.574 167.091 412.199C166.481 411.824 166.008 411.3 165.671 410.626C165.335 409.953 165.166 409.165 165.166 408.265C165.166 407.36 165.335 406.569 165.671 405.891C166.008 405.214 166.481 404.688 167.091 404.313C167.7 403.938 168.414 403.751 169.231 403.751C170.049 403.751 170.762 403.938 171.372 404.313C171.981 404.688 172.454 405.214 172.791 405.891C173.128 406.569 173.296 407.36 173.296 408.265C173.296 409.165 173.128 409.953 172.791 410.626C172.454 411.3 171.981 411.824 171.372 412.199C170.762 412.574 170.049 412.761 169.231 412.761ZM169.237 411.336C169.767 411.336 170.206 411.196 170.554 410.916C170.902 410.636 171.16 410.263 171.326 409.798C171.496 409.332 171.582 408.819 171.582 408.259C171.582 407.703 171.496 407.192 171.326 406.726C171.16 406.257 170.902 405.88 170.554 405.596C170.206 405.312 169.767 405.17 169.237 405.17C168.703 405.17 168.26 405.312 167.908 405.596C167.56 405.88 167.301 406.257 167.13 406.726C166.964 407.192 166.881 407.703 166.881 408.259C166.881 408.819 166.964 409.332 167.13 409.798C167.301 410.263 167.56 410.636 167.908 410.916C168.26 411.196 168.703 411.336 169.237 411.336Z" fill="white"/>
<path d="M367 437.776C367 427.377 375.431 418.946 385.83 418.946H500.897V456.607H385.83C375.431 456.607 367 448.176 367 437.776V437.776Z" fill="#0684BC"/>
<g filter="url(#filter4_d_1401_19963)">
<path d="M484.995 421.955L496.901 415.231C499.359 413.843 502.358 413.814 504.842 415.156L517.482 421.984C520.136 423.418 521.79 426.192 521.79 429.209V443.296C521.79 446.124 520.335 448.753 517.939 450.255L505.31 458.169C502.592 459.872 499.132 459.837 496.449 458.079L484.533 450.273C482.217 448.755 480.822 446.173 480.822 443.404V429.105C480.822 426.144 482.417 423.411 484.995 421.955Z" fill="#0684BC"/>
<path d="M508.953 428.934C509.974 428.753 511.044 428.899 511.993 429.311C512.706 429.63 513.363 430.129 513.776 430.804C513.94 431.05 513.89 431.414 513.651 431.593C513.412 431.789 513.018 431.741 512.841 431.486C512.38 430.696 511.497 430.265 510.631 430.096C509.698 429.909 508.634 430.02 507.888 430.661C507.69 430.831 507.377 430.827 507.177 430.664C506.982 430.516 506.903 430.236 506.991 430.007C507.046 429.844 507.186 429.735 507.316 429.634C507.796 429.272 508.366 429.044 508.953 428.934Z" fill="#FF7A00"/>
<path d="M509.206 431.041C510.175 430.888 511.249 431.165 511.939 431.893C512.071 432.043 512.214 432.203 512.261 432.404C512.307 432.631 512.166 432.874 511.948 432.948C511.745 433.026 511.492 432.94 511.383 432.749C511.123 432.328 510.645 432.104 510.177 432.011C509.656 431.905 509.06 431.965 508.646 432.327C508.447 432.496 508.115 432.441 507.969 432.227C507.82 432.03 507.859 431.726 508.049 431.571C508.372 431.285 508.785 431.117 509.206 431.041Z" fill="#FF7A00"/>
<path d="M509.356 432.851C509.74 432.754 510.168 432.817 510.495 433.047C510.748 433.222 510.936 433.507 510.954 433.821C510.977 434.132 510.831 434.439 510.597 434.638C510.08 435.089 509.214 435.058 508.744 434.553C508.494 434.297 508.4 433.896 508.526 433.557C508.657 433.196 508.993 432.943 509.356 432.851Z" fill="#FF7A00"/>
<path d="M487.891 445.843C488.863 440.204 489.833 434.567 490.807 428.929C493.458 428.929 496.108 428.929 498.759 428.929C500.001 428.94 501.256 428.988 502.469 429.283C503.372 429.508 504.307 429.888 504.889 430.655C505.461 431.426 505.531 432.45 505.395 433.373C505.25 434.572 504.77 435.744 503.955 436.64C503.384 437.261 502.614 437.67 501.804 437.878C502.391 438.117 503.03 438.328 503.462 438.822C503.903 439.316 504.041 440.003 504.03 440.65C504.048 442.026 503.597 443.351 503.518 444.717C503.487 444.989 503.614 445.338 503.935 445.331C503.913 445.502 503.89 445.672 503.867 445.843C502.007 445.842 500.148 445.843 498.288 445.843C498.193 445.251 498.271 444.649 498.324 444.058C498.405 443.203 498.653 442.367 498.64 441.503C498.635 441.135 498.543 440.745 498.283 440.472C498.086 440.259 497.808 440.153 497.534 440.085C497.102 439.982 496.655 439.955 496.212 439.949C495.609 439.949 495.005 439.949 494.401 439.95C494.065 441.914 493.736 443.88 493.396 445.844C491.561 445.841 489.726 445.843 487.891 445.843ZM495.617 432.878C495.424 433.996 495.243 435.115 495.056 436.233C495.823 436.233 496.591 436.233 497.358 436.233C497.886 436.223 498.422 436.173 498.926 436.003C499.226 435.902 499.519 435.745 499.723 435.496C500.036 435.117 500.14 434.6 500.1 434.119C500.077 433.79 499.92 433.467 499.65 433.273C499.25 432.984 498.745 432.892 498.261 432.881C497.38 432.878 496.498 432.883 495.617 432.878Z" fill="white"/>
<path d="M507.501 435.853C508.674 435.851 509.847 435.853 511.021 435.853C510.548 439.183 510.076 442.513 509.602 445.843C507.991 445.842 506.381 445.843 504.77 445.842C505.68 442.512 506.592 439.184 507.501 435.853Z" fill="white"/>
</g>
<path d="M385.677 442.893V431.265H389.822C390.723 431.265 391.47 431.42 392.064 431.731C392.662 432.041 393.109 432.471 393.404 433.019C393.699 433.565 393.847 434.195 393.847 434.91C393.847 435.622 393.698 436.248 393.399 436.789C393.103 437.327 392.657 437.745 392.059 438.044C391.464 438.343 390.717 438.493 389.816 438.493H386.676V436.982H389.657C390.225 436.982 390.687 436.901 391.042 436.738C391.402 436.575 391.665 436.339 391.832 436.029C391.998 435.718 392.081 435.345 392.081 434.91C392.081 434.471 391.996 434.091 391.826 433.769C391.659 433.447 391.396 433.201 391.037 433.031C390.681 432.857 390.214 432.77 389.634 432.77H387.432V442.893H385.677ZM391.417 437.647L394.29 442.893H392.291L389.475 437.647H391.417ZM395.67 442.893V434.172H397.367V442.893H395.67ZM396.527 432.826C396.232 432.826 395.978 432.728 395.766 432.531C395.558 432.331 395.454 432.092 395.454 431.816C395.454 431.536 395.558 431.297 395.766 431.101C395.978 430.9 396.232 430.8 396.527 430.8C396.822 430.8 397.074 430.9 397.282 431.101C397.494 431.297 397.6 431.536 397.6 431.816C397.6 432.092 397.494 432.331 397.282 432.531C397.074 432.728 396.822 432.826 396.527 432.826ZM401.173 437.715V442.893H399.475V434.172H401.105V435.591H401.212C401.413 435.13 401.727 434.759 402.155 434.479C402.586 434.199 403.13 434.058 403.784 434.058C404.379 434.058 404.899 434.183 405.346 434.433C405.792 434.679 406.139 435.046 406.385 435.535C406.631 436.023 406.754 436.627 406.754 437.346V442.893H405.056V437.55C405.056 436.918 404.891 436.424 404.562 436.068C404.233 435.709 403.781 435.529 403.205 435.529C402.812 435.529 402.461 435.614 402.155 435.784C401.852 435.955 401.612 436.205 401.434 436.534C401.26 436.859 401.173 437.253 401.173 437.715ZM412.511 446.344C411.818 446.344 411.222 446.254 410.722 446.072C410.226 445.89 409.821 445.65 409.507 445.351C409.193 445.052 408.959 444.725 408.803 444.369L410.262 443.767C410.365 443.933 410.501 444.109 410.671 444.295C410.845 444.484 411.08 444.645 411.375 444.777C411.674 444.91 412.058 444.976 412.528 444.976C413.171 444.976 413.703 444.819 414.123 444.505C414.543 444.195 414.753 443.699 414.753 443.017V441.303H414.645C414.543 441.488 414.396 441.695 414.203 441.922C414.013 442.149 413.752 442.346 413.419 442.512C413.086 442.679 412.653 442.762 412.119 442.762C411.43 442.762 410.809 442.601 410.257 442.279C409.708 441.954 409.273 441.475 408.951 440.843C408.633 440.207 408.474 439.426 408.474 438.498C408.474 437.571 408.631 436.776 408.945 436.114C409.263 435.451 409.698 434.944 410.251 434.592C410.804 434.236 411.43 434.058 412.13 434.058C412.672 434.058 413.109 434.149 413.442 434.331C413.775 434.509 414.034 434.717 414.22 434.955C414.409 435.194 414.555 435.404 414.657 435.586H414.782V434.172H416.445V443.086C416.445 443.835 416.271 444.45 415.923 444.931C415.575 445.411 415.103 445.767 414.509 445.998C413.919 446.229 413.253 446.344 412.511 446.344ZM412.494 441.354C412.982 441.354 413.394 441.24 413.731 441.013C414.072 440.782 414.329 440.453 414.503 440.025C414.681 439.594 414.77 439.077 414.77 438.476C414.77 437.889 414.683 437.372 414.509 436.926C414.335 436.479 414.08 436.131 413.743 435.881C413.406 435.627 412.99 435.501 412.494 435.501C411.983 435.501 411.557 435.633 411.216 435.898C410.876 436.159 410.618 436.515 410.444 436.965C410.274 437.416 410.189 437.919 410.189 438.476C410.189 439.047 410.276 439.549 410.45 439.98C410.624 440.412 410.881 440.748 411.222 440.991C411.566 441.233 411.99 441.354 412.494 441.354ZM426.275 443.069C425.43 443.069 424.704 442.877 424.094 442.495C423.489 442.109 423.023 441.577 422.698 440.9C422.372 440.222 422.209 439.446 422.209 438.572C422.209 437.686 422.376 436.905 422.709 436.227C423.042 435.546 423.512 435.014 424.117 434.632C424.723 434.25 425.436 434.058 426.258 434.058C426.92 434.058 427.51 434.181 428.029 434.427C428.547 434.67 428.966 435.01 429.284 435.449C429.605 435.888 429.796 436.401 429.857 436.988H428.205C428.114 436.579 427.906 436.227 427.58 435.932C427.259 435.637 426.827 435.489 426.286 435.489C425.813 435.489 425.398 435.614 425.043 435.864C424.691 436.11 424.416 436.462 424.219 436.92C424.022 437.374 423.924 437.912 423.924 438.532C423.924 439.168 424.021 439.717 424.214 440.179C424.407 440.641 424.679 440.998 425.031 441.252C425.387 441.505 425.805 441.632 426.286 441.632C426.608 441.632 426.899 441.574 427.16 441.456C427.425 441.335 427.647 441.163 427.824 440.94C428.006 440.716 428.133 440.447 428.205 440.133H429.857C429.796 440.697 429.613 441.201 429.306 441.644C429 442.086 428.589 442.435 428.074 442.688C427.563 442.942 426.963 443.069 426.275 443.069ZM435.255 443.069C434.396 443.069 433.656 442.885 433.035 442.518C432.418 442.147 431.941 441.627 431.604 440.957C431.271 440.283 431.105 439.494 431.105 438.589C431.105 437.696 431.271 436.909 431.604 436.227C431.941 435.546 432.411 435.014 433.012 434.632C433.618 434.25 434.326 434.058 435.136 434.058C435.628 434.058 436.105 434.14 436.566 434.303C437.028 434.465 437.443 434.721 437.81 435.069C438.177 435.417 438.467 435.87 438.678 436.426C438.89 436.979 438.996 437.65 438.996 438.441V439.043H432.064V437.772H437.333C437.333 437.325 437.242 436.929 437.06 436.585C436.879 436.237 436.623 435.962 436.294 435.762C435.968 435.561 435.586 435.461 435.147 435.461C434.67 435.461 434.254 435.578 433.898 435.813C433.546 436.044 433.274 436.346 433.081 436.721C432.891 437.092 432.797 437.495 432.797 437.93V438.924C432.797 439.507 432.899 440.003 433.103 440.412C433.311 440.82 433.601 441.133 433.972 441.348C434.343 441.56 434.776 441.666 435.272 441.666C435.594 441.666 435.887 441.621 436.152 441.53C436.417 441.435 436.646 441.295 436.839 441.11C437.032 440.924 437.18 440.695 437.282 440.423L438.889 440.712C438.76 441.186 438.529 441.6 438.196 441.956C437.867 442.308 437.452 442.582 436.953 442.779C436.457 442.972 435.891 443.069 435.255 443.069ZM442.402 437.715V442.893H440.704V434.172H442.333V435.591H442.441C442.642 435.13 442.956 434.759 443.384 434.479C443.815 434.199 444.358 434.058 445.013 434.058C445.607 434.058 446.128 434.183 446.575 434.433C447.021 434.679 447.368 435.046 447.614 435.535C447.86 436.023 447.983 436.627 447.983 437.346V442.893H446.285V437.55C446.285 436.918 446.12 436.424 445.791 436.068C445.462 435.709 445.009 435.529 444.434 435.529C444.041 435.529 443.69 435.614 443.384 435.784C443.081 435.955 442.841 436.205 442.663 436.534C442.489 436.859 442.402 437.253 442.402 437.715ZM454.154 434.172V435.535H449.391V434.172H454.154ZM450.668 432.083H452.366V440.332C452.366 440.661 452.415 440.909 452.513 441.076C452.612 441.239 452.739 441.35 452.894 441.411C453.053 441.468 453.225 441.496 453.41 441.496C453.547 441.496 453.666 441.486 453.768 441.468C453.87 441.449 453.95 441.433 454.006 441.422L454.313 442.824C454.215 442.862 454.075 442.9 453.893 442.938C453.711 442.98 453.484 443.002 453.212 443.006C452.765 443.014 452.349 442.934 451.963 442.768C451.577 442.601 451.264 442.344 451.026 441.996C450.787 441.647 450.668 441.21 450.668 440.684V432.083ZM455.856 442.893V434.172H457.497V435.557H457.588C457.747 435.088 458.027 434.719 458.428 434.45C458.833 434.178 459.291 434.041 459.802 434.041C459.908 434.041 460.033 434.045 460.177 434.053C460.324 434.06 460.44 434.07 460.523 434.081V435.705C460.455 435.686 460.334 435.665 460.16 435.642C459.985 435.616 459.811 435.603 459.637 435.603C459.236 435.603 458.878 435.688 458.564 435.858C458.254 436.025 458.008 436.258 457.826 436.557C457.644 436.852 457.554 437.189 457.554 437.567V442.893H455.856ZM464.276 443.086C463.723 443.086 463.224 442.983 462.777 442.779C462.33 442.571 461.976 442.27 461.715 441.876C461.458 441.483 461.329 441 461.329 440.429C461.329 439.937 461.424 439.532 461.613 439.214C461.802 438.896 462.058 438.644 462.38 438.458C462.701 438.273 463.061 438.133 463.458 438.038C463.856 437.944 464.261 437.872 464.673 437.823C465.196 437.762 465.62 437.713 465.945 437.675C466.271 437.633 466.507 437.567 466.655 437.476C466.802 437.385 466.876 437.238 466.876 437.033V436.994C466.876 436.498 466.736 436.114 466.456 435.841C466.18 435.569 465.767 435.432 465.218 435.432C464.647 435.432 464.196 435.559 463.867 435.813C463.542 436.063 463.316 436.341 463.191 436.647L461.596 436.284C461.785 435.754 462.062 435.326 462.425 435.001C462.792 434.672 463.214 434.433 463.691 434.286C464.168 434.134 464.669 434.058 465.196 434.058C465.544 434.058 465.913 434.1 466.303 434.183C466.696 434.263 467.063 434.41 467.404 434.626C467.749 434.842 468.031 435.15 468.25 435.552C468.47 435.949 468.579 436.466 468.579 437.102V442.893H466.922V441.7H466.853C466.744 441.92 466.579 442.136 466.359 442.348C466.14 442.56 465.858 442.736 465.514 442.876C465.169 443.016 464.757 443.086 464.276 443.086ZM464.645 441.723C465.114 441.723 465.515 441.63 465.849 441.445C466.185 441.259 466.441 441.017 466.615 440.718C466.793 440.415 466.882 440.092 466.882 439.747V438.623C466.821 438.684 466.704 438.74 466.53 438.793C466.359 438.843 466.165 438.886 465.945 438.924C465.725 438.958 465.512 438.99 465.303 439.021C465.095 439.047 464.921 439.07 464.781 439.089C464.452 439.13 464.151 439.2 463.878 439.299C463.61 439.397 463.394 439.539 463.231 439.725C463.072 439.906 462.993 440.148 462.993 440.451C462.993 440.871 463.148 441.189 463.458 441.405C463.769 441.617 464.164 441.723 464.645 441.723ZM472.362 431.265V442.893H470.665V431.265H472.362Z" fill="white"/>
<path d="M359 72.771C359 62.4854 367.338 54.1472 377.624 54.1472H495.449V91.3948H377.624C367.338 91.3948 359 83.0566 359 72.771V72.771Z" fill="#6134F4"/>
<g filter="url(#filter5_d_1401_19963)">
<path d="M479.993 56.9549L491.898 50.2309C494.357 48.8425 497.356 48.8143 499.84 50.1562L512.479 56.9844C515.134 58.4183 516.788 61.1924 516.788 64.2093V78.2962C516.788 81.124 515.333 83.7529 512.937 85.2546L500.307 93.1688C497.59 94.8718 494.129 94.8369 491.447 93.0793L479.531 85.2728C477.215 83.7554 475.819 81.1728 475.819 78.4039V64.1052C475.819 61.1436 477.414 58.4114 479.993 56.9549Z" fill="#6134F4"/>
<path d="M499.094 62.9172C503.06 62.9172 506.525 65.5237 507.529 69.2586C508.534 72.9935 506.825 76.9196 503.369 78.8129C499.913 80.7062 495.582 80.0912 492.826 77.3158C495.297 76.3425 496.913 74.0065 496.913 71.4103C496.913 68.8142 495.297 66.4781 492.826 65.5048C494.45 63.8665 496.68 62.9345 499.015 62.9172H499.093H499.094ZM485.173 67.5462C486.961 65.2636 490.095 64.4281 492.828 65.5065C489.557 68.7986 489.557 74.0254 492.828 77.3176C490.095 78.3943 486.961 77.5587 485.173 75.2778C483.384 72.9952 483.384 69.8306 485.173 67.5479V67.5462Z" fill="white"/>
</g>
<path d="M388.129 72.506C388.129 73.7551 387.9 74.829 387.443 75.7278C386.986 76.6227 386.36 77.312 385.564 77.7957C384.772 78.2755 383.871 78.5154 382.862 78.5154C381.849 78.5154 380.945 78.2755 380.149 77.7957C379.357 77.312 378.732 76.6208 378.275 75.7221C377.818 74.8233 377.589 73.7513 377.589 72.506C377.589 71.2569 377.818 70.1849 378.275 69.29C378.732 68.3912 379.357 67.7019 380.149 67.2221C380.945 66.7384 381.849 66.4966 382.862 66.4966C383.871 66.4966 384.772 66.7384 385.564 67.2221C386.36 67.7019 386.986 68.3912 387.443 69.29C387.9 70.1849 388.129 71.2569 388.129 72.506ZM386.381 72.506C386.381 71.554 386.227 70.7523 385.918 70.1011C385.613 69.4461 385.195 68.951 384.661 68.6159C384.132 68.277 383.532 68.1075 382.862 68.1075C382.188 68.1075 381.586 68.277 381.057 68.6159C380.528 68.951 380.109 69.4461 379.8 70.1011C379.496 70.7523 379.343 71.554 379.343 72.506C379.343 73.4581 379.496 74.2616 379.8 74.9166C380.109 75.5678 380.528 76.0629 381.057 76.4018C381.586 76.737 382.188 76.9045 382.862 76.9045C383.532 76.9045 384.132 76.737 384.661 76.4018C385.195 76.0629 385.613 75.5678 385.918 74.9166C386.227 74.2616 386.381 73.4581 386.381 72.506ZM390.015 81.6458V69.5813H391.683V71.0037H391.826C391.925 70.8209 392.068 70.6095 392.255 70.3696C392.441 70.1297 392.7 69.9202 393.032 69.7412C393.363 69.5584 393.801 69.467 394.345 69.467C395.054 69.467 395.686 69.646 396.242 70.004C396.798 70.362 397.234 70.878 397.55 71.5521C397.87 72.2261 398.03 73.0373 398.03 73.9855C398.03 74.9338 397.872 75.7468 397.556 76.4247C397.24 77.0988 396.806 77.6186 396.253 77.9842C395.701 78.3459 395.071 78.5268 394.363 78.5268C393.829 78.5268 393.393 78.4373 393.054 78.2584C392.719 78.0794 392.457 77.8699 392.266 77.63C392.076 77.3901 391.929 77.1768 391.826 76.9902H391.723V81.6458H390.015ZM391.689 73.9684C391.689 74.5853 391.779 75.1261 391.958 75.5907C392.137 76.0553 392.396 76.419 392.735 76.6817C393.073 76.9407 393.489 77.0702 393.98 77.0702C394.49 77.0702 394.917 76.935 395.259 76.6646C395.602 76.3904 395.861 76.0191 396.036 75.5507C396.215 75.0823 396.305 74.5548 396.305 73.9684C396.305 73.3895 396.217 72.8697 396.042 72.4089C395.871 71.9481 395.612 71.5844 395.265 71.3178C394.922 71.0513 394.494 70.918 393.98 70.918C393.485 70.918 393.066 71.0456 392.723 71.3007C392.384 71.5559 392.127 71.9119 391.952 72.3689C391.777 72.8259 391.689 73.3591 391.689 73.9684ZM403.548 78.5326C402.684 78.5326 401.939 78.3479 401.315 77.9785C400.694 77.6052 400.214 77.0816 399.875 76.4076C399.54 75.7297 399.372 74.9357 399.372 74.0255C399.372 73.1268 399.54 72.3346 399.875 71.6492C400.214 70.9637 400.686 70.4286 401.292 70.044C401.901 69.6594 402.613 69.467 403.428 69.467C403.923 69.467 404.403 69.5489 404.868 69.7127C405.332 69.8764 405.749 70.1335 406.119 70.4838C406.488 70.8342 406.779 71.2893 406.993 71.8491C407.206 72.4051 407.313 73.0811 407.313 73.877V74.4825H400.338V73.2029H405.639C405.639 72.7536 405.547 72.3556 405.365 72.009C405.182 71.6587 404.925 71.3826 404.594 71.1807C404.266 70.9789 403.881 70.878 403.44 70.878C402.96 70.878 402.541 70.996 402.183 71.2322C401.829 71.4645 401.555 71.7691 401.36 72.1461C401.17 72.5193 401.075 72.9249 401.075 73.3629V74.3625C401.075 74.949 401.178 75.4479 401.383 75.8592C401.593 76.2705 401.884 76.5846 402.257 76.8017C402.63 77.015 403.066 77.1216 403.565 77.1216C403.889 77.1216 404.184 77.0759 404.451 76.9845C404.717 76.8893 404.948 76.7484 405.142 76.5618C405.336 76.3752 405.485 76.1448 405.587 75.8706L407.204 76.1619C407.075 76.638 406.842 77.055 406.507 77.4129C406.176 77.7671 405.759 78.0432 405.256 78.2412C404.757 78.4354 404.188 78.5326 403.548 78.5326ZM410.739 73.1458V78.3555H409.031V69.5813H410.67V71.0094H410.779C410.981 70.5448 411.297 70.1716 411.727 69.8898C412.161 69.6079 412.708 69.467 413.366 69.467C413.964 69.467 414.488 69.5927 414.937 69.8441C415.387 70.0916 415.735 70.461 415.983 70.9523C416.23 71.4435 416.354 72.0509 416.354 72.7745V78.3555H414.646V72.9801C414.646 72.3442 414.48 71.8472 414.149 71.4892C413.818 71.1274 413.363 70.9465 412.784 70.9465C412.388 70.9465 412.035 71.0322 411.727 71.2036C411.422 71.375 411.18 71.6263 411.001 71.9576C410.826 72.2851 410.739 72.6812 410.739 73.1458ZM418.468 81.6458V69.5813H420.136V71.0037H420.278C420.378 70.8209 420.52 70.6095 420.707 70.3696C420.894 70.1297 421.152 69.9202 421.484 69.7412C421.815 69.5584 422.253 69.467 422.798 69.467C423.506 69.467 424.138 69.646 424.694 70.004C425.25 70.362 425.686 70.878 426.002 71.5521C426.322 72.2261 426.482 73.0373 426.482 73.9855C426.482 74.9338 426.324 75.7468 426.008 76.4247C425.692 77.0988 425.258 77.6186 424.706 77.9842C424.153 78.3459 423.523 78.5268 422.815 78.5268C422.282 78.5268 421.846 78.4373 421.507 78.2584C421.172 78.0794 420.909 77.8699 420.718 77.63C420.528 77.3901 420.381 77.1768 420.278 76.9902H420.176V81.6458H418.468ZM420.141 73.9684C420.141 74.5853 420.231 75.1261 420.41 75.5907C420.589 76.0553 420.848 76.419 421.187 76.6817C421.526 76.9407 421.941 77.0702 422.432 77.0702C422.942 77.0702 423.369 76.935 423.712 76.6646C424.054 76.3904 424.313 76.0191 424.488 75.5507C424.667 75.0823 424.757 74.5548 424.757 73.9684C424.757 73.3895 424.669 72.8697 424.494 72.4089C424.323 71.9481 424.064 71.5844 423.717 71.3178C423.375 71.0513 422.946 70.918 422.432 70.918C421.937 70.918 421.518 71.0456 421.175 71.3007C420.836 71.5559 420.579 71.9119 420.404 72.3689C420.229 72.8259 420.141 73.3591 420.141 73.9684ZM429.927 73.1458V78.3555H428.219V66.6566H429.904V71.0094H430.012C430.218 70.5372 430.532 70.162 430.955 69.884C431.378 69.606 431.93 69.467 432.612 69.467C433.213 69.467 433.739 69.5908 434.188 69.8383C434.641 70.0859 434.992 70.4553 435.239 70.9465C435.491 71.434 435.616 72.0433 435.616 72.7745V78.3555H433.908V72.9801C433.908 72.3365 433.743 71.8377 433.411 71.4835C433.08 71.1255 432.619 70.9465 432.029 70.9465C431.625 70.9465 431.263 71.0322 430.944 71.2036C430.628 71.375 430.378 71.6263 430.195 71.9576C430.016 72.2851 429.927 72.6812 429.927 73.1458ZM441.414 78.5326C440.592 78.5326 439.874 78.344 439.261 77.967C438.648 77.59 438.172 77.0626 437.833 76.3847C437.494 75.7068 437.324 74.9147 437.324 74.0084C437.324 73.0982 437.494 72.3023 437.833 71.6206C438.172 70.9389 438.648 70.4096 439.261 70.0326C439.874 69.6555 440.592 69.467 441.414 69.467C442.237 69.467 442.955 69.6555 443.568 70.0326C444.181 70.4096 444.657 70.9389 444.996 71.6206C445.335 72.3023 445.505 73.0982 445.505 74.0084C445.505 74.9147 445.335 75.7068 444.996 76.3847C444.657 77.0626 444.181 77.59 443.568 77.967C442.955 78.344 442.237 78.5326 441.414 78.5326ZM441.42 77.0988C441.953 77.0988 442.395 76.9578 442.745 76.676C443.096 76.3942 443.355 76.0191 443.522 75.5507C443.694 75.0823 443.779 74.5663 443.779 74.0027C443.779 73.4428 443.694 72.9287 443.522 72.4603C443.355 71.9881 443.096 71.6092 442.745 71.3236C442.395 71.0379 441.953 70.8951 441.42 70.8951C440.883 70.8951 440.438 71.0379 440.084 71.3236C439.733 71.6092 439.472 71.9881 439.301 72.4603C439.133 72.9287 439.05 73.4428 439.05 74.0027C439.05 74.5663 439.133 75.0823 439.301 75.5507C439.472 76.0191 439.733 76.3942 440.084 76.676C440.438 76.9578 440.883 77.0988 441.42 77.0988ZM448.942 73.1458V78.3555H447.234V69.5813H448.874V71.0094H448.982C449.184 70.5448 449.5 70.1716 449.93 69.8898C450.364 69.6079 450.911 69.467 451.57 69.467C452.168 69.467 452.691 69.5927 453.141 69.8441C453.59 70.0916 453.938 70.461 454.186 70.9523C454.434 71.4435 454.557 72.0509 454.557 72.7745V78.3555H452.849V72.9801C452.849 72.3442 452.684 71.8472 452.352 71.4892C452.021 71.1274 451.566 70.9465 450.987 70.9465C450.591 70.9465 450.239 71.0322 449.93 71.2036C449.626 71.375 449.384 71.6263 449.205 71.9576C449.03 72.2851 448.942 72.6812 448.942 73.1458ZM460.453 78.5326C459.588 78.5326 458.844 78.3479 458.219 77.9785C457.598 77.6052 457.119 77.0816 456.78 76.4076C456.444 75.7297 456.277 74.9357 456.277 74.0255C456.277 73.1268 456.444 72.3346 456.78 71.6492C457.119 70.9637 457.591 70.4286 458.196 70.044C458.806 69.6594 459.518 69.467 460.333 69.467C460.828 69.467 461.308 69.5489 461.772 69.7127C462.237 69.8764 462.654 70.1335 463.023 70.4838C463.393 70.8342 463.684 71.2893 463.897 71.8491C464.11 72.4051 464.217 73.0811 464.217 73.877V74.4825H457.242V73.2029H462.543C462.543 72.7536 462.452 72.3556 462.269 72.009C462.086 71.6587 461.829 71.3826 461.498 71.1807C461.17 70.9789 460.786 70.878 460.344 70.878C459.864 70.878 459.445 70.996 459.087 71.2322C458.733 71.4645 458.459 71.7691 458.265 72.1461C458.074 72.5193 457.979 72.9249 457.979 73.3629V74.3625C457.979 74.949 458.082 75.4479 458.288 75.8592C458.497 76.2705 458.788 76.5846 459.162 76.8017C459.535 77.015 459.971 77.1216 460.47 77.1216C460.793 77.1216 461.089 77.0759 461.355 76.9845C461.622 76.8893 461.852 76.7484 462.046 76.5618C462.241 76.3752 462.389 76.1448 462.492 75.8706L464.109 76.1619C463.979 76.638 463.747 77.055 463.412 77.4129C463.08 77.7671 462.663 78.0432 462.161 78.2412C461.662 78.4354 461.092 78.5326 460.453 78.5326Z" fill="white"/>
</g>
<defs>
<filter id="filter0_d_1401_19963" x="130.904" y="213.045" width="68.7588" height="73.0432" filterUnits="userSpaceOnUse" color-interpolation-filters="sRGB">
<feFlood flood-opacity="0" result="BackgroundImageFix"/>
<feColorMatrix in="SourceAlpha" type="matrix" values="0 0 0 0 0 0 0 0 0 0 0 0 0 0 0 0 0 0 127 0" result="hardAlpha"/>
<feOffset dy="1.25182"/>
<feGaussianBlur stdDeviation="6.94762"/>
<feComposite in2="hardAlpha" operator="out"/>
<feColorMatrix type="matrix" values="0 0 0 0 0 0 0 0 0 0 0 0 0 0 0 0 0 0 0.25 0"/>
<feBlend mode="normal" in2="BackgroundImageFix" result="effect1_dropShadow_1401_19963"/>
<feBlend mode="normal" in="SourceGraphic" in2="effect1_dropShadow_1401_19963" result="shape"/>
</filter>
<filter id="filter1_d_1401_19963" x="494.94" y="208.526" width="68.7588" height="73.0432" filterUnits="userSpaceOnUse" color-interpolation-filters="sRGB">
<feFlood flood-opacity="0" result="BackgroundImageFix"/>
<feColorMatrix in="SourceAlpha" type="matrix" values="0 0 0 0 0 0 0 0 0 0 0 0 0 0 0 0 0 0 127 0" result="hardAlpha"/>
<feOffset dy="1.25182"/>
<feGaussianBlur stdDeviation="6.94762"/>
<feComposite in2="hardAlpha" operator="out"/>
<feColorMatrix type="matrix" values="0 0 0 0 0 0 0 0 0 0 0 0 0 0 0 0 0 0 0.25 0"/>
<feBlend mode="normal" in2="BackgroundImageFix" result="effect1_dropShadow_1401_19963"/>
<feBlend mode="normal" in="SourceGraphic" in2="effect1_dropShadow_1401_19963" result="shape"/>
</filter>
<filter id="filter2_d_1401_19963" x="187.375" y="36.2711" width="68.7588" height="73.0432" filterUnits="userSpaceOnUse" color-interpolation-filters="sRGB">
<feFlood flood-opacity="0" result="BackgroundImageFix"/>
<feColorMatrix in="SourceAlpha" type="matrix" values="0 0 0 0 0 0 0 0 0 0 0 0 0 0 0 0 0 0 127 0" result="hardAlpha"/>
<feOffset dy="1.25182"/>
<feGaussianBlur stdDeviation="6.94762"/>
<feComposite in2="hardAlpha" operator="out"/>
<feColorMatrix type="matrix" values="0 0 0 0 0 0 0 0 0 0 0 0 0 0 0 0 0 0 0.25 0"/>
<feBlend mode="normal" in2="BackgroundImageFix" result="effect1_dropShadow_1401_19963"/>
<feBlend mode="normal" in="SourceGraphic" in2="effect1_dropShadow_1401_19963" result="shape"/>
</filter>
<filter id="filter3_d_1401_19963" x="172.385" y="370.756" width="68.7588" height="73.0434" filterUnits="userSpaceOnUse" color-interpolation-filters="sRGB">
<feFlood flood-opacity="0" result="BackgroundImageFix"/>
<feColorMatrix in="SourceAlpha" type="matrix" values="0 0 0 0 0 0 0 0 0 0 0 0 0 0 0 0 0 0 127 0" result="hardAlpha"/>
<feOffset dy="1.25182"/>
<feGaussianBlur stdDeviation="6.94762"/>
<feComposite in2="hardAlpha" operator="out"/>
<feColorMatrix type="matrix" values="0 0 0 0 0 0 0 0 0 0 0 0 0 0 0 0 0 0 0.25 0"/>
<feBlend mode="normal" in2="BackgroundImageFix" result="effect1_dropShadow_1401_19963"/>
<feBlend mode="normal" in="SourceGraphic" in2="effect1_dropShadow_1401_19963" result="shape"/>
</filter>
<filter id="filter4_d_1401_19963" x="466.927" y="401.526" width="68.7588" height="73.0434" filterUnits="userSpaceOnUse" color-interpolation-filters="sRGB">
<feFlood flood-opacity="0" result="BackgroundImageFix"/>
<feColorMatrix in="SourceAlpha" type="matrix" values="0 0 0 0 0 0 0 0 0 0 0 0 0 0 0 0 0 0 127 0" result="hardAlpha"/>
<feOffset dy="1.25182"/>
<feGaussianBlur stdDeviation="6.94762"/>
<feComposite in2="hardAlpha" operator="out"/>
<feColorMatrix type="matrix" values="0 0 0 0 0 0 0 0 0 0 0 0 0 0 0 0 0 0 0.25 0"/>
<feBlend mode="normal" in2="BackgroundImageFix" result="effect1_dropShadow_1401_19963"/>
<feBlend mode="normal" in="SourceGraphic" in2="effect1_dropShadow_1401_19963" result="shape"/>
</filter>
<filter id="filter5_d_1401_19963" x="461.924" y="36.526" width="68.7588" height="73.0432" filterUnits="userSpaceOnUse" color-interpolation-filters="sRGB">
<feFlood flood-opacity="0" result="BackgroundImageFix"/>
<feColorMatrix in="SourceAlpha" type="matrix" values="0 0 0 0 0 0 0 0 0 0 0 0 0 0 0 0 0 0 127 0" result="hardAlpha"/>
<feOffset dy="1.25182"/>
<feGaussianBlur stdDeviation="6.94762"/>
<feComposite in2="hardAlpha" operator="out"/>
<feColorMatrix type="matrix" values="0 0 0 0 0 0 0 0 0 0 0 0 0 0 0 0 0 0 0.25 0"/>
<feBlend mode="normal" in2="BackgroundImageFix" result="effect1_dropShadow_1401_19963"/>
<feBlend mode="normal" in="SourceGraphic" in2="effect1_dropShadow_1401_19963" result="shape"/>
</filter>
<linearGradient id="paint0_linear_1401_19963" x1="402.3" y1="260.973" x2="203.904" y2="260.973" gradientUnits="userSpaceOnUse">
<stop stop-opacity="0"/>
<stop offset="1"/>
</linearGradient>
<linearGradient id="paint1_linear_1401_19963" x1="303.102" y1="161.774" x2="303.102" y2="360.171" gradientUnits="userSpaceOnUse">
<stop stop-color="white" stop-opacity="0"/>
<stop offset="1" stop-color="white"/>
</linearGradient>
<clipPath id="clip0_1401_19963">
<rect width="550" height="520" fill="white"/>
</clipPath>
</defs>
</svg>
