<svg width="42" height="49" viewBox="0 0 42 49" fill="none" xmlns="http://www.w3.org/2000/svg">
<path d="M4.70302 9.00989L16.6815 2.24464C19.1549 0.847708 22.1725 0.81932 24.6717 2.16947L37.3887 9.0395C40.0593 10.4823 41.7238 13.2733 41.7238 16.3088V30.4821C41.7238 33.3273 40.2599 35.9724 37.8489 37.4832L25.1423 45.446C22.408 47.1595 18.9263 47.1243 16.2271 45.356L4.23834 37.5016C1.90795 35.9748 0.503906 33.3764 0.503906 30.5904V16.204C0.503906 13.2242 2.10842 10.4753 4.70302 9.00989Z" fill="#FF821C"/>
<path d="M12.2173 23.5354C12.2173 25.296 12.7011 26.9246 13.5426 28.2891L16.0249 23.4474L13.5636 18.7378C12.7221 20.1243 12.2173 21.7749 12.2173 23.5354Z" fill="white"/>
<path d="M20.6959 14.666C18.971 14.666 17.3722 15.1942 16.0469 16.1186L19.8965 23.4255L16.0469 30.9306C17.3722 31.8549 18.971 32.3831 20.6959 32.3831C25.366 32.3831 29.1736 28.4215 29.1736 23.5136C29.1736 18.6056 25.366 14.666 20.6959 14.666ZM21.8109 30.9306H17.9612L21.8109 23.4475L17.9612 16.1186H21.8109L25.6605 23.4255L21.8109 30.9306Z" fill="white"/>
<path d="M21.7888 10.9685V12.3991C27.1741 12.9713 31.3814 17.7472 31.3814 23.5135C31.3814 29.2799 27.1741 34.0558 21.7888 34.628V36.0586C27.9314 35.4643 32.7488 30.0722 32.7488 23.4915C32.7488 16.9109 27.9314 11.5407 21.7888 10.9685Z" fill="white"/>
<path d="M19.5798 34.65C14.1945 34.0778 9.98724 29.3239 9.98724 23.5356C9.98724 17.7472 14.1945 12.9713 19.5798 12.3991V10.9685C13.4372 11.5407 8.61987 16.9549 8.61987 23.5356C8.61987 30.1162 13.4372 35.5084 19.5798 36.1026V34.65Z" fill="white"/>
</svg>
