<svg width="42" height="48" viewBox="0 0 42 48" fill="none" xmlns="http://www.w3.org/2000/svg">
<path d="M4.68062 8.96182L16.5952 2.23266C19.0554 0.843185 22.0569 0.814952 24.5428 2.1579L37.1919 8.99127C39.8483 10.4264 41.5039 13.2025 41.5039 16.2218V30.3194C41.5039 33.1495 40.0478 35.7804 37.6497 37.2832L25.0108 45.2035C22.2911 46.9079 18.828 46.8729 16.1432 45.114L4.21842 37.3015C1.90045 35.7829 0.503906 33.1984 0.503906 30.4272V16.1176C0.503906 13.1537 2.09987 10.4194 4.68062 8.96182Z" fill="#4D6BFE"/>
<path d="M33.2416 15.5108C32.9768 15.3838 32.8628 15.6257 32.7079 15.7486C32.6549 15.7883 32.6102 15.8398 32.5653 15.8874C32.1783 16.2918 31.7261 16.5575 31.1353 16.5257C30.2716 16.4781 29.5342 16.7439 28.8823 17.3902C28.7438 16.5932 28.2834 16.1173 27.5827 15.812C27.216 15.6534 26.8453 15.4948 26.5886 15.1498C26.4093 14.904 26.3604 14.6304 26.2708 14.3608C26.2137 14.1982 26.1567 14.0316 25.9652 14.0038C25.7574 13.9722 25.6759 14.1426 25.5944 14.2854C25.2685 14.8683 25.1422 15.5107 25.1544 16.161C25.1829 17.6242 25.8145 18.7899 27.0692 19.6187C27.2119 19.7139 27.2485 19.809 27.2037 19.9478C27.1181 20.2333 27.0163 20.5109 26.9267 20.7964C26.8696 20.9788 26.784 21.0184 26.5844 20.9391C25.8959 20.6576 25.301 20.2412 24.7755 19.7377C23.8833 18.8931 23.0766 17.9612 22.0703 17.2316C21.834 17.0611 21.5977 16.9025 21.3532 16.7518C20.3265 15.7764 21.4877 14.9754 21.7566 14.8803C22.0377 14.7811 21.8544 14.4401 20.9458 14.4441C20.0373 14.448 19.2062 14.7454 18.1469 15.142C17.9921 15.2014 17.8291 15.245 17.6621 15.2807C16.7006 15.1023 15.7024 15.0626 14.6594 15.1776C12.6957 15.3917 11.1272 16.2998 9.97422 17.8502C8.58905 19.7139 8.26313 21.8312 8.6624 24.0399C9.08204 26.3674 10.2961 28.2945 12.1621 29.8014C14.0973 31.3636 16.3259 32.1289 18.8681 31.9822C20.4122 31.895 22.1315 31.6928 24.0708 30.0869C24.5596 30.3248 25.073 30.4199 25.9245 30.4913C26.5804 30.5508 27.2119 30.4596 27.7008 30.3605C28.4667 30.2019 28.4138 29.508 28.1368 29.3811C25.8919 28.3581 26.3848 28.7744 25.9367 28.4373C27.0775 27.117 28.7968 25.7449 29.469 21.2999C29.5219 20.947 29.4772 20.7249 29.469 20.4394C29.4649 20.265 29.5057 20.1976 29.7094 20.1777C30.2716 20.1143 30.8175 19.9637 31.3187 19.694C32.7731 18.9169 33.3598 17.64 33.4983 16.1095C33.5187 15.8755 33.4942 15.6336 33.2416 15.5108ZM20.567 29.2859C18.3914 27.6126 17.3363 27.0614 16.9003 27.0852C16.4929 27.109 16.5662 27.565 16.6558 27.8624C16.7495 28.1558 16.8718 28.3581 17.0429 28.6158C17.161 28.7863 17.2425 29.04 16.9248 29.2304C16.224 29.6547 15.0058 29.0876 14.9487 29.0599C13.531 28.243 12.3454 27.1644 11.5102 25.6895C10.7035 24.2698 10.235 22.7473 10.1576 21.1215C10.1372 20.729 10.2553 20.5901 10.6546 20.5188C11.1802 20.4236 11.7221 20.4038 12.2476 20.4791C14.4681 20.7964 16.3584 21.7678 17.9432 23.3063C18.8477 24.1826 19.5321 25.2295 20.237 26.2525C20.9866 27.3389 21.7933 28.3739 22.82 29.2225C23.1825 29.5198 23.4718 29.7458 23.7488 29.9124C22.9137 30.0036 21.5203 30.0235 20.567 29.2859ZM21.61 22.7235C21.61 22.549 21.7526 22.4102 21.9319 22.4102C21.9726 22.4102 22.0093 22.4181 22.0419 22.4299C22.0867 22.4459 22.1275 22.4697 22.16 22.5053C22.2171 22.5609 22.2497 22.6401 22.2497 22.7234C22.2497 22.8979 22.1071 23.0366 21.9279 23.0366C21.7487 23.0366 21.61 22.8979 21.61 22.7235ZM24.8489 24.3492C24.6412 24.4325 24.4334 24.5038 24.2337 24.5118C23.9241 24.5276 23.5859 24.4047 23.4026 24.254C23.1175 24.02 22.9137 23.8892 22.8282 23.4808C22.7915 23.3063 22.8119 23.0367 22.8445 22.8821C22.9178 22.549 22.8363 22.3349 22.596 22.1405C22.4004 21.9819 22.1519 21.9383 21.8789 21.9383C21.777 21.9383 21.6834 21.8947 21.6141 21.859C21.5 21.8035 21.4064 21.6647 21.496 21.4942C21.5245 21.4388 21.663 21.3039 21.6956 21.2801C22.0664 21.0739 22.4942 21.1413 22.8894 21.296C23.2561 21.4427 23.5331 21.7123 23.9323 22.093C24.3397 22.5529 24.413 22.6799 24.6453 23.0248C24.8287 23.2944 24.9957 23.572 25.1098 23.8892C25.179 24.0875 25.0893 24.2501 24.8489 24.3492Z" fill="white"/>
</svg>
