<svg width="42" height="48" viewBox="0 0 42 48" fill="none" xmlns="http://www.w3.org/2000/svg">
<path d="M4.68062 8.96182L16.5952 2.23266C19.0554 0.843185 22.0569 0.814952 24.5428 2.1579L37.1919 8.99127C39.8483 10.4264 41.5039 13.2025 41.5039 16.2218V30.3194C41.5039 33.1495 40.0478 35.7804 37.6497 37.2832L25.0108 45.2035C22.2911 46.9079 18.828 46.8729 16.1432 45.114L4.21842 37.3015C1.90045 35.7829 0.503906 33.1984 0.503906 30.4272V16.1176C0.503906 13.1537 2.09987 10.4194 4.68062 8.96182Z" fill="#F6F8FC"/>
<g clip-path="url(#clip0_1472_6183)">
<path d="M10.2085 33.0001H14.1857V23.2122L8.50391 18.894V31.2728C8.50391 32.2286 9.26811 33.0001 10.2085 33.0001Z" fill="#4285F4"/>
<path d="M27.822 33.0001H31.7993C32.7425 33.0001 33.5038 32.2257 33.5038 31.2728V18.894L27.822 23.2122" fill="#34A853"/>
<path d="M27.822 15.7273V23.2121L33.5038 18.894V16.5909C33.5038 14.4549 31.0976 13.2371 29.4129 14.5182" fill="#FBBC04"/>
<path d="M14.1858 23.2121V15.7273L21.004 20.9091L27.8222 15.7273V23.2121L21.004 28.394" fill="#EA4335"/>
<path d="M8.50391 16.5909V18.894L14.1857 23.2121V15.7273L12.5948 14.5182C10.9073 13.2371 8.50391 14.4549 8.50391 16.5909Z" fill="#C5221F"/>
</g>
<defs>
<clipPath id="clip0_1472_6183">
<rect width="25" height="19" fill="white" transform="translate(8.50391 14)"/>
</clipPath>
</defs>
</svg>
