<svg width="39" height="45" viewBox="0 0 39 45" fill="none" xmlns="http://www.w3.org/2000/svg">
<path d="M4.375 8.30608L15.4178 2.0693C17.698 0.781489 20.4798 0.755319 22.7838 2L34.5074 8.33338C36.9694 9.66345 38.5039 12.2365 38.5039 15.0348V28.101C38.5039 30.7239 37.1543 33.1624 34.9317 34.5552L23.2176 41.896C20.6969 43.4756 17.4872 43.4432 14.9989 41.813L3.94662 34.5721C1.79827 33.1646 0.503906 30.7692 0.503906 28.2008V14.9382C0.503906 12.1912 1.98309 9.65699 4.375 8.30608Z" fill="#F6F8FC"/>
<path d="M28.497 21.7805C28.497 22.6173 27.8187 23.2956 26.9819 23.2956H21.7522L19.5039 18.7497L21.9306 14.5466C22.349 13.822 23.2756 13.5737 24.0003 13.992L24.0006 13.9922C24.7253 14.4106 24.9736 15.3372 24.5552 16.0619L22.1285 20.2653H26.9819C27.8187 20.2653 28.497 20.9437 28.497 21.7805Z" fill="#1A73E8"/>
<path d="M24.0005 29.5689L24.0002 29.5691C23.2755 29.9874 22.3489 29.7391 21.9305 29.0145L19.5038 24.8114L17.0771 29.0145C16.6587 29.7391 15.7321 29.9874 15.0075 29.5691L15.0072 29.5689C14.2824 29.1505 14.0341 28.2239 14.4525 27.4992L16.8792 23.2957L19.5038 23.198L22.1284 23.2957L24.5551 27.4992C24.9735 28.2239 24.7252 29.1505 24.0005 29.5689Z" fill="#EA4335"/>
<path d="M19.5038 18.7497L18.8196 20.6075L16.8792 20.2653L14.4525 16.0619C14.0341 15.3372 14.2824 14.4106 15.0072 13.9922L15.0075 13.992C15.7321 13.5737 16.6587 13.822 17.0771 14.5466L19.5038 18.7497Z" fill="#FBBC04"/>
<path d="M19.1129 20.2654L17.3533 23.2957H12.0259C11.1891 23.2957 10.5107 22.6173 10.5107 21.7805C10.5107 20.9437 11.1891 20.2654 12.0259 20.2654H19.1129Z" fill="#34A853"/>
<path d="M22.1287 23.2957H16.8794L19.504 18.7498L22.1287 23.2957Z" fill="#185DB7"/>
</svg>
