<svg width="42" height="49" viewBox="0 0 42 49" fill="none" xmlns="http://www.w3.org/2000/svg">
<path d="M4.70302 9.00989L16.6815 2.24464C19.1549 0.847708 22.1725 0.81932 24.6717 2.16947L37.3887 9.0395C40.0593 10.4823 41.7238 13.2733 41.7238 16.3088V30.4821C41.7238 33.3273 40.2599 35.9724 37.8489 37.4832L25.1423 45.446C22.408 47.1595 18.9263 47.1243 16.2271 45.356L4.23834 37.5016C1.90795 35.9748 0.503906 33.3764 0.503906 30.5904V16.204C0.503906 13.2242 2.10842 10.4753 4.70302 9.00989Z" fill="#0684BC"/>
<path d="M28.8082 16.032C29.8347 15.8491 30.912 15.9961 31.8668 16.411C32.5842 16.7324 33.2445 17.2337 33.6599 17.9133C33.8255 18.1609 33.7748 18.5273 33.5345 18.7071C33.2942 18.9042 32.8978 18.8562 32.7192 18.599C32.2561 17.8042 31.3675 17.3706 30.4965 17.2003C29.5578 17.0123 28.4871 17.124 27.736 17.7688C27.5373 17.9401 27.2222 17.936 27.021 17.7718C26.8249 17.6232 26.7451 17.3418 26.8334 17.1114C26.8886 16.9471 27.0301 16.8375 27.161 16.7359C27.6432 16.3716 28.2177 16.1422 28.8082 16.032Z" fill="#FF7A00"/>
<path d="M29.0618 18.1524C30.0377 17.9982 31.1179 18.2772 31.8118 19.0089C31.9448 19.1605 32.0893 19.3211 32.1359 19.5233C32.1821 19.7517 32.0406 19.9967 31.8213 20.071C31.6166 20.1488 31.3627 20.0629 31.2524 19.8709C30.9915 19.4475 30.5098 19.2216 30.0392 19.1276C29.5154 19.021 28.9158 19.0816 28.4989 19.446C28.2982 19.6157 27.9645 19.5612 27.8175 19.3454C27.668 19.1473 27.7066 18.8416 27.8983 18.685C28.2234 18.3979 28.6389 18.2287 29.0618 18.1524Z" fill="#FF7A00"/>
<path d="M29.213 19.9732C29.5993 19.8752 30.0303 19.9383 30.3589 20.1703C30.6143 20.3456 30.8029 20.6332 30.821 20.9485C30.8441 21.2613 30.6971 21.571 30.4618 21.7711C29.942 22.2249 29.0705 22.193 28.5973 21.6852C28.3455 21.4275 28.2511 21.0243 28.3786 20.6837C28.5095 20.3204 28.8482 20.0652 29.213 19.9732Z" fill="#FF7A00"/>
<path d="M7.61719 33.0448C8.59456 27.3718 9.57143 21.6993 10.5508 16.0269C13.218 16.0274 15.8847 16.0269 18.5519 16.0274C19.8017 16.0385 21.0641 16.087 22.2843 16.3831C23.1934 16.6095 24.1336 16.9916 24.7192 17.7637C25.2951 18.5394 25.3654 19.5698 25.2284 20.4981C25.0829 21.7049 24.5992 22.8838 23.7794 23.7854C23.2054 24.4105 22.4303 24.8218 21.616 25.031C22.2065 25.2716 22.8492 25.4838 23.2832 25.9811C23.7272 26.4778 23.8662 27.1691 23.8552 27.82C23.8727 29.2047 23.4192 30.5373 23.3399 31.9123C23.3083 32.1857 23.4362 32.5369 23.7598 32.5298C23.7373 32.7016 23.7147 32.8729 23.6911 33.0448C21.8202 33.0443 19.9492 33.0448 18.0783 33.0448C17.9819 32.4495 18.0612 31.8441 18.1139 31.2488C18.1957 30.3887 18.4455 29.5473 18.432 28.6786C18.427 28.3082 18.3341 27.916 18.0732 27.6406C17.8751 27.4269 17.5946 27.3202 17.3191 27.252C16.8841 27.1484 16.4351 27.1211 15.9896 27.1151C15.3825 27.1151 14.7749 27.1151 14.1673 27.1156C13.8291 29.092 13.4975 31.0699 13.1558 33.0458C11.3094 33.0427 9.46305 33.0453 7.61719 33.0448ZM15.39 20.0009C15.1958 21.1247 15.0147 22.2507 14.8265 23.3755C15.5982 23.376 16.3704 23.376 17.142 23.3755C17.6739 23.3654 18.2127 23.3154 18.7195 23.1446C19.022 23.043 19.3165 22.8854 19.5217 22.6342C19.8363 22.2532 19.9417 21.7332 19.901 21.2486C19.8775 20.9181 19.7194 20.5926 19.4485 20.3981C19.0456 20.1075 18.5378 20.014 18.0512 20.0034C17.1641 20.0004 16.277 20.0049 15.39 20.0009Z" fill="white"/>
<path d="M27.3473 22.9939C28.5279 22.9914 29.7085 22.9934 30.889 22.9934C30.4129 26.3437 29.9383 29.6944 29.4616 33.0446C27.841 33.0436 26.2204 33.0451 24.5999 33.0441C25.515 29.6939 26.4332 26.3447 27.3473 22.9939Z" fill="white"/>
</svg>
