<svg width="50" height="59" viewBox="0 0 50 59" fill="none" xmlns="http://www.w3.org/2000/svg">
<path d="M5.30242 10.8769L19.7631 2.70977C22.7491 1.02337 26.392 0.989105 29.4091 2.61904L44.7612 10.9127C47.9853 12.6544 49.9947 16.0238 49.9947 19.6883V36.7986C49.9947 40.2335 48.2274 43.4266 45.3169 45.2505L29.9771 54.8634C26.6762 56.932 22.4731 56.8895 19.2146 54.7547L4.74145 45.2727C1.92814 43.4296 0.233154 40.2928 0.233154 36.9295V19.5619C0.233154 15.9646 2.17017 12.646 5.30242 10.8769Z" fill="#243746"/>
<path opacity="0.4" d="M13.6643 25.7375V33.436H21.3451V41.1164H29.044V25.7375H13.6643Z" fill="white"/>
<path d="M13.6643 33.4358H21.3451V41.1161H13.6643V33.4358Z" fill="white"/>
<path d="M29.0439 25.7365V18.0562H21.345V33.435H36.7247V25.7365H29.0439Z" fill="white"/>
<path opacity="0.5" d="M29.0442 18.0562H36.725V25.7365H29.0442V18.0562Z" fill="white"/>
</svg>
