<svg width="230" height="46" viewBox="0 0 230 46" fill="none" xmlns="http://www.w3.org/2000/svg">
<path d="M16.7808 10.6203L5.33263 21.9496C4.77196 22.5045 4.77042 23.4098 5.32919 23.9665L16.2133 34.8114C16.7599 35.356 17.6412 35.365 18.1987 34.8317L22.716 30.5107C23.2928 29.959 23.3022 29.0404 22.7367 28.477L18.2273 23.9838C17.6619 23.4204 17.6712 22.5019 18.2481 21.9501L22.7856 17.6098C23.335 17.0842 24.2008 17.0842 24.7503 17.6098L29.3508 22.0103C29.9029 22.5385 30.7738 22.5355 31.3224 22.0037L35.7857 17.6766C36.3562 17.1236 36.3624 16.2103 35.7996 15.6495L30.7557 10.6237C30.4893 10.3583 30.1286 10.2093 29.7526 10.2093H17.7805C17.4061 10.2093 17.0469 10.357 16.7808 10.6203Z" fill="white"/>
<path d="M43.7235 35.3797L55.1717 24.0504C55.7323 23.4956 55.7339 22.5903 55.1751 22.0335L44.291 11.1886C43.7444 10.644 42.8631 10.635 42.3055 11.1684L37.7883 15.4893C37.2115 16.0411 37.2021 16.9596 37.7676 17.523L42.277 22.0162C42.8424 22.5796 42.8331 23.4982 42.2562 24.0499L37.7187 28.3902C37.1693 28.9158 36.3034 28.9158 35.754 28.3902L31.1535 23.9897C30.6014 23.4616 29.7305 23.4645 29.1819 23.9963L24.7186 28.3234C24.1481 28.8765 24.1418 29.7898 24.7047 30.3506L29.7486 35.3763C30.015 35.6417 30.3757 35.7908 30.7517 35.7908H42.7238C43.0982 35.7908 43.4574 35.6431 43.7235 35.3797Z" fill="#2B73FF"/>
<path d="M66.6775 35V10.1369H76.4096C78.1619 10.1369 79.6181 10.4093 80.7784 10.9539C81.9624 11.4985 82.8503 12.2562 83.4423 13.2271C84.0343 14.1742 84.3303 15.2753 84.3303 16.5303C84.3303 17.7853 84.058 18.839 83.5133 19.6915C82.9687 20.5439 82.2465 21.1951 81.3467 21.645C80.4706 22.0949 79.5116 22.3672 78.4697 22.4619L79.0025 22.0712C80.1154 22.0949 81.1099 22.3909 81.986 22.9592C82.8858 23.5275 83.5962 24.2734 84.1171 25.1969C84.6381 26.0967 84.8986 27.103 84.8986 28.2159C84.8986 29.5183 84.5789 30.6904 83.9396 31.7323C83.3239 32.7505 82.4123 33.5556 81.2046 34.1476C79.997 34.7159 78.517 35 76.7648 35H66.6775ZM70.9397 31.5192H76.1255C77.5225 31.5192 78.6118 31.1877 79.3932 30.5247C80.1746 29.8616 80.5653 28.9382 80.5653 27.7542C80.5653 26.5702 80.1627 25.6349 79.3577 24.9482C78.5526 24.2379 77.4515 23.8827 76.0544 23.8827H70.9397V31.5192ZM70.9397 20.6505H75.8058C77.1792 20.6505 78.2211 20.3426 78.9314 19.727C79.6418 19.0876 79.997 18.2115 79.997 17.0986C79.997 16.0094 79.6418 15.1569 78.9314 14.5413C78.2211 13.9019 77.1673 13.5823 75.7703 13.5823H70.9397V20.6505ZM97.221 35.4262C95.4451 35.4262 93.8823 35.0474 92.5326 34.2896C91.1829 33.5082 90.1291 32.419 89.3714 31.0219C88.6137 29.6248 88.2348 28.0147 88.2348 26.1914C88.2348 24.297 88.6018 22.6395 89.3359 21.2188C90.0936 19.798 91.1473 18.6851 92.497 17.88C93.8704 17.0749 95.4569 16.6724 97.2565 16.6724C99.0088 16.6724 100.536 17.0631 101.838 17.8445C103.141 18.6259 104.147 19.6796 104.858 21.0057C105.568 22.308 105.923 23.7761 105.923 25.41C105.923 25.6468 105.923 25.9072 105.923 26.1914C105.923 26.4755 105.899 26.7715 105.852 27.0793H91.2894V24.3444H101.625C101.578 23.0421 101.14 22.0239 100.311 21.2898C99.4824 20.5321 98.4523 20.1532 97.221 20.1532C96.3449 20.1532 95.5398 20.3545 94.8058 20.757C94.0717 21.1596 93.4916 21.7634 93.0653 22.5685C92.6391 23.3499 92.426 24.3444 92.426 25.552V26.5821C92.426 27.695 92.6273 28.654 93.0298 29.4591C93.4561 30.2642 94.0244 30.8798 94.7347 31.3061C95.4688 31.7086 96.2857 31.9099 97.1855 31.9099C98.18 31.9099 98.997 31.6968 99.6363 31.2705C100.299 30.8443 100.785 30.276 101.093 29.5656H105.426C105.094 30.6786 104.55 31.6849 103.792 32.5847C103.034 33.4609 102.099 34.1594 100.986 34.6803C99.8731 35.1776 98.6181 35.4262 97.221 35.4262ZM110.001 35V10.1369H118.916C120.881 10.1369 122.503 10.4803 123.782 11.167C125.084 11.83 126.043 12.7298 126.659 13.8664C127.298 14.9793 127.618 16.2462 127.618 17.6669C127.618 18.9929 127.31 20.2242 126.694 21.3608C126.079 22.4974 125.12 23.4091 123.817 24.0958C122.515 24.7825 120.846 25.1258 118.809 25.1258H114.263V35H110.001ZM122.965 35L117.744 24.0247H122.361L127.831 35H122.965ZM114.263 21.9647H118.632C120.218 21.9647 121.378 21.5858 122.112 20.8281C122.87 20.0467 123.249 19.0285 123.249 17.7735C123.249 16.5421 122.882 15.5595 122.148 14.8254C121.414 14.0677 120.242 13.6888 118.632 13.6888H114.263V21.9647ZM139.156 35.4262C137.451 35.4262 135.912 35.0355 134.538 34.2541C133.189 33.449 132.123 32.3479 131.342 30.9509C130.584 29.5301 130.205 27.9081 130.205 26.0848C130.205 24.2142 130.596 22.5803 131.377 21.1832C132.159 19.7625 133.224 18.6614 134.574 17.88C135.947 17.0749 137.486 16.6724 139.191 16.6724C140.896 16.6724 142.423 17.0749 143.773 17.88C145.147 18.6614 146.212 19.7507 146.97 21.1477C147.751 22.5448 148.142 24.1787 148.142 26.0493C148.142 27.92 147.751 29.5538 146.97 30.9509C146.188 32.3479 145.111 33.449 143.738 34.2541C142.388 35.0355 140.861 35.4262 139.156 35.4262ZM139.156 31.7678C140.008 31.7678 140.778 31.5547 141.464 31.1285C142.175 30.7022 142.743 30.0629 143.169 29.2105C143.596 28.358 143.809 27.3043 143.809 26.0493C143.809 24.7943 143.596 23.7524 143.169 22.9237C142.767 22.0712 142.21 21.4319 141.5 21.0057C140.813 20.5794 140.044 20.3663 139.191 20.3663C138.363 20.3663 137.593 20.5794 136.883 21.0057C136.172 21.4319 135.604 22.0712 135.178 22.9237C134.751 23.7524 134.538 24.7943 134.538 26.0493C134.538 27.3043 134.751 28.358 135.178 29.2105C135.604 30.0629 136.16 30.7022 136.847 31.1285C137.557 31.5547 138.327 31.7678 139.156 31.7678ZM160.803 35.4262C159.051 35.4262 157.476 35.0355 156.079 34.2541C154.706 33.449 153.629 32.3479 152.847 30.9509C152.089 29.5301 151.711 27.92 151.711 26.1203C151.711 24.2497 152.089 22.6158 152.847 21.2188C153.629 19.798 154.706 18.6851 156.079 17.88C157.476 17.0749 159.063 16.6724 160.839 16.6724C163.065 16.6724 164.935 17.2644 166.451 18.4483C167.966 19.6086 168.937 21.2069 169.363 23.2433H164.888C164.651 22.3435 164.154 21.6332 163.396 21.1122C162.662 20.5913 161.786 20.3308 160.768 20.3308C159.892 20.3308 159.087 20.5558 158.352 21.0057C157.642 21.4556 157.074 22.1067 156.648 22.9592C156.245 23.8116 156.044 24.8417 156.044 26.0493C156.044 26.9728 156.162 27.7897 156.399 28.5001C156.636 29.2105 156.967 29.8143 157.393 30.3115C157.843 30.7851 158.352 31.1521 158.921 31.4126C159.489 31.6731 160.105 31.8033 160.768 31.8033C161.454 31.8033 162.07 31.6968 162.615 31.4837C163.183 31.2469 163.657 30.9035 164.035 30.4536C164.438 30.0037 164.722 29.4709 164.888 28.8553H169.363C168.937 30.8443 167.966 32.4427 166.451 33.6503C164.935 34.8342 163.053 35.4262 160.803 35.4262ZM185.016 35L177.096 25.1969L184.2 17.0986H189.279L180.435 26.9373V23.634L190.344 35H185.016ZM173.473 35V9.42658H177.735V35H173.473ZM200.17 35.4262C198.394 35.4262 196.831 35.0474 195.481 34.2896C194.131 33.5082 193.078 32.419 192.32 31.0219C191.562 29.6248 191.183 28.0147 191.183 26.1914C191.183 24.297 191.55 22.6395 192.284 21.2188C193.042 19.798 194.096 18.6851 195.446 17.88C196.819 17.0749 198.405 16.6724 200.205 16.6724C201.957 16.6724 203.485 17.0631 204.787 17.8445C206.089 18.6259 207.096 19.6796 207.806 21.0057C208.516 22.308 208.872 23.7761 208.872 25.41C208.872 25.6468 208.872 25.9072 208.872 26.1914C208.872 26.4755 208.848 26.7715 208.801 27.0793H194.238V24.3444H204.574C204.527 23.0421 204.088 22.0239 203.26 21.2898C202.431 20.5321 201.401 20.1532 200.17 20.1532C199.293 20.1532 198.488 20.3545 197.754 20.757C197.02 21.1596 196.44 21.7634 196.014 22.5685C195.588 23.3499 195.375 24.3444 195.375 25.552V26.5821C195.375 27.695 195.576 28.654 195.978 29.4591C196.405 30.2642 196.973 30.8798 197.683 31.3061C198.417 31.7086 199.234 31.9099 200.134 31.9099C201.129 31.9099 201.946 31.6968 202.585 31.2705C203.248 30.8443 203.733 30.276 204.041 29.5656H208.374C208.043 30.6786 207.498 31.6849 206.741 32.5847C205.983 33.4609 205.047 34.1594 203.935 34.6803C202.822 35.1776 201.567 35.4262 200.17 35.4262ZM212.807 35V17.0986H216.608L216.998 20.4374C217.424 19.6559 217.957 18.9929 218.597 18.4483C219.236 17.88 219.982 17.442 220.834 17.1341C221.71 16.8263 222.669 16.6724 223.711 16.6724V21.1832H222.219C221.509 21.1832 220.834 21.278 220.195 21.4674C219.556 21.6332 218.999 21.9173 218.526 22.3198C218.076 22.6987 217.72 23.2315 217.46 23.9182C217.199 24.5812 217.069 25.4218 217.069 26.44V35H212.807Z" fill="white"/>
</svg>
