<svg width="18" height="18" viewBox="0 0 18 18" fill="none" xmlns="http://www.w3.org/2000/svg">
<g clip-path="url(#clip0_2015_18461)">
<path d="M16.8066 8.99769C16.8832 4.60826 13.387 0.987808 8.99757 0.91119C4.60814 0.834572 0.987694 4.3308 0.911076 8.72023C0.834458 13.1097 4.33068 16.7301 8.72012 16.8067C13.1095 16.8833 16.73 13.3871 16.8066 8.99769Z" fill="url(#paint0_linear_2015_18461)"/>
<path d="M16.8066 8.99769C16.8832 4.60826 13.387 0.987808 8.99757 0.91119C4.60814 0.834572 0.987694 4.3308 0.911076 8.72023C0.834458 13.1097 4.33068 16.7301 8.72012 16.8067C13.1095 16.8833 16.73 13.3871 16.8066 8.99769Z" stroke="url(#paint1_radial_2015_18461)" stroke-width="0.836735"/>
<path fill-rule="evenodd" clip-rule="evenodd" d="M3.83887 5.51234C3.83887 4.5881 4.5881 3.83887 5.51234 3.83887H12.2063C13.1304 3.83887 13.8797 4.5881 13.8797 5.51234V12.2062C13.8797 13.1304 13.1304 13.8796 12.2063 13.8796H5.51234C4.5881 13.8796 3.83887 13.1304 3.83887 12.2062V5.51234ZM4.95451 5.51234C4.95451 5.20426 5.20426 4.95451 5.51234 4.95451H6.07016V6.07016C6.07016 6.37824 5.82041 6.62798 5.51234 6.62798C5.20426 6.62798 4.95451 6.37824 4.95451 6.07016V5.51234ZM7.74363 6.62798C7.43555 6.62798 7.18581 6.37824 7.18581 6.07016V4.95451H8.30146V6.07016C8.30146 6.37824 8.05171 6.62798 7.74363 6.62798ZM9.97494 6.62798C9.66685 6.62798 9.41708 6.37824 9.41708 6.07016V4.95451H10.5328V6.07016C10.5328 6.37824 10.283 6.62798 9.97494 6.62798ZM12.2063 6.62798C11.8982 6.62798 11.6484 6.37824 11.6484 6.07016V4.95451H12.2063C12.5143 4.95451 12.764 5.20426 12.764 5.51234V6.07016C12.764 6.37824 12.5143 6.62798 12.2063 6.62798ZM7.74363 11.0906C7.74363 10.7825 7.99338 10.5328 8.30146 10.5328H9.41708C9.72517 10.5328 9.97494 10.7825 9.97494 11.0906V12.764H11.0906V11.0906C11.0906 10.1663 10.3413 9.41708 9.41708 9.41708H8.30146C7.37723 9.41708 6.62799 10.1663 6.62799 11.0906V12.764H7.74363V11.0906Z" fill="white"/>
</g>
<defs>
<linearGradient id="paint0_linear_2015_18461" x1="9.01235" y1="0.485778" x2="8.72029" y2="17.2179" gradientUnits="userSpaceOnUse">
<stop stop-color="#5E6AD2"/>
<stop offset="1" stop-color="#5790FF"/>
</linearGradient>
<radialGradient id="paint1_radial_2015_18461" cx="0" cy="0" r="1" gradientUnits="userSpaceOnUse" gradientTransform="translate(8.30184 0.473375) rotate(88.5684) scale(16.7498 18.3524)">
<stop stop-color="white" stop-opacity="0.48"/>
<stop offset="1" stop-color="white" stop-opacity="0.04"/>
</radialGradient>
<clipPath id="clip0_2015_18461">
<rect width="18" height="18" fill="white"/>
</clipPath>
</defs>
</svg>
