<svg width="23" height="23" viewBox="0 0 23 23" fill="none" xmlns="http://www.w3.org/2000/svg">
<path d="M12 7.7C16.9706 7.7 21 6.42401 21 4.85C21 3.27599 16.9706 2 12 2C7.02944 2 3 3.27599 3 4.85C3 6.42401 7.02944 7.7 12 7.7Z" fill="white"/>
<path d="M21 11.5C21 13.077 17 14.35 12 14.35C7 14.35 3 13.077 3 11.5" fill="white"/>
<path d="M3 4.85V18.15C3 19.727 7 21 12 21C17 21 21 19.727 21 18.15V4.85" fill="white"/>
<path d="M21 4.85C21 6.42401 16.9706 7.7 12 7.7C7.02944 7.7 3 6.42401 3 4.85M21 4.85C21 3.27599 16.9706 2 12 2C7.02944 2 3 3.27599 3 4.85M21 4.85V18.15C21 19.727 17 21 12 21C7 21 3 19.727 3 18.15V4.85M21 11.5C21 13.077 17 14.35 12 14.35C7 14.35 3 13.077 3 11.5" stroke="#1B293F" stroke-width="2.0125" stroke-linecap="round" stroke-linejoin="round"/>
</svg>
