<svg width="32" height="32" viewBox="0 0 32 32" fill="none" xmlns="http://www.w3.org/2000/svg">
<rect width="32" height="32" rx="16" fill="#f5f5f7"/>
<path d="M19.6 21.3333L21.4 23.1111L25 19.5556M16 18.6667H12.4C10.7226 18.6667 9.88392 18.6667 9.22234 18.9373C8.34024 19.2982 7.63941 19.9904 7.27403 20.8616C7 21.515 7 22.3433 7 24M19.15 8.25845C20.4693 8.78591 21.4 10.0634 21.4 11.5556C21.4 13.0477 20.4693 14.3252 19.15 14.8527M17.35 11.5556C17.35 13.5192 15.7382 15.1111 13.75 15.1111C11.7618 15.1111 10.15 13.5192 10.15 11.5556C10.15 9.59188 11.7618 8 13.75 8C15.7382 8 17.35 9.59188 17.35 11.5556Z" stroke="#2B73FF" stroke-width="1.8809" stroke-linecap="round" stroke-linejoin="round"/>
</svg>
