<svg width="32" height="32" viewBox="0 0 32 32" fill="none" xmlns="http://www.w3.org/2000/svg">
<rect width="32" height="32" rx="16" fill="#f5f5f7"/>
<path d="M22.9194 19.4485V21.536C22.9202 21.7298 22.8805 21.9216 22.8028 22.0992C22.7252 22.2768 22.6113 22.4362 22.4685 22.5672C22.3257 22.6982 22.1571 22.7979 21.9735 22.86C21.79 22.9221 21.5954 22.9452 21.4024 22.9277C19.2612 22.695 17.2044 21.9634 15.3973 20.7915C13.716 19.7231 12.2906 18.2977 11.2222 16.6164C10.0462 14.8011 9.31438 12.7343 9.08597 10.5834C9.06858 10.391 9.09145 10.1971 9.15312 10.014C9.21479 9.83085 9.31391 9.6626 9.44417 9.5199C9.57443 9.37721 9.73297 9.2632 9.90971 9.18513C10.0864 9.10707 10.2775 9.06666 10.4707 9.06647H12.5582C12.8959 9.06315 13.2233 9.18273 13.4794 9.40294C13.7354 9.62314 13.9027 9.92894 13.9499 10.2633C14.038 10.9314 14.2014 11.5873 14.437 12.2187C14.5306 12.4677 14.5509 12.7384 14.4954 12.9986C14.4399 13.2588 14.311 13.4977 14.1239 13.6869L13.2402 14.5706C14.2307 16.3127 15.6732 17.7551 17.4152 18.7457L18.299 17.862C18.4882 17.6749 18.727 17.5459 18.9872 17.4904C19.2475 17.4349 19.5181 17.4552 19.7672 17.5488C20.3985 17.7844 21.0545 17.9478 21.7225 18.0359C22.0605 18.0836 22.3692 18.2539 22.5899 18.5143C22.8106 18.7748 22.9278 19.1072 22.9194 19.4485Z" fill="#2B73FF"/>
<path d="M16.3867 11.1671C16.8997 11.2671 17.3711 11.518 17.7406 11.8876C18.1102 12.2571 18.361 12.7285 18.4611 13.2415M16.3867 9.06641C17.4524 9.1848 18.4462 9.66204 19.2049 10.4198C19.9636 11.1775 20.4421 12.1707 20.5618 13.2362" stroke="#2B73FF" stroke-width="1.08176" stroke-linecap="round" stroke-linejoin="round"/>
</svg>
