<svg width="16" height="12" viewBox="0 0 16 12" fill="none" xmlns="http://www.w3.org/2000/svg">
<path d="M11.2 10.4V12H0V10.4C0 10.4 0 7.20003 5.6 7.20003C11.2 7.20003 11.2 10.4 11.2 10.4ZM8.40001 2.80003C8.40001 2.24624 8.23579 1.70489 7.92812 1.24443C7.62045 0.783976 7.18315 0.425093 6.67152 0.213167C6.15988 0.00124152 5.5969 -0.0542079 5.05375 0.0538308C4.5106 0.161869 4.01169 0.428544 3.6201 0.820131C3.22852 1.21172 2.96184 1.71063 2.8538 2.25378C2.74576 2.79693 2.80121 3.35991 3.01314 3.87155C3.22506 4.38318 3.58395 4.82048 4.04441 5.12815C4.50486 5.43582 5.04622 5.60003 5.6 5.60003C6.34261 5.60003 7.0548 5.30503 7.5799 4.77993C8.10501 4.25483 8.40001 3.54264 8.40001 2.80003ZM11.152 7.20003C11.6438 7.58063 12.0462 8.06438 12.3309 8.61724C12.6157 9.1701 12.7758 9.77864 12.8 10.4V12H16V10.4C16 10.4 16 7.49603 11.152 7.20003ZM10.4 2.94372e-05C9.84943 -0.00253147 9.31104 0.162054 8.856 0.47203C9.34196 1.15102 9.60325 1.96506 9.60325 2.80003C9.60325 3.635 9.34196 4.44904 8.856 5.12803C9.31104 5.43801 9.84943 5.60259 10.4 5.60003C11.1426 5.60003 11.8548 5.30503 12.3799 4.77993C12.905 4.25483 13.2 3.54264 13.2 2.80003C13.2 2.05742 12.905 1.34523 12.3799 0.820131C11.8548 0.295029 11.1426 2.94372e-05 10.4 2.94372e-05Z" fill="white"/>
</svg>
