<svg width="35" height="36" viewBox="0 0 35 36" fill="none" xmlns="http://www.w3.org/2000/svg">
<circle cx="17.5" cy="17.6006" r="17.5" fill="#F5F5F5"/>
<path d="M18 27C22.9706 27 27 22.9706 27 18C27 13.0294 22.9706 9 18 9C13.0294 9 9 13.0294 9 18C9 22.9706 13.0294 27 18 27Z" fill="#2B73FF"/>
<path d="M18 9C20.2512 11.4645 21.5305 14.6628 21.6 18C21.5305 21.3372 20.2512 24.5355 18 27C15.7488 24.5355 14.4695 21.3372 14.4 18C14.4695 14.6628 15.7488 11.4645 18 9Z" fill="#2B73FF"/>
<path d="M27 18C27 22.9706 22.9706 27 18 27M27 18C27 13.0294 22.9706 9 18 9M27 18H9M18 27C13.0294 27 9 22.9706 9 18M18 27C20.2512 24.5355 21.5305 21.3372 21.6 18C21.5305 14.6628 20.2512 11.4645 18 9M18 27C15.7488 24.5355 14.4695 21.3372 14.4 18C14.4695 14.6628 15.7488 11.4645 18 9M9 18C9 13.0294 13.0294 9 18 9" stroke="#F5F5F5" stroke-linecap="round" stroke-linejoin="round"/>
</svg>
