<svg width="32" height="32" viewBox="0 0 32 32" fill="none" xmlns="http://www.w3.org/2000/svg">
<rect width="32" height="32" rx="16" fill="#fff"/>
<path d="M19.2 20.4V22H8V20.4C8 20.4 8 17.2 13.6 17.2C19.2 17.2 19.2 20.4 19.2 20.4ZM16.4 12.8C16.4 12.2462 16.2358 11.7049 15.9281 11.2444C15.6205 10.784 15.1832 10.4251 14.6715 10.2132C14.1599 10.0012 13.5969 9.94579 13.0538 10.0538C12.5106 10.1619 12.0117 10.4285 11.6201 10.8201C11.2285 11.2117 10.9618 11.7106 10.8538 12.2538C10.7458 12.7969 10.8012 13.3599 11.0131 13.8715C11.2251 14.3832 11.5839 14.8205 12.0444 15.1281C12.5049 15.4358 13.0462 15.6 13.6 15.6C14.3426 15.6 15.0548 15.305 15.5799 14.7799C16.105 14.2548 16.4 13.5426 16.4 12.8ZM19.152 17.2C19.6438 17.5806 20.0462 18.0644 20.3309 18.6172C20.6157 19.1701 20.7758 19.7786 20.8 20.4V22H24V20.4C24 20.4 24 17.496 19.152 17.2ZM18.4 10C17.8494 9.99747 17.311 10.1621 16.856 10.472C17.342 11.151 17.6033 11.9651 17.6033 12.8C17.6033 13.635 17.342 14.449 16.856 15.128C17.311 15.438 17.8494 15.6026 18.4 15.6C19.1426 15.6 19.8548 15.305 20.3799 14.7799C20.905 14.2548 21.2 13.5426 21.2 12.8C21.2 12.0574 20.905 11.3452 20.3799 10.8201C19.8548 10.295 19.1426 10 18.4 10Z" fill="#2B73FF"/>
</svg>
