<svg width="32" height="32" viewBox="0 0 32 32" fill="none" xmlns="http://www.w3.org/2000/svg">
<rect width="32" height="32" rx="16" fill="#EEEEEE"/>
<path d="M13.812 20.308C13.812 19.756 13.864 19.224 13.968 18.712C14.08 18.192 14.26 17.712 14.508 17.272C14.724 16.848 14.964 16.512 15.228 16.264C15.492 16.008 15.788 15.756 16.116 15.508C16.444 15.252 16.808 14.912 17.208 14.488C17.536 14.128 17.752 13.772 17.856 13.42C17.96 13.06 18.012 12.676 18.012 12.268C18.012 12.004 17.984 11.756 17.928 11.524C17.872 11.292 17.772 11.092 17.628 10.924C17.404 10.628 17.116 10.42 16.764 10.3C16.412 10.172 16.036 10.108 15.636 10.108C15.308 10.108 14.992 10.152 14.688 10.24C14.392 10.32 14.14 10.448 13.932 10.624C13.692 10.816 13.516 11.052 13.404 11.332C13.292 11.612 13.24 11.92 13.248 12.256H10.2C10.28 11.456 10.496 10.716 10.848 10.036C11.208 9.348 11.68 8.8 12.264 8.392C12.72 8.056 13.232 7.804 13.8 7.636C14.376 7.468 14.952 7.384 15.528 7.384C16.408 7.384 17.236 7.52 18.012 7.792C18.796 8.064 19.448 8.512 19.968 9.136C20.328 9.544 20.6 10.016 20.784 10.552C20.976 11.088 21.072 11.632 21.072 12.184C21.072 13.008 20.892 13.76 20.532 14.44C20.18 15.12 19.732 15.748 19.188 16.324C18.932 16.596 18.688 16.836 18.456 17.044C18.224 17.252 18.008 17.456 17.808 17.656C17.616 17.848 17.456 18.052 17.328 18.268C17.104 18.644 16.972 18.964 16.932 19.228C16.892 19.484 16.872 19.844 16.872 20.308H13.812ZM13.836 25V21.82H16.872V25H13.836Z" fill="#2B73FF"/>
</svg>
