<svg width="9" height="12" viewBox="0 0 9 12" fill="none" xmlns="http://www.w3.org/2000/svg">
<path d="M3.208 8.872C3.208 8.504 3.24267 8.14933 3.312 7.808C3.38667 7.46133 3.50667 7.14133 3.672 6.848C3.816 6.56533 3.976 6.34133 4.152 6.176C4.328 6.00533 4.52533 5.83733 4.744 5.672C4.96267 5.50133 5.20533 5.27467 5.472 4.992C5.69067 4.752 5.83467 4.51467 5.904 4.28C5.97333 4.04 6.008 3.784 6.008 3.512C6.008 3.336 5.98933 3.17067 5.952 3.016C5.91467 2.86133 5.848 2.728 5.752 2.616C5.60267 2.41867 5.41067 2.28 5.176 2.2C4.94133 2.11467 4.69067 2.072 4.424 2.072C4.20533 2.072 3.99467 2.10133 3.792 2.16C3.59467 2.21333 3.42667 2.29867 3.288 2.416C3.128 2.544 3.01067 2.70133 2.936 2.888C2.86133 3.07467 2.82667 3.28 2.832 3.504H0.8C0.853333 2.97067 0.997333 2.47733 1.232 2.024C1.472 1.56533 1.78667 1.2 2.176 0.927999C2.48 0.703999 2.82133 0.535999 3.2 0.424C3.584 0.312 3.968 0.256 4.352 0.256C4.93867 0.256 5.49067 0.346666 6.008 0.528C6.53067 0.709333 6.96533 1.008 7.312 1.424C7.552 1.696 7.73333 2.01067 7.856 2.368C7.984 2.72533 8.048 3.088 8.048 3.456C8.048 4.00533 7.928 4.50667 7.688 4.96C7.45333 5.41333 7.15467 5.832 6.792 6.216C6.62133 6.39733 6.45867 6.55733 6.304 6.696C6.14933 6.83467 6.00533 6.97067 5.872 7.104C5.744 7.232 5.63733 7.368 5.552 7.512C5.40267 7.76267 5.31467 7.976 5.288 8.152C5.26133 8.32267 5.248 8.56267 5.248 8.872H3.208ZM3.224 12V9.88H5.248V12H3.224Z" fill="#2B73FF"/>
</svg>
