<svg width="35" height="36" viewBox="0 0 35 36" fill="none" xmlns="http://www.w3.org/2000/svg">
<circle cx="17.5" cy="17.6006" r="17.5" fill="#F5F5F5"/>
<path d="M19.1923 16.8077L12.0965 23.9035L19.1923 16.8077Z" fill="#2B73FF"/>
<path d="M12.8623 18.7538L9.38669 17.9328C9.0043 17.8425 8.86981 17.3677 9.14682 17.0897L11.9109 14.3257C12.0965 14.14 12.3484 14.0336 12.6124 14.0316L15.7287 14.0045" fill="#2B73FF"/>
<path d="M26.1566 14.7151L26.9675 10.8129C27.1883 9.75108 26.2489 8.81167 25.1871 9.03247L21.2849 9.84342C20.1357 10.0823 19.0819 10.6514 18.2529 11.4814L15.0513 14.682C13.8298 15.9034 13.0349 17.4872 12.784 19.1964L12.773 19.2696C12.6144 20.3606 12.9797 21.4616 13.7586 22.2414C14.5374 23.0203 15.6394 23.3856 16.7304 23.226L16.8036 23.215C18.5128 22.9651 20.0966 22.1692 21.318 20.9477L24.5186 17.7471C25.3486 16.9181 25.9177 15.8643 26.1566 14.7151Z" fill="#2B73FF"/>
<path d="M19.654 10.4386C21.9734 12.0203 23.9797 14.0266 25.5614 16.346L19.654 10.4386Z" fill="#2B73FF"/>
<path d="M17.2452 23.1377L18.0662 26.6133C18.1565 26.9957 18.6313 27.1302 18.9093 26.8532L21.6733 24.0891C21.859 23.9035 21.9654 23.6516 21.9674 23.3876L21.9945 20.2713" fill="#2B73FF"/>
<path d="M19.1923 16.8077L12.0965 23.9035M12.8623 18.7538L9.38669 17.9328C9.0043 17.8425 8.86981 17.3677 9.14682 17.0897L11.9109 14.3257C12.0965 14.14 12.3484 14.0336 12.6124 14.0316L15.7287 14.0045M19.654 10.4386C21.9734 12.0203 23.9797 14.0266 25.5614 16.346M17.2452 23.1377L18.0662 26.6133C18.1565 26.9957 18.6313 27.1302 18.9093 26.8532L21.6733 24.0891C21.859 23.9035 21.9654 23.6516 21.9674 23.3876L21.9945 20.2713M26.1566 14.7151L26.9675 10.8129C27.1883 9.75108 26.2489 8.81167 25.1871 9.03247L21.2849 9.84342C20.1357 10.0823 19.0819 10.6514 18.2529 11.4814L15.0513 14.682C13.8298 15.9034 13.0349 17.4872 12.784 19.1964L12.773 19.2696C12.6144 20.3606 12.9797 21.4616 13.7586 22.2414C14.5374 23.0203 15.6394 23.3856 16.7304 23.226L16.8036 23.215C18.5128 22.9651 20.0966 22.1692 21.318 20.9477L24.5186 17.7471C25.3486 16.9181 25.9177 15.8643 26.1566 14.7151Z" stroke="#F5F5F5" stroke-linecap="round" stroke-linejoin="round"/>
</svg>
