<svg width="14" height="16" viewBox="0 0 14 16" fill="none" xmlns="http://www.w3.org/2000/svg">
<path fill-rule="evenodd" clip-rule="evenodd" d="M11.1252 0.460571C10.7155 1.52282 10.2517 1.95246 9.09798 2.33839C8.8675 2.4155 8.6934 2.49346 8.6934 2.51961C8.6934 2.54486 8.77383 2.59346 8.87217 2.62764C9.82811 2.95986 10.0584 3.08361 10.4515 3.47632C10.7747 3.79918 10.9102 4.02121 11.1232 4.57754C11.2151 4.81739 11.2902 5.01857 11.2902 5.02468C11.2902 5.03075 11.3143 5.03571 11.3436 5.03571C11.3729 5.03571 11.4265 4.95939 11.4626 4.86607C11.8124 3.96364 11.955 3.72554 12.3612 3.36557C12.6847 3.07879 12.9566 2.93289 13.5484 2.7285C13.8007 2.64132 13.9858 2.55736 13.9922 2.52707C14.0001 2.49021 13.8745 2.43107 13.5594 2.32325C13.0489 2.14857 12.7452 1.99675 12.4699 1.77868C12.0492 1.44539 11.8093 1.08936 11.5546 0.419643C11.4668 0.188821 11.3742 0 11.3488 0C11.3235 0 11.2228 0.20725 11.1252 0.460571ZM5.10106 3.15179C5.07314 3.21561 4.93727 3.56518 4.79911 3.92857C4.35374 5.10032 4.05322 5.58489 3.36957 6.23368C2.68807 6.88043 2.16866 7.16607 0.865463 7.61064C0.420575 7.76243 0.0395924 7.91214 0.0188553 7.94332C-0.00628511 7.98114 -0.00628511 8.01886 0.0188553 8.05668C0.0395924 8.08786 0.424565 8.23875 0.874383 8.392C2.1684 8.83282 2.68679 9.11832 3.36957 9.76632C4.05322 10.4151 4.35374 10.8997 4.79911 12.0714C5.14818 12.9897 5.13546 12.9643 5.24513 12.9643C5.34923 12.9643 5.321 13.0227 5.70229 12.0179C5.98836 11.2639 6.12238 10.9915 6.41089 10.5772C6.82608 9.98104 7.3109 9.51468 7.91081 9.13436C8.36273 8.84782 8.61083 8.73914 9.57606 8.40489C10.3392 8.14064 10.4987 8.07061 10.4987 8C10.4987 7.92871 10.3451 7.86007 9.65069 7.62125C8.69615 7.29293 8.35408 7.14482 7.92605 6.87457C7.31282 6.48736 6.83022 6.02493 6.41089 5.42282C6.12238 5.00854 5.98836 4.73611 5.70229 3.98214C5.321 2.97729 5.34923 3.03571 5.24513 3.03571C5.17539 3.03571 5.139 3.065 5.10106 3.15179ZM11.2902 10.9753C11.2902 11.0421 10.9267 11.9074 10.8342 12.0609C10.6616 12.3472 10.2345 12.7598 9.92046 12.9437C9.77342 13.0298 9.43715 13.1763 9.17325 13.2693C8.90935 13.3623 8.6934 13.4581 8.6934 13.4823C8.6934 13.5065 8.87544 13.5872 9.09798 13.6616C9.61008 13.8329 9.85735 13.9496 10.1498 14.1583C10.5978 14.4779 10.8576 14.8462 11.1233 15.5382C11.2219 15.7952 11.3215 16 11.3477 16C11.3738 16 11.4663 15.8125 11.5546 15.5804C11.8093 14.9106 12.0492 14.5546 12.4699 14.2213C12.745 14.0034 13.0489 13.8515 13.5578 13.6773C13.8032 13.5933 14 13.506 14 13.4811C14 13.4313 14.0088 13.4353 13.5175 13.2654C12.9918 13.0836 12.6701 12.9083 12.3627 12.6358C11.9549 12.2744 11.8127 12.037 11.4626 11.1339C11.4265 11.0406 11.3729 10.9643 11.3436 10.9643C11.3143 10.9643 11.2902 10.9692 11.2902 10.9753Z" fill="url(#paint0_linear_2037_50366)"/>
<defs>
<linearGradient id="paint0_linear_2037_50366" x1="7" y1="-1.14286" x2="7" y2="17.1429" gradientUnits="userSpaceOnUse">
<stop stop-color="white"/>
<stop offset="1" stop-color="white"/>
</linearGradient>
</defs>
</svg>
