<svg width="14" height="14" viewBox="0 0 14 14" fill="none" xmlns="http://www.w3.org/2000/svg">
<path d="M12.5 3.62H10C10 2.79252 9.68393 1.99894 9.12132 1.41383C8.55871 0.828713 7.79565 0.5 7 0.5C6.20435 0.5 5.44129 0.828713 4.87868 1.41383C4.31607 1.99894 4 2.79252 4 3.62H1.5C1.23478 3.62 0.98043 3.72957 0.792893 3.92461C0.605357 4.11965 0.5 4.38417 0.5 4.66V12.46C0.5 12.7358 0.605357 13.0004 0.792893 13.1954C0.98043 13.3904 1.23478 13.5 1.5 13.5H12.5C12.7652 13.5 13.0196 13.3904 13.2071 13.1954C13.3946 13.0004 13.5 12.7358 13.5 12.46V4.66C13.5 4.38417 13.3946 4.11965 13.2071 3.92461C13.0196 3.72957 12.7652 3.62 12.5 3.62ZM7 1.54C7.53043 1.54 8.03914 1.75914 8.41421 2.14922C8.78929 2.53929 9 3.06835 9 3.62H5C5 3.06835 5.21071 2.53929 5.58579 2.14922C5.96086 1.75914 6.46957 1.54 7 1.54Z" fill="#007AFF"/>
</svg>
