<svg width="57" height="66" viewBox="0 0 57 66" fill="none" xmlns="http://www.w3.org/2000/svg">
<path d="M5.95278 12.2724L22.2688 3.05743C25.6378 1.15467 29.748 1.116 33.1522 2.95505L50.474 12.3127C54.1118 14.278 56.379 18.0797 56.379 22.2143V41.5198C56.379 45.3953 54.3849 48.9981 51.101 51.056L33.7932 61.9022C30.0688 64.2362 25.3264 64.1883 21.6498 61.7796L5.31984 51.081C2.1456 49.0014 0.233154 45.4622 0.233154 41.6674V22.0716C0.233154 18.0128 2.41868 14.2684 5.95278 12.2724Z" fill="#111111"/>
<path d="M24.3784 27.4698V24.2319C24.3784 23.9593 24.4807 23.7546 24.7193 23.6183L31.2293 19.8694C32.1153 19.3582 33.172 19.1196 34.2625 19.1196C38.3524 19.1196 40.9432 22.2895 40.9432 25.6634C40.9432 25.9019 40.9432 26.1745 40.9084 26.4474L34.1602 22.4937C33.7513 22.2554 33.3422 22.2554 32.9333 22.4937L24.3784 27.4698ZM39.5793 40.0804V32.3435C39.5793 31.8661 39.3748 31.5254 38.9658 31.2868L30.411 26.311L33.2059 24.7088C33.4445 24.5727 33.649 24.5727 33.8873 24.7088L40.3974 28.458C42.2714 29.5487 43.5327 31.8661 43.5327 34.1155C43.5327 36.7058 41.9999 39.0916 39.5793 40.08V40.0804ZM22.3676 33.2638L19.5728 31.6279C19.3345 31.4918 19.232 31.2873 19.232 31.0145V23.5165C19.232 19.8696 22.0268 17.1088 25.8102 17.1088C27.2417 17.1088 28.5706 17.5862 29.6957 18.4381L22.9813 22.3236C22.5727 22.5622 22.3679 22.903 22.3679 23.3802V33.2642L22.3676 33.2638ZM28.3832 36.7402L24.3784 34.4908V29.7194L28.3832 27.4701L32.3878 29.7194V34.4908L28.3832 36.7402ZM30.9565 47.1017C29.5249 47.1017 28.1959 46.6243 27.071 45.7724L33.7852 41.8867C34.194 41.6483 34.3986 41.3074 34.3986 40.83V30.9461L37.2276 32.5821C37.4662 32.7181 37.5686 32.9228 37.5686 33.1956V40.6936C37.5686 44.3404 34.7395 47.1013 30.9565 47.1013V47.1017ZM22.8789 39.5011L16.3688 35.752C14.4941 34.6613 13.2333 32.3439 13.2333 30.0945C13.2333 27.4701 14.8011 25.1184 17.2207 24.1299V31.9007C17.2207 32.3781 17.4255 32.7188 17.8343 32.9574L26.3552 37.8991L23.5603 39.5011C23.3219 39.6373 23.1172 39.6373 22.8789 39.5011ZM22.5042 45.0906C18.6527 45.0906 15.8239 42.1935 15.8239 38.6149C15.8239 38.3423 15.8581 38.0697 15.8919 37.7968L22.606 41.6825C23.0149 41.9209 23.4243 41.9209 23.8329 41.6825L32.3878 36.7405V39.9784C32.3878 40.2512 32.2855 40.4557 32.0469 40.5919L25.5371 44.3411C24.6509 44.8523 23.5942 45.0906 22.5038 45.0906H22.5042ZM30.9565 49.1463C35.0806 49.1463 38.5226 46.2153 39.307 42.3298C43.1247 41.3412 45.5778 37.7626 45.5778 34.1159C45.5778 31.7301 44.5559 29.4126 42.7155 27.7424C42.8853 27.0267 42.9883 26.311 42.9883 25.5954C42.9883 20.7217 39.0342 17.0746 34.467 17.0746C33.5469 17.0746 32.6608 17.2106 31.7748 17.5177C30.2408 16.0179 28.1277 15.0637 25.8102 15.0637C21.6861 15.0637 18.2439 17.9947 17.4597 21.8802C13.6425 22.8688 11.1885 26.4474 11.1885 30.0941C11.1885 32.48 12.2109 34.7975 14.0514 36.4676C13.8809 37.1833 13.7787 37.8991 13.7787 38.6147C13.7787 43.4884 17.7323 47.1355 22.2996 47.1355C23.2195 47.1355 24.1058 46.9993 24.9919 46.6922C26.5256 48.192 28.6388 49.1463 30.9565 49.1463Z" fill="white"/>
</svg>
