<svg width="52" height="61" viewBox="0 0 52 61" fill="none" xmlns="http://www.w3.org/2000/svg">
<path d="M5.11057 11.4946L20.5708 2.74551C23.5893 1.0373 27.2744 1.00259 30.3245 2.65367L46.7235 11.5306C49.9745 13.2904 52 16.69 52 20.3867V38.7436C52 42.2083 50.219 45.4297 47.2848 47.2721L30.8983 57.5614C27.5619 59.6565 23.3101 59.6135 20.0167 57.4515L4.54398 47.2943C1.70803 45.4326 0 42.2682 0 38.8757V20.259C0 16.6301 1.95238 13.2819 5.11057 11.4946Z" fill="#F22F46"/>
<path d="M25.48 26.7933C25.48 28.2667 24.2667 29.48 22.7933 29.48C21.32 29.48 20.1067 28.2667 20.1067 26.7933C20.1067 25.32 21.32 24.1067 22.7933 24.1067C24.2667 24.1067 25.48 25.32 25.48 26.7933ZM22.7933 30.52C21.32 30.52 20.1067 31.7333 20.1067 33.2067C20.1067 34.68 21.32 35.8933 22.7933 35.8933C24.2667 35.8933 25.48 34.68 25.48 33.2067C25.48 31.7333 24.2667 30.52 22.7933 30.52ZM39 30C39 37.1933 33.1933 43 26 43C18.8067 43 13 37.1933 13 30C13 22.8067 18.8067 17 26 17C33.1933 17 39 22.8067 39 30ZM35.5333 30C35.5333 24.7133 31.2867 20.4667 26 20.4667C20.7133 20.4667 16.4667 24.7133 16.4667 30C16.4667 35.2867 20.7133 39.5333 26 39.5333C31.2867 39.5333 35.5333 35.2867 35.5333 30ZM29.2067 30.52C27.7333 30.52 26.52 31.7333 26.52 33.2067C26.52 34.68 27.7333 35.8933 29.2067 35.8933C30.68 35.8933 31.8933 34.68 31.8933 33.2067C31.8933 31.7333 30.68 30.52 29.2067 30.52ZM29.2067 24.1067C27.7333 24.1067 26.52 25.32 26.52 26.7933C26.52 28.2667 27.7333 29.48 29.2067 29.48C30.68 29.48 31.8933 28.2667 31.8933 26.7933C31.8933 25.32 30.68 24.1067 29.2067 24.1067Z" fill="white"/>
</svg>
