<svg width="42" height="49" viewBox="0 0 42 49" fill="none" xmlns="http://www.w3.org/2000/svg">
<path d="M4.70302 9.00989L16.6815 2.24464C19.1549 0.847708 22.1725 0.81932 24.6717 2.16947L37.3887 9.0395C40.0593 10.4823 41.7238 13.2733 41.7238 16.3088V30.4821C41.7238 33.3273 40.2599 35.9724 37.8489 37.4832L25.1423 45.446C22.408 47.1595 18.9263 47.1243 16.2271 45.356L4.23834 37.5016C1.90795 35.9748 0.503906 33.3764 0.503906 30.5904V16.204C0.503906 13.2242 2.10842 10.4753 4.70302 9.00989Z" fill="#FE4A49"/>
<path fill-rule="evenodd" clip-rule="evenodd" d="M11.37 17.4922C12.8397 13.6491 16.4542 11.0032 20.2004 11.0032C23.9961 11.0032 27.5529 13.6171 29.0308 17.4922C30.6899 21.8335 29.2696 26.1748 26.919 29.8032C25.1323 32.5679 23.0286 34.935 20.6862 37.1194C20.6533 37.1559 20.5998 37.1468 20.571 37.1102C20.3651 36.8543 20.1675 36.5893 19.974 36.3242C19.8505 36.1597 19.7311 35.9952 19.6035 35.8307C19.5706 35.7941 19.5788 35.7347 19.6118 35.7027C21.666 33.788 23.5474 31.7088 25.194 29.3553C26.7378 27.1436 28.1046 24.5114 28.1046 21.6324C28.1046 16.9027 24.4654 12.8631 20.1922 12.8631C15.8902 12.8631 12.2798 16.8662 12.2798 21.6324C12.2798 23.0856 12.8356 25.5304 15.495 28.9166C16.5654 30.2876 17.6522 31.3706 18.2697 31.9601C18.916 31.3112 20.0811 30.0911 21.2379 28.6242C23.4321 25.8321 24.593 23.4146 24.593 21.6324C24.593 18.9363 22.617 16.7428 20.184 16.7428C17.7551 16.7428 15.775 18.9363 15.775 21.6324C15.775 24.0453 17.6892 25.9646 19.196 27.4772C19.2577 27.5411 19.3236 27.6051 19.3853 27.6645C19.4183 27.6965 19.4183 27.7559 19.3894 27.7925C19.0519 28.2083 18.7143 28.6196 18.3767 29.0309C18.3479 29.0674 18.2944 29.0674 18.2615 29.0355C16.3389 27.1024 14.1036 24.7399 14.1036 21.6324C14.1036 18.0406 16.9606 14.8829 20.1922 14.8829C23.4815 14.8829 26.2809 17.9858 26.2809 21.6324C26.2809 23.9036 25.0088 26.6775 22.5017 29.8626C21.2296 31.4757 19.8382 32.9517 18.3561 34.3272C18.3273 34.3547 18.282 34.3547 18.2532 34.3272C16.8247 33.0386 15.4539 31.6676 14.2435 30.1276C13.2102 28.807 12.3786 27.5 11.7817 26.2479C10.4644 23.4786 10.2544 20.4032 11.37 17.4922ZM20.2004 18.7489C21.6331 18.7489 22.8022 20.0376 22.8022 21.6324C22.8022 23.2273 21.6372 24.516 20.2004 24.516C18.7637 24.516 17.5987 23.2273 17.5987 21.6324C17.5987 20.0376 18.7678 18.7489 20.2004 18.7489ZM19.0601 21.6324C19.0601 22.327 19.5706 22.8937 20.2004 22.8937C20.8303 22.8937 21.3408 22.327 21.3408 21.6324C21.3408 20.9378 20.8303 20.3712 20.2004 20.3712C19.5706 20.3712 19.0601 20.9378 19.0601 21.6324Z" fill="white"/>
</svg>
