<svg width="42" height="48" viewBox="0 0 42 48" fill="none" xmlns="http://www.w3.org/2000/svg">
<path d="M4.68062 8.96182L16.5952 2.23266C19.0554 0.843185 22.0569 0.814952 24.5428 2.1579L37.1919 8.99127C39.8483 10.4264 41.5039 13.2025 41.5039 16.2218V30.3194C41.5039 33.1495 40.0478 35.7804 37.6497 37.2832L25.0108 45.2035C22.2911 46.9079 18.828 46.8729 16.1432 45.114L4.21842 37.3015C1.90045 35.7829 0.503906 33.1984 0.503906 30.4272V16.1176C0.503906 13.1537 2.09987 10.4194 4.68062 8.96182Z" fill="#F6F8FC"/>
<g clip-path="url(#clip0_1472_6246)">
<path d="M23.5918 11.4157C22.7814 11.1512 21.8973 11 20.9948 11C18.3978 11 16.0587 12.2094 14.4932 14.1179L18.5083 17.576L23.5918 11.4157Z" fill="#1A73E8"/>
<path d="M14.4931 14.1179C13.2591 15.6296 12.5039 17.5949 12.5039 19.7113C12.5039 21.3553 12.817 22.678 13.3511 23.8685L18.5082 17.576L14.4931 14.1179Z" fill="#EA4335"/>
<path d="M21.0132 16.3855C22.8182 16.3855 24.2732 17.8784 24.2732 19.7302C24.2732 20.5428 23.9785 21.2986 23.4996 21.8844C23.4996 21.8844 26.0598 18.7476 28.5646 15.7053C27.5332 13.6644 25.7467 12.1149 23.5917 11.4158L18.5083 17.576C19.1161 16.8579 20.0002 16.3855 21.0132 16.3855Z" fill="#4285F4"/>
<path d="M21.013 23.0561C19.2081 23.0561 17.753 21.5633 17.753 19.7115C17.753 18.8989 18.0293 18.1431 18.5082 17.5762L13.3511 23.8687C14.2351 25.8717 15.7086 27.4968 17.2189 29.5187L23.4995 21.8657C22.8917 22.6026 22.0076 23.0561 21.013 23.0561Z" fill="#FBBC04"/>
<path d="M23.3891 31.635C26.2255 27.081 29.5224 25.0213 29.5224 19.7303C29.5224 18.2752 29.1724 16.9147 28.5646 15.7053L17.219 29.5186C17.6979 30.1611 18.1952 30.8981 18.674 31.6539C20.4053 34.3939 19.9265 36.019 21.0316 36.019C22.1367 36.019 21.6578 34.375 23.3891 31.635Z" fill="#34A853"/>
</g>
<defs>
<clipPath id="clip0_1472_6246">
<rect width="17" height="25" fill="white" transform="translate(12.5039 11)"/>
</clipPath>
</defs>
</svg>
