<svg width="28" height="32" viewBox="0 0 28 32" fill="none" xmlns="http://www.w3.org/2000/svg">
<path d="M3.25442 5.90169L11.1006 1.47029C12.7208 0.555268 14.6973 0.536675 16.3344 1.42106L24.6643 5.92108C26.4136 6.86613 27.5039 8.69433 27.5039 10.6826V19.9665C27.5039 21.8302 26.545 23.5627 24.9658 24.5524L16.6426 29.7682C14.8516 30.8906 12.571 30.8675 10.803 29.7092L2.95005 24.5644C1.42358 23.5643 0.503906 21.8623 0.503906 20.0374V10.614C0.503906 8.66217 1.5549 6.86154 3.25442 5.90169Z" fill="#6134F4"/>
<path d="M15.8433 9.83057C18.4567 9.83057 20.7402 11.5484 21.4023 14.0098C22.0644 16.4713 20.9384 19.0587 18.6607 20.3065C16.383 21.5542 13.5282 21.1489 11.7121 19.3199C13.3406 18.6784 14.406 17.1388 14.406 15.4279C14.406 13.7169 13.3406 12.1773 11.7121 11.5359C12.7822 10.4561 14.2521 9.84192 15.7908 9.83057H15.8421H15.8433ZM6.66829 12.8813C7.84678 11.3769 9.91234 10.8263 11.7133 11.537C9.55798 13.7067 9.55798 17.1513 11.7133 19.321C9.91234 20.0306 7.84678 19.4799 6.66829 17.9767C5.4898 16.4724 5.4898 14.3867 6.66829 12.8824V12.8813Z" fill="white"/>
</svg>
