<svg width="65" height="75" viewBox="0 0 65 75" fill="none" xmlns="http://www.w3.org/2000/svg">
<path d="M7.02365 13.9892L25.6221 3.48513C29.4624 1.31619 34.1476 1.27212 38.028 3.36843L57.7729 14.0352C61.9195 16.2753 64.5039 20.6088 64.5039 25.3218V47.3279C64.5039 51.7456 62.2309 55.8524 58.4876 58.1982L38.7586 70.5616C34.5132 73.2221 29.1074 73.1675 24.9165 70.4219L6.30217 58.2267C2.68388 55.8562 0.503906 51.8218 0.503906 47.4962V25.1591C0.503906 20.5326 2.99516 16.2644 7.02365 13.9892Z" fill="#4A154B"/>
<g clip-path="url(#clip0_1472_6197)">
<path fill-rule="evenodd" clip-rule="evenodd" d="M27.237 17.2666C26.7263 17.2671 26.2207 17.3682 25.749 17.5641C25.2773 17.76 24.8489 18.0469 24.4881 18.4084C24.1273 18.7699 23.8413 19.1989 23.6464 19.671C23.4514 20.1431 23.3514 20.6489 23.352 21.1596C23.3515 21.6703 23.4516 22.1761 23.6466 22.6481C23.8416 23.12 24.1276 23.549 24.4884 23.9104C24.8491 24.2719 25.2776 24.5587 25.7492 24.7546C26.2208 24.9504 26.7264 25.0515 27.237 25.052H31.1221V21.1596C31.1227 20.6489 31.0227 20.1431 30.8277 19.671C30.6328 19.1989 30.3468 18.7699 29.986 18.4084C29.6252 18.0469 29.1968 17.76 28.7251 17.5641C28.2534 17.3682 27.7478 17.2671 27.237 17.2666ZM27.237 27.6478H16.8768C16.3661 27.6483 15.8605 27.7493 15.3889 27.9452C14.9173 28.1411 14.4889 28.4279 14.1281 28.7893C13.7674 29.1508 13.4813 29.5797 13.2863 30.0517C13.0913 30.5237 12.9912 31.0295 12.9917 31.5401C12.9911 32.0509 13.0912 32.5567 13.2861 33.0288C13.4811 33.5008 13.7671 33.9299 14.1279 34.2914C14.4886 34.6529 14.9171 34.9398 15.3888 35.1357C15.8604 35.3316 16.3661 35.4327 16.8768 35.4332H27.237C27.7478 35.4327 28.2534 35.3316 28.7251 35.1357C29.1968 34.9398 29.6252 34.6529 29.986 34.2914C30.3468 33.9299 30.6328 33.5008 30.8277 33.0288C31.0227 32.5567 31.1227 32.0509 31.1221 31.5401C31.1226 31.0295 31.0225 30.5237 30.8275 30.0517C30.6325 29.5797 30.3465 29.1508 29.9857 28.7893C29.625 28.4279 29.1965 28.1411 28.7249 27.9452C28.2533 27.7493 27.7477 27.6483 27.237 27.6478Z" fill="#44BEDF"/>
<path fill-rule="evenodd" clip-rule="evenodd" d="M51.8426 31.5401C51.8431 31.0295 51.743 30.5237 51.548 30.0517C51.353 29.5797 51.0669 29.1508 50.7062 28.7893C50.3454 28.4279 49.917 28.1411 49.4454 27.9452C48.9738 27.7493 48.4682 27.6483 47.9575 27.6478C47.4468 27.6483 46.9413 27.7493 46.4696 27.9452C45.998 28.1411 45.5696 28.4279 45.2088 28.7893C44.8481 29.1508 44.562 29.5797 44.367 30.0517C44.1721 30.5237 44.0719 31.0295 44.0724 31.5401V35.4332H47.9575C48.4682 35.4327 48.9739 35.3316 49.4455 35.1357C49.9172 34.9398 50.3457 34.6529 50.7064 34.2914C51.0672 33.9299 51.3532 33.5008 51.5482 33.0288C51.7431 32.5567 51.8432 32.0509 51.8426 31.5401ZM41.4824 31.5401V21.1596C41.4829 20.6489 41.3829 20.1431 41.1879 19.671C40.993 19.1989 40.707 18.7699 40.3462 18.4084C39.9854 18.0469 39.557 17.76 39.0853 17.5641C38.6136 17.3682 38.108 17.2671 37.5973 17.2666C37.0865 17.2671 36.5809 17.3682 36.1092 17.5641C35.6376 17.76 35.2091 18.0469 34.8483 18.4084C34.4876 18.7699 34.2015 19.1989 34.0066 19.671C33.8116 20.1431 33.7116 20.6489 33.7122 21.1596V31.5401C33.7116 32.0509 33.8116 32.5567 34.0066 33.0288C34.2015 33.5008 34.4876 33.9299 34.8483 34.2914C35.2091 34.6529 35.6376 34.9398 36.1092 35.1357C36.5809 35.3316 37.0865 35.4327 37.5973 35.4332C38.108 35.4327 38.6136 35.3316 39.0853 35.1357C39.557 34.9398 39.9854 34.6529 40.3462 34.2914C40.707 33.9299 40.993 33.5008 41.1879 33.0288C41.3829 32.5567 41.4829 32.0509 41.4824 31.5401Z" fill="#2EB67D"/>
<path fill-rule="evenodd" clip-rule="evenodd" d="M37.5973 56.1951C38.108 56.1947 38.6136 56.0936 39.0853 55.8977C39.557 55.7018 39.9854 55.4149 40.3462 55.0534C40.707 54.6918 40.993 54.2628 41.1879 53.7907C41.3829 53.3187 41.4829 52.8128 41.4824 52.3021C41.4828 51.7914 41.3827 51.2857 41.1877 50.8137C40.9927 50.3417 40.7067 49.9127 40.3459 49.5513C39.9852 49.1899 39.5567 48.903 39.0851 48.7072C38.6135 48.5113 38.1079 48.4103 37.5973 48.4098H33.7122V52.3021C33.7116 52.8128 33.8116 53.3187 34.0066 53.7907C34.2015 54.2628 34.4876 54.6918 34.8483 55.0534C35.2091 55.4149 35.6376 55.7018 36.1092 55.8977C36.5809 56.0936 37.0865 56.1947 37.5973 56.1951ZM37.5973 45.8139H47.9575C48.4682 45.8135 48.9738 45.7124 49.4454 45.5165C49.917 45.3207 50.3454 45.0338 50.7062 44.6724C51.0669 44.311 51.353 43.882 51.548 43.41C51.743 42.938 51.8431 42.4323 51.8426 41.9216C51.8432 41.4109 51.7431 40.905 51.5482 40.433C51.3532 39.9609 51.0672 39.5319 50.7064 39.1704C50.3457 38.8088 49.9172 38.5219 49.4455 38.326C48.9739 38.1301 48.4682 38.029 47.9575 38.0286H37.5973C37.0865 38.029 36.5809 38.1301 36.1092 38.326C35.6376 38.5219 35.2091 38.8088 34.8483 39.1704C34.4876 39.5319 34.2015 39.9609 34.0066 40.433C33.8116 40.905 33.7116 41.4109 33.7122 41.9216C33.7117 42.4323 33.8118 42.938 34.0068 43.41C34.2018 43.882 34.4878 44.311 34.8486 44.6724C35.2093 45.0338 35.6378 45.3207 36.1094 45.5165C36.581 45.7124 37.0866 45.8135 37.5973 45.8139Z" fill="#ECB22E"/>
<path fill-rule="evenodd" clip-rule="evenodd" d="M12.9917 41.9216C12.9912 42.4323 13.0913 42.938 13.2863 43.41C13.4813 43.882 13.7674 44.311 14.1281 44.6724C14.4889 45.0338 14.9173 45.3207 15.3889 45.5165C15.8605 45.7124 16.3661 45.8135 16.8768 45.8139C17.3875 45.8135 17.893 45.7124 18.3647 45.5165C18.8363 45.3207 19.2647 45.0338 19.6255 44.6724C19.9862 44.311 20.2723 43.882 20.4673 43.41C20.6623 42.938 20.7624 42.4323 20.7619 41.9216V38.0286H16.8768C16.366 38.029 15.8603 38.1301 15.3886 38.3261C14.9169 38.5221 14.4884 38.809 14.1276 39.1706C13.7668 39.5322 13.4808 39.9613 13.2859 40.4335C13.091 40.9056 12.991 41.4108 12.9917 41.9216ZM23.352 41.9216V52.3021C23.3514 52.8128 23.4514 53.3187 23.6464 53.7907C23.8413 54.2628 24.1273 54.6918 24.4881 55.0534C24.8489 55.4149 25.2773 55.7018 25.749 55.8977C26.2207 56.0936 26.7263 56.1947 27.237 56.1951C27.7478 56.1947 28.2534 56.0936 28.7251 55.8977C29.1968 55.7018 29.6252 55.4149 29.986 55.0534C30.3468 54.6918 30.6328 54.2628 30.8277 53.7907C31.0227 53.3187 31.1227 52.8128 31.1221 52.3021V41.9223C31.1227 41.4116 31.0227 40.9058 30.8277 40.4337C30.6328 39.9616 30.3468 39.5326 29.986 39.1711C29.6252 38.8096 29.1968 38.5227 28.7251 38.3267C28.2534 38.1308 27.7478 38.0298 27.237 38.0293C26.7263 38.0298 26.2207 38.1308 25.749 38.3267C25.2773 38.5227 24.8489 38.8096 24.4881 39.1711C24.1273 39.5326 23.8413 39.9616 23.6464 40.4337C23.4514 40.9058 23.3514 41.4109 23.352 41.9216Z" fill="#E01E5A"/>
</g>
<defs>
<clipPath id="clip0_1472_6197">
<rect width="39.0244" height="39.0244" fill="white" transform="translate(12.9917 17.1707)"/>
</clipPath>
</defs>
</svg>
