<svg width="66" height="78" viewBox="0 0 66 78" fill="none" xmlns="http://www.w3.org/2000/svg">
<path d="M7.12552 15.1589L26.0145 4.49076C29.9148 2.28793 34.6733 2.24317 38.6143 4.37223L58.6677 15.2056C62.8792 17.4808 65.5039 21.882 65.5039 26.6686V49.0186C65.5039 53.5053 63.1954 57.6763 59.3936 60.0587L39.3563 72.6153C35.0446 75.3173 29.5543 75.2619 25.298 72.4734L6.39276 60.0877C2.71795 57.6801 0.503906 53.5827 0.503906 49.1895V26.5034C0.503906 21.8045 3.03409 17.4697 7.12552 15.1589Z" fill="#EB5454"/>
<path d="M33.0028 41.04C34.5656 41.04 35.8325 39.7731 35.8325 38.2103C35.8325 36.6475 34.5656 35.3806 33.0028 35.3806C31.44 35.3806 30.1731 36.6475 30.1731 38.2103C30.1731 39.7731 31.44 41.04 33.0028 41.04Z" fill="white"/>
<path d="M46.449 40.3336C45.2771 40.3336 44.3257 39.3822 44.3257 38.2103C44.3257 31.9547 39.2543 26.8874 33.0028 26.8874C26.7514 26.8874 21.6799 31.9588 21.6799 38.2103C21.6799 44.4617 26.7514 49.5331 33.0028 49.5331C37.3229 49.5331 41.0795 47.1159 42.9864 43.5553C45.4527 45.1559 48.7887 44.8742 50.9528 42.71C52.1982 41.4646 52.8189 39.8354 52.8189 38.2062C52.8189 27.2631 43.946 18.3901 33.0028 18.3901C22.0597 18.3901 13.1868 27.2671 13.1868 38.2103C13.1868 49.1534 22.0597 58.0263 33.0028 58.0263C38.4744 58.0263 43.4315 55.8091 47.0166 52.2199L44.0154 49.2187C41.1979 52.0362 37.3066 53.7797 33.0069 53.7797C24.4076 53.7797 17.4374 46.8096 17.4374 38.2103C17.4374 29.6109 24.4035 22.6408 33.0028 22.6408C41.6022 22.6408 48.5723 29.6109 48.5723 38.2103C48.5723 39.3822 47.6209 40.3336 46.449 40.3336ZM33.0028 45.2866C29.0951 45.2866 25.9265 42.118 25.9265 38.2103C25.9265 34.3026 29.0951 31.134 33.0028 31.134C36.9105 31.134 40.0791 34.3026 40.0791 38.2103C40.0791 42.118 36.9105 45.2866 33.0028 45.2866Z" fill="white"/>
</svg>
