<svg width="60" height="70" viewBox="0 0 60 70" fill="none" xmlns="http://www.w3.org/2000/svg">
<path d="M6.1992 13.0693L23.5747 3.25596C27.1624 1.22965 31.5396 1.18847 35.1649 3.14694L53.6114 13.1123C57.4854 15.2051 59.8998 19.2537 59.8998 23.6568V44.2159C59.8998 48.343 57.7763 52.1798 54.2791 54.3714L35.8474 65.9218C31.8811 68.4073 26.8308 68.3563 22.9155 65.7913L5.52515 54.398C2.14479 52.1834 0.108154 48.4143 0.108154 44.373V23.5048C0.108154 19.1824 2.43561 15.1949 6.1992 13.0693Z" fill="#2AABEE"/>
<path d="M6.1992 13.0693L23.5747 3.25596C27.1624 1.22965 31.5396 1.18847 35.1649 3.14694L53.6114 13.1123C57.4854 15.2051 59.8998 19.2537 59.8998 23.6568V44.2159C59.8998 48.343 57.7763 52.1798 54.2791 54.3714L35.8474 65.9218C31.8811 68.4073 26.8308 68.3563 22.9155 65.7913L5.52515 54.398C2.14479 52.1834 0.108154 48.4143 0.108154 44.373V23.5048C0.108154 19.1824 2.43561 15.1949 6.1992 13.0693Z" fill="url(#paint0_linear_1472_6206)"/>
<path fill-rule="evenodd" clip-rule="evenodd" d="M13.88 33.1755C22.1008 29.471 27.5826 27.0288 30.3255 25.8488C38.1569 22.4798 39.7842 21.8945 40.8448 21.8752C41.0781 21.871 41.5997 21.9308 41.9375 22.2143C42.2228 22.4537 42.3013 22.7772 42.3389 23.0042C42.3765 23.2312 42.4232 23.7483 42.386 24.1524C41.9617 28.7643 40.1253 39.9563 39.1911 45.1217C38.7958 47.3074 38.0175 48.0403 37.2639 48.112C35.6263 48.2679 34.3828 46.9926 32.7967 45.9173C30.3147 44.2345 28.9126 43.187 26.5034 41.545C23.7192 39.6473 25.5241 38.6044 27.1108 36.8998C27.5261 36.4537 34.7414 29.6658 34.8811 29.05C34.8986 28.973 34.9148 28.6859 34.7499 28.5344C34.585 28.3828 34.3416 28.4346 34.166 28.4758C33.9171 28.5343 29.9521 31.2448 22.2712 36.6074C21.1457 37.4068 20.1263 37.7962 19.213 37.7758C18.2061 37.7533 16.2693 37.187 14.8295 36.7029C13.0634 36.1091 11.6599 35.7952 11.7821 34.7869C11.8457 34.2617 12.545 33.7245 13.88 33.1755Z" fill="white"/>
<defs>
<linearGradient id="paint0_linear_1472_6206" x1="2989.69" y1="0" x2="2989.69" y2="6948.08" gradientUnits="userSpaceOnUse">
<stop stop-color="#2AABEE"/>
<stop offset="1" stop-color="#229ED9"/>
</linearGradient>
</defs>
</svg>
