<svg width="40" height="46" viewBox="0 0 40 46" fill="none" xmlns="http://www.w3.org/2000/svg">
<path d="M4.47688 8.52466L15.8103 2.12375C18.1505 0.802054 21.0055 0.775196 23.3702 2.05263L35.4022 8.55268C37.9291 9.91775 39.5039 12.5585 39.5039 15.4305V28.8404C39.5039 31.5324 38.1188 34.035 35.8377 35.4645L23.8154 42.9985C21.2283 44.6197 17.9342 44.5864 15.3803 42.9133L4.03722 35.4819C1.83233 34.0374 0.503906 31.5789 0.503906 28.943V15.3314C0.503906 12.512 2.02202 9.91112 4.47688 8.52466Z" fill="#1C1E21"/>
<path d="M31.6747 21.8181C31.5638 18.7811 30.284 15.9044 28.1024 13.7885C25.9209 11.6727 23.0064 10.4814 19.9674 10.4634H19.91C17.8635 10.4619 15.8518 10.9932 14.073 12.0051C12.2941 13.017 10.8094 14.4746 9.76481 16.2344C8.72025 17.9943 8.15188 19.9958 8.11562 22.042C8.07936 24.0881 8.57646 26.1086 9.558 27.9043L8.51576 34.1411C8.51406 34.1539 8.51511 34.1669 8.51883 34.1792C8.52255 34.1916 8.52886 34.203 8.53734 34.2127C8.54583 34.2225 8.55628 34.2303 8.56802 34.2356C8.57975 34.241 8.5925 34.2438 8.6054 34.2439H8.62333L14.7919 32.8717C16.3857 33.6369 18.1312 34.034 19.8992 34.0335C20.0116 34.0335 20.1239 34.0335 20.2362 34.0335C21.7915 33.9891 23.3225 33.6371 24.741 32.9979C26.1595 32.3587 27.4373 31.4449 28.5008 30.3092C29.5642 29.1736 30.3922 27.8385 30.937 26.3811C31.4818 24.9238 31.7325 23.3729 31.6747 21.8181ZM20.1777 31.9836C20.0844 31.9836 19.9913 31.9836 19.8992 31.9836C18.3366 31.9856 16.7965 31.6117 15.4087 30.8936L15.0932 30.7286L10.9098 31.7171L11.6819 27.4848L11.5027 27.1812C10.6464 25.7212 10.1851 24.0634 10.1644 22.371C10.1437 20.6786 10.5642 19.01 11.3844 17.5295C12.2047 16.049 13.3965 14.8077 14.8424 13.9279C16.2883 13.0481 17.9384 12.5601 19.6303 12.512C19.7243 12.512 19.8188 12.512 19.9135 12.512C22.468 12.5196 24.9171 13.5303 26.7334 15.3265C28.5497 17.1226 29.5877 19.5604 29.6237 22.1145C29.6598 24.6687 28.691 27.1347 26.9262 28.9814C25.1613 30.8281 22.7416 31.9076 20.1884 31.9872L20.1777 31.9836Z" fill="#25D366"/>
<path d="M15.8033 16.5592C15.6577 16.5621 15.5141 16.5941 15.3811 16.6535C15.248 16.7128 15.1283 16.7982 15.0288 16.9047C14.748 17.1927 13.9627 17.8859 13.9172 19.3417C13.8718 20.7976 14.889 22.2378 15.0312 22.4398C15.1734 22.6418 16.9759 25.7865 19.9448 27.0618C21.6899 27.8136 22.4548 27.9427 22.9508 27.9427C23.1552 27.9427 23.3095 27.9212 23.4708 27.9116C24.0146 27.8782 25.2421 27.2495 25.5099 26.5658C25.7776 25.8821 25.7956 25.2845 25.725 25.1649C25.6545 25.0454 25.4608 24.9594 25.1692 24.8064C24.8776 24.6534 23.4469 23.8885 23.178 23.7809C23.0782 23.7344 22.9709 23.7065 22.8612 23.6984C22.7898 23.7022 22.7203 23.7232 22.6589 23.7599C22.5974 23.7966 22.5459 23.8477 22.5086 23.9088C22.2696 24.2064 21.721 24.853 21.5369 25.0395C21.4967 25.0858 21.4472 25.1231 21.3916 25.1491C21.3359 25.175 21.2755 25.189 21.2142 25.1901C21.1011 25.1851 20.9906 25.1554 20.8903 25.1028C20.0236 24.7347 19.2335 24.2078 18.5608 23.549C17.9321 22.9294 17.3988 22.2201 16.9783 21.4442C16.8157 21.143 16.9783 20.9876 17.1264 20.8466C17.2746 20.7055 17.4337 20.5107 17.5866 20.3422C17.7122 20.1982 17.8168 20.0373 17.8974 19.8641C17.9391 19.7837 17.9602 19.6942 17.9587 19.6037C17.9572 19.5131 17.9333 19.4243 17.889 19.3453C17.8185 19.1947 17.2914 17.7139 17.044 17.1198C16.8432 16.6118 16.6041 16.5951 16.3949 16.5796C16.2229 16.5676 16.0257 16.5616 15.8284 16.5557H15.8033" fill="#25D366"/>
</svg>
