<svg width="174" height="174" viewBox="0 0 174 174" fill="none" xmlns="http://www.w3.org/2000/svg">
<circle cx="87.0476" cy="87.0476" r="83.0476" fill="#2A446D"/>
<circle cx="87.0476" cy="87.0476" r="83.0476" fill="black" fill-opacity="0.2"/>
<circle cx="87.0476" cy="87.0476" r="83.0476" fill="url(#paint0_linear_3001_21597)" fill-opacity="0.4"/>
<circle cx="87.0476" cy="87.0476" r="83.0476" fill="url(#paint1_linear_3001_21597)" fill-opacity="0.6" style="mix-blend-mode:overlay"/>
<circle cx="87.0476" cy="87.0476" r="84.7688" stroke="#2B73FF" stroke-opacity="0.6" stroke-width="3.44239"/>
<path d="M118.734 102.462C116.307 102.475 113.944 103.249 111.97 104.678L102.391 98.9404C102.845 97.5211 103.083 96.0399 103.095 94.5481C103.084 91.0478 101.926 87.65 99.8039 84.8863C97.6816 82.1226 94.714 80.1488 91.3654 79.2738V70.0933C93.9741 69.1599 96.1727 67.3231 97.5727 64.9077C98.9727 62.4922 99.4839 59.6536 99.016 56.8936C98.5481 54.1335 97.1313 51.6297 95.0158 49.8248C92.9003 48.0198 90.2225 47.0298 87.4556 47.0298C84.6887 47.0298 82.0109 48.0198 79.8954 49.8248C77.78 51.6297 76.3631 54.1335 75.8952 56.8936C75.4273 59.6536 75.9385 62.4922 77.3385 64.9077C78.7385 67.3231 80.9372 69.1599 83.5458 70.0933V79.2738C80.1972 80.1488 77.2296 82.1226 75.1073 84.8863C72.985 87.65 71.8277 91.0478 71.8165 94.5481C71.8286 96.0399 72.0659 97.5211 72.5202 98.9404L62.9413 104.678C60.9674 103.249 58.6042 102.475 56.1774 102.462C53.8575 102.462 51.5898 103.158 49.6609 104.463C47.732 105.767 46.2286 107.621 45.3408 109.791C44.4531 111.96 44.2208 114.347 44.6734 116.649C45.126 118.952 46.2431 121.067 47.8834 122.728C49.5238 124.388 51.6138 125.519 53.8891 125.977C56.1643 126.435 58.5227 126.2 60.666 125.301C62.8092 124.403 64.6411 122.881 65.9299 120.929C67.2188 118.977 67.9067 116.681 67.9067 114.333C67.8922 113.262 67.7344 112.197 67.4375 111.168L76.43 105.747C79.3602 108.695 83.324 110.349 87.4556 110.349C91.5872 110.349 95.551 108.695 98.4812 105.747L107.474 111.168C106.819 113.564 106.923 116.108 107.774 118.441C108.624 120.774 110.176 122.778 112.212 124.17C114.247 125.562 116.664 126.272 119.119 126.2C121.575 126.127 123.946 125.276 125.899 123.767C127.851 122.258 129.286 120.166 130 117.787C130.715 115.408 130.674 112.862 129.882 110.508C129.091 108.155 127.589 106.112 125.588 104.668C123.588 103.224 121.191 102.453 118.734 102.462ZM56.1774 118.291C55.4041 118.291 54.6482 118.058 54.0052 117.624C53.3622 117.189 52.8611 116.571 52.5652 115.848C52.2693 115.125 52.1918 114.329 52.3427 113.561C52.4936 112.794 52.8659 112.089 53.4127 111.535C53.9595 110.982 54.6562 110.605 55.4146 110.452C56.173 110.3 56.9591 110.378 57.6736 110.678C58.388 110.977 58.9986 111.484 59.4282 112.135C59.8578 112.786 60.0871 113.551 60.0871 114.333C60.0871 115.383 59.6752 116.389 58.942 117.132C58.2088 117.874 57.2143 118.291 56.1774 118.291ZM87.4556 54.9773C88.2289 54.9773 88.9848 55.2094 89.6278 55.6442C90.2707 56.079 90.7719 56.697 91.0678 57.4201C91.3637 58.1431 91.4411 58.9388 91.2903 59.7064C91.1394 60.474 90.767 61.179 90.2202 61.7324C89.6735 62.2858 88.9768 62.6627 88.2184 62.8154C87.4599 62.9681 86.6738 62.8897 85.9594 62.5902C85.245 62.2907 84.6344 61.7835 84.2047 61.1328C83.7751 60.4821 83.5458 59.717 83.5458 58.9344C83.5458 57.8849 83.9578 56.8784 84.691 56.1363C85.4242 55.3942 86.4187 54.9773 87.4556 54.9773ZM87.4556 102.462C85.909 102.462 84.3972 101.998 83.1113 101.128C81.8254 100.259 80.8231 99.0228 80.2313 97.5767C79.6394 96.1306 79.4846 94.5393 79.7863 93.0041C80.088 91.4689 80.8328 90.0587 81.9263 88.9519C83.0199 87.8451 84.4132 87.0913 85.9301 86.786C87.4469 86.4806 89.0192 86.6373 90.448 87.2363C91.8769 87.8353 93.0981 88.8497 93.9573 90.1512C94.8166 91.4527 95.2752 92.9828 95.2752 94.5481C95.2752 96.647 94.4513 98.66 92.9849 100.144C91.5184 101.628 89.5295 102.462 87.4556 102.462ZM118.734 118.291C117.961 118.291 117.205 118.058 116.562 117.624C115.919 117.189 115.418 116.571 115.122 115.848C114.826 115.125 114.748 114.329 114.899 113.561C115.05 112.794 115.422 112.089 115.969 111.535C116.516 110.982 117.213 110.605 117.971 110.452C118.73 110.3 119.516 110.378 120.23 110.678C120.945 110.977 121.555 111.484 121.985 112.135C122.414 112.786 122.644 113.551 122.644 114.333C122.644 115.383 122.232 116.389 121.499 117.132C120.765 117.874 119.771 118.291 118.734 118.291Z" fill="white"/>
<defs>
<linearGradient id="paint0_linear_3001_21597" x1="170.095" y1="87.0476" x2="4" y2="87.0476" gradientUnits="userSpaceOnUse">
<stop stop-opacity="0"/>
<stop offset="1"/>
</linearGradient>
<linearGradient id="paint1_linear_3001_21597" x1="87.0476" y1="4" x2="87.0476" y2="170.095" gradientUnits="userSpaceOnUse">
<stop stop-color="white" stop-opacity="0"/>
<stop offset="1" stop-color="white"/>
</linearGradient>
</defs>
</svg>
