<svg width="24" height="24" viewBox="0 0 24 24" fill="none" xmlns="http://www.w3.org/2000/svg">
<path d="M21.995 20L22 19.9992V12.6642C22 9.07583 21.2275 6.31167 17.0325 6.31167C15.0158 6.31167 13.6625 7.41833 13.11 8.4675H13.0517V6.64667H9.07417V19.9992H13.2158V13.3875C13.2158 11.6467 13.5458 9.96333 15.7017 9.96333C17.8258 9.96333 17.8575 11.95 17.8575 13.4992V20H21.995ZM2.33 6.6475H6.47667V20H2.33V6.6475ZM4.40167 0C3.07583 0 2 1.07583 2 2.40167C2 3.7275 3.07583 4.82583 4.40167 4.82583C5.7275 4.82583 6.80333 3.7275 6.80333 2.40167C6.80289 1.76484 6.54972 1.15422 6.09941 0.703919C5.64911 0.253615 5.03849 0.000441474 4.40167 0Z" fill="white"/>
</svg>
