<svg width="24" height="24" viewBox="0 0 24 24" fill="none" xmlns="http://www.w3.org/2000/svg">
<path d="M12 7.33203C9.97603 7.33203 8.33203 8.97603 8.33203 11C8.33203 13.024 9.97603 14.672 12 14.672C14.024 14.672 15.672 13.024 15.672 11C15.672 8.97603 14.024 7.33203 12 7.33203Z" fill="#fff"/>
<path d="M17.536 1H6.464C4.004 1 2 3.004 2 5.464V16.536C2 19 4.004 21 6.464 21H17.536C20 21 22 19 22 16.536V5.464C22 3.004 20 1 17.536 1ZM12 17.48C8.428 17.48 5.52 14.572 5.52 11C5.52 7.428 8.428 4.524 12 4.524C15.572 4.524 18.48 7.428 18.48 11C18.48 14.572 15.572 17.48 12 17.48ZM18.616 5.7C17.86 5.7 17.244 5.088 17.244 4.332C17.244 3.576 17.86 2.96 18.616 2.96C19.372 2.96 19.988 3.576 19.988 4.332C19.988 5.088 19.372 5.7 18.616 5.7Z" fill="#fff"/>
</svg>
