<svg width="24" height="24" viewBox="0 0 24 24" fill="none" xmlns="http://www.w3.org/2000/svg">
<path d="M12.5025 1H12.4975C6.98375 1 2.5 5.485 2.5 11C2.5 13.1875 3.205 15.215 4.40375 16.8612L3.1575 20.5763L7.00125 19.3475C8.5825 20.395 10.4688 21 12.5025 21C18.0162 21 22.5 16.5138 22.5 11C22.5 5.48625 18.0162 1 12.5025 1Z" fill="white"/>
<path d="M18.3207 15.1217C18.0795 15.803 17.122 16.368 16.3582 16.533C15.8357 16.6442 15.1532 16.733 12.8557 15.7805C9.91695 14.563 8.02445 11.5767 7.87695 11.383C7.7357 11.1892 6.68945 9.80172 6.68945 8.36672C6.68945 6.93172 7.4182 6.23297 7.71195 5.93297C7.9532 5.68672 8.35195 5.57422 8.73445 5.57422C8.8582 5.57422 8.96945 5.58047 9.06945 5.58547C9.3632 5.59797 9.5107 5.61547 9.70445 6.07922C9.9457 6.66047 10.5332 8.09547 10.6032 8.24297C10.6745 8.39047 10.7457 8.59047 10.6457 8.78422C10.552 8.98422 10.4695 9.07297 10.322 9.24297C10.1745 9.41297 10.0345 9.54297 9.88695 9.72547C9.75195 9.88422 9.59945 10.0542 9.76945 10.348C9.93945 10.6355 10.527 11.5942 11.392 12.3642C12.5082 13.358 13.4132 13.6755 13.737 13.8105C13.9782 13.9105 14.2657 13.8867 14.442 13.6992C14.6657 13.458 14.942 13.058 15.2232 12.6642C15.4232 12.3817 15.6757 12.3467 15.9407 12.4467C16.2107 12.5405 17.6395 13.2467 17.9332 13.393C18.227 13.5405 18.4207 13.6105 18.492 13.7342C18.562 13.858 18.562 14.4392 18.3207 15.1217Z" fill="#213F66"/>
</svg>
