<svg xmlns="http://www.w3.org/2000/svg" version="1.1" xmlns:xlink="http://www.w3.org/1999/xlink" xmlns:svgjs="http://svgjs.dev/svgjs" width="40" height="40"><svg width="40" height="40" viewBox="0 0 40 40" fill="none" xmlns="http://www.w3.org/2000/svg">
<path d="M9.61217 10.3169L0.784431 19.0531C0.352095 19.4809 0.350903 20.179 0.781776 20.6083L9.17455 28.9709C9.59603 29.3908 10.2756 29.3978 10.7056 28.9865L14.1888 25.6546C14.6336 25.2291 14.6409 24.5208 14.2048 24.0864L10.7276 20.6217C10.2916 20.1872 10.2988 19.4789 10.7436 19.0534L14.2425 15.7066C14.6662 15.3013 15.3338 15.3013 15.7575 15.7066L19.305 19.0999C19.7307 19.5071 20.4023 19.5049 20.8253 19.0948L24.267 15.7581C24.7069 15.3317 24.7117 14.6274 24.2777 14.195L20.3883 10.3196C20.1829 10.1149 19.9048 10 19.6148 10H10.383C10.0944 10 9.81735 10.1139 9.61217 10.3169Z" fill="#374151"></path>
<path d="M30.3878 29.4092L39.2156 20.6731C39.6479 20.2452 39.6491 19.5471 39.2182 19.1178L30.8255 10.7553C30.404 10.3353 29.7244 10.3284 29.2944 10.7397L25.8112 14.0715C25.3664 14.497 25.3591 15.2053 25.7952 15.6398L29.2724 19.1045C29.7084 19.5389 29.7012 20.2472 29.2564 20.6727L25.7575 24.0195C25.3338 24.4248 24.6662 24.4248 24.2425 24.0195L20.695 20.6263C20.2693 20.219 19.5977 20.2213 19.1747 20.6314L15.733 23.968C15.2931 24.3945 15.2883 25.0987 15.7223 25.5312L19.6117 29.4066C19.8171 29.6112 20.0952 29.7261 20.3852 29.7261H29.617C29.9056 29.7261 30.1827 29.6122 30.3878 29.4092Z" fill="#2B73FF"></path>
</svg><style>@media (prefers-color-scheme: light) { :root { filter: none; } }
@media (prefers-color-scheme: dark) { :root { filter: none; } }
</style></svg>